{"glyphs":{"0":{"ha":356,"x_min":0,"x_max":0,"o":""},"1":{"ha":28,"x_min":0,"x_max":0,"o":""},"2":{"ha":0,"x_min":0,"x_max":0,"o":""},"3":{"ha":294,"x_min":0,"x_max":0,"o":""},"4":{"ha":268,"x_min":0,"x_max":0,"o":""},"5":{"ha":300,"x_min":0,"x_max":0,"o":""},"6":{"ha":297,"x_min":0,"x_max":0,"o":""},"7":{"ha":0,"x_min":0,"x_max":0,"o":""},"8":{"ha":293,"x_min":0,"x_max":0,"o":""},"9":{"ha":283,"x_min":0,"x_max":0,"o":""},"\u0000":{"ha":-229,"x_min":0,"x_max":0,"o":""},"\u0001":{"ha":-229,"x_min":0,"x_max":0,"o":""},"\u0002":{"ha":-229,"x_min":0,"x_max":0,"o":""},"\u0003":{"ha":-229,"x_min":0,"x_max":0,"o":""},"\u0004":{"ha":-229,"x_min":0,"x_max":0,"o":""},"\u0005":{"ha":-229,"x_min":0,"x_max":0,"o":""},"\u0006":{"ha":-229,"x_min":0,"x_max":0,"o":""},"\u0007":{"ha":-229,"x_min":0,"x_max":0,"o":""},"\b":{"ha":-229,"x_min":0,"x_max":0,"o":""},"\t":{"ha":-229,"x_min":0,"x_max":0,"o":""},"\n":{"ha":-229,"x_min":0,"x_max":0,"o":""},"\u000b":{"ha":-229,"x_min":0,"x_max":0,"o":""},"\f":{"ha":-229,"x_min":0,"x_max":0,"o":""},"\r":{"ha":-229,"x_min":0,"x_max":0,"o":""},"\u000e":{"ha":-229,"x_min":0,"x_max":0,"o":""},"\u000f":{"ha":-229,"x_min":0,"x_max":0,"o":""},"\u0010":{"ha":-229,"x_min":0,"x_max":0,"o":""},"\u0011":{"ha":-229,"x_min":0,"x_max":0,"o":""},"\u0012":{"ha":-229,"x_min":0,"x_max":0,"o":""},"\u0013":{"ha":-229,"x_min":0,"x_max":0,"o":""},"\u0014":{"ha":-229,"x_min":0,"x_max":0,"o":""},"\u0015":{"ha":-229,"x_min":0,"x_max":0,"o":""},"\u0016":{"ha":-229,"x_min":0,"x_max":0,"o":""},"\u0017":{"ha":-229,"x_min":0,"x_max":0,"o":""},"\u0018":{"ha":-229,"x_min":0,"x_max":0,"o":""},"\u0019":{"ha":-229,"x_min":0,"x_max":0,"o":""},"\u001a":{"ha":-229,"x_min":0,"x_max":0,"o":""},"\u001b":{"ha":-229,"x_min":0,"x_max":0,"o":""},"\u001c":{"ha":-229,"x_min":0,"x_max":0,"o":""},"\u001d":{"ha":-229,"x_min":0,"x_max":0,"o":""},"\u001e":{"ha":-229,"x_min":0,"x_max":0,"o":""},"\u001f":{"ha":-229,"x_min":0,"x_max":0,"o":""}," ":{"ha":-229,"x_min":0,"x_max":0,"o":""}," ":{"ha":-229,"x_min":0,"x_max":0,"o":""},"!":{"ha":3,"x_min":0,"x_max":0,"o":"m 210 913 b 94 796 210 849 158 796 b 81 792 88 796 88 790 z "},"\"":{"ha":97,"x_min":0,"x_max":0,"o":"m 131 1056 z m 326 1056 z "},"#":{"ha":500,"x_min":0,"x_max":0,"o":"l 728 24 l 946 NaN m 506 NaN "},"$":{"ha":0,"x_min":0,"x_max":0,"o":"b 993 243 519 251 1046 247 b NaN NaN 942 239 908 NaN "},"%":{"ha":0,"x_min":0,"x_max":0,"o":"m 376 32 l 438 -4 l 1013 971 l 953 1006 b 1174 886 953 667 1075 765 z m 801 886 b 953 1038 801 969 869 1038 b 1104 886 1036 1038 1104 969 b 953 736 1104 803 1036 736 b 801 886 869 736 801 803 z m 1557 667 b 1336 446 1435 667 1336 568 b 1557 225 1336 324 1435 225 b 1776 446 1678 225 1776 324 b 1557 667 1776 568 1678 667 z m 1557 294 b 1406 446 1474 294 1406 363 b 1557 597 1406 529 1474 597 b 1707 446 1640 597 1707 529 b 1557 294 1707 363 1640 294 z "},"&":{"ha":0,"x_min":0,"x_max":0,"o":""},"'":{"ha":-100,"x_min":0,"x_max":0,"o":"m 283 794 b NaN 849 283 815 418 849 z "},"(":{"ha":-82,"x_min":0,"x_max":0,"o":""},")":{"ha":0,"x_min":0,"x_max":0,"o":""},"*":{"ha":0,"x_min":0,"x_max":0,"o":""},"+":{"ha":456,"x_min":0,"x_max":0,"o":""},",":{"ha":0,"x_min":0,"x_max":0,"o":""},"-":{"ha":156,"x_min":0,"x_max":0,"o":"m 593 415 l 593 485 l 208 485 l 208 415 z "},"‑":{"ha":156,"x_min":0,"x_max":0,"o":"m 593 415 l 593 485 l 208 485 l 208 415 z "},".":{"ha":-269,"x_min":0,"x_max":0,"o":"m 188 -4 b 265 74 231 -4 265 31 b 188 150 265 117 231 150 b 111 74 146 150 111 117 b 188 -4 111 31 146 -4 z "},"/":{"ha":0,"x_min":0,"x_max":0,"o":"m 585 1068 l 208 0 l 260 65 l 238 443 l 1304 NaN z "},":":{"ha":-75,"x_min":0,"x_max":0,"o":"m 0 -411 b 78 -335 43 -411 78 -378 b 0 -257 78 -292 43 -257 b -76 -335 -42 -257 -76 -292 b 0 -411 -76 -378 -42 -411 z "},";":{"ha":-62,"x_min":0,"x_max":0,"o":"m 0 -411 b 38 -426 35 -407 40 -414 b -72 -568 25 -479 -11 -536 l -64 -589 b -136 -540 -79 -560 -101 -540 b -212 -618 -178 -540 -212 -575 b -136 -694 -212 -661 -178 -694 z "},"<":{"ha":261,"x_min":0,"x_max":0,"o":"m 490 524 l 699 978 l 325 1014 l 369 631 l 699 1014 l 1026 978 l 1071 NaN z "},"=":{"ha":403,"x_min":0,"x_max":0,"o":""},">":{"ha":261,"x_min":0,"x_max":0,"o":"m 699 524 l 244 896 l 208 851 l 592 524 l 208 194 l 244 150 z "},"?":{"ha":446,"x_min":0,"x_max":0,"o":""},"@":{"ha":0,"x_min":0,"x_max":0,"o":"b -504 1051 0 781 -382 1051 b -68 1307 -286 1051 -68 1206 b NaN NaN -68 1433 21 NaN l NaN NaN l NaN NaN l NaN NaN b NaN NaN NaN NaN NaN NaN b NaN NaN NaN NaN NaN NaN b NaN NaN NaN NaN NaN NaN b NaN NaN NaN NaN NaN NaN "},"A":{"ha":574,"x_min":0,"x_max":0,"o":"m 167 0 "},"B":{"ha":0,"x_min":0,"x_max":0,"o":"m 156 67 b 122 33 138 67 122 51 b 260 38 154 35 207 38 b 432 31 347 38 432 31 b 594 263 547 74 594 153 b 542 182 594 207 569 182 z m 769 1093 "},"C":{"ha":565,"x_min":0,"x_max":0,"o":""},"D":{"ha":507,"x_min":0,"x_max":0,"o":""},"E":{"ha":382,"x_min":0,"x_max":0,"o":"l 0 157 l -3 157 l -3 101 l -17 101 l -17 451 l 218 451 b 308 389 289 451 308 426 b 342 356 308 371 322 356 b 374 392 360 356 375 372 b NaN 414 374 390 375 414 b NaN 418 NaN 433 NaN 418 b NaN 417 NaN 418 NaN 432 b NaN 404 NaN 436 NaN 460 l NaN -346 b NaN -426 NaN -401 NaN -426 "},"F":{"ha":346,"x_min":0,"x_max":0,"o":""},"G":{"ha":565,"x_min":0,"x_max":0,"o":"b 647 NaN 654 0 647 NaN b 1124 NaN 647 NaN 924 NaN "},"H":{"ha":529,"x_min":0,"x_max":0,"o":""},"I":{"ha":0,"x_min":0,"x_max":0,"o":""},"J":{"ha":229,"x_min":0,"x_max":0,"o":""},"K":{"ha":0,"x_min":0,"x_max":0,"o":""},"L":{"ha":382,"x_min":0,"x_max":0,"o":"m 875 300 b NaN 283 875 297 819 283 "},"M":{"ha":0,"x_min":0,"x_max":0,"o":"m 103 67 b 42 33 103 53 118 33 b 39 NaN 14 33 39 89 l 39 NaN l 342 NaN b 386 NaN 350 NaN 378 NaN l 751 NaN l 751 NaN b 700 NaN 751 NaN 728 NaN b 667 NaN 682 NaN 667 NaN b 701 NaN 667 NaN 683 NaN b 649 NaN 674 NaN 649 NaN b 1346 NaN 1401 NaN 1399 NaN b NaN NaN 1343 NaN 1290 NaN b NaN NaN NaN NaN NaN NaN l NaN NaN l NaN NaN b NaN NaN NaN NaN NaN NaN z "},"N":{"ha":0,"x_min":0,"x_max":0,"o":""},"O":{"ha":726,"x_min":0,"x_max":0,"o":""},"P":{"ha":407,"x_min":0,"x_max":0,"o":""},"Q":{"ha":726,"x_min":0,"x_max":0,"o":""},"R":{"ha":0,"x_min":0,"x_max":0,"o":"m 932 104 b 826 236 889 96 865 142 l 785 338 b 690 461 763 392 732 432 b 900 729 838 503 900 613 b 469 1050 900 1026 624 1061 b 297 1043 469 1050 385 1043 b 160 1049 244 1043 192 1046 b 124 1014 140 1049 124 1033 b 157 981 124 996 139 981 b 208 900 185 981 208 956 l 208 147 l 208 92 l 185 92 l 185 404 b 279 390 218 399 249 393 b 422 217 364 382 381 321 l 464 114 b 758 -22 533 -57 615 -106 b 772 31 776 -12 783 13 "},"S":{"ha":488,"x_min":0,"x_max":0,"o":""},"T":{"ha":585,"x_min":0,"x_max":0,"o":""},"U":{"ha":546,"x_min":0,"x_max":0,"o":""},"V":{"ha":579,"x_min":0,"x_max":0,"o":"m 1097 1049 b 1060 1047 1079 1049 1060 1063 b 1101 1088 1060 1067 1128 1088 b 1029 NaN 1049 1088 1029 NaN l 806 NaN l 582 NaN b 617 NaN 636 NaN 617 NaN b 585 NaN 617 NaN 639 NaN "},"W":{"ha":774,"x_min":0,"x_max":0,"o":""},"X":{"ha":610,"x_min":0,"x_max":0,"o":""},"Y":{"ha":554,"x_min":0,"x_max":0,"o":"b 2072 94 1024 0 2072 78 b NaN 42 2072 67 2021 42 l NaN -292 l NaN 40 b NaN 65 NaN 40 NaN 39 b NaN 103 NaN 89 NaN 103 b NaN NaN NaN 103 NaN NaN l NaN NaN b NaN NaN NaN NaN NaN NaN l NaN NaN l NaN NaN "},"Z":{"ha":551,"x_min":0,"x_max":0,"o":""},"[":{"ha":-46,"x_min":0,"x_max":0,"o":""},"¥":{"ha":692,"x_min":0,"x_max":0,"o":"m 244 1049 b 221 1089 244 1083 257 1068 l 456 686 l 292 686 b NaN NaN 311 686 NaN NaN l NaN NaN l NaN NaN l NaN NaN l NaN NaN l NaN NaN b NaN NaN NaN NaN NaN NaN b NaN NaN NaN NaN NaN NaN b NaN NaN NaN NaN NaN NaN l NaN NaN l NaN NaN l NaN NaN l NaN NaN l NaN NaN b NaN NaN NaN NaN NaN NaN b NaN NaN NaN NaN NaN NaN l NaN NaN l NaN NaN b NaN NaN NaN NaN NaN NaN b NaN NaN NaN NaN NaN NaN b NaN NaN NaN NaN NaN NaN b NaN NaN NaN NaN NaN NaN b NaN NaN NaN NaN NaN NaN b NaN NaN NaN NaN NaN NaN l NaN NaN l NaN NaN b NaN NaN NaN NaN NaN NaN z "},"]":{"ha":0,"x_min":0,"x_max":0,"o":""},"^":{"ha":417,"x_min":0,"x_max":0,"o":"m 253 638 l 531 981 l 810 638 l 854 672 l 531 1090 l 208 672 z "},"_":{"ha":49,"x_min":0,"x_max":0,"o":"m 694 -118 l 694 -49 l 0 -49 l 0 -118 z "},"̲":{"ha":49,"x_min":0,"x_max":0,"o":"m 694 -118 l 694 -49 l 0 -49 l 0 -118 z "},"a":{"ha":304,"x_min":0,"x_max":0,"o":""},"b":{"ha":390,"x_min":0,"x_max":0,"o":""},"c":{"ha":246,"x_min":0,"x_max":0,"o":""},"d":{"ha":390,"x_min":0,"x_max":0,"o":""},"e":{"ha":249,"x_min":0,"x_max":0,"o":""},"f":{"ha":214,"x_min":0,"x_max":0,"o":"m 529 850 b 629 750 529 794 575 750 b 718 806 668 750 701 772 b 511 1090 781 915 690 1090 b 229 721 329 1090 229 946 l 229 707 l 157 707 l 229 707 l 229 217 l 200 217 l 200 707 l 340 707 l 340 567 l 354 567 b 461 867 354 768 364 867 b 514 771 535 867 554 806 b 479 696 493 751 479 725 z "},"g":{"ha":426,"x_min":0,"x_max":0,"o":""},"h":{"ha":397,"x_min":0,"x_max":0,"o":""},"i":{"ha":-54,"x_min":0,"x_max":0,"o":"m 408 960 "},"j":{"ha":-33,"x_min":0,"x_max":0,"o":""},"k":{"ha":343,"x_min":0,"x_max":0,"o":"m 901 67 "},"l":{"ha":0,"x_min":0,"x_max":0,"o":""},"m":{"ha":0,"x_min":0,"x_max":0,"o":"m 260 688 b 226 654 260 669 244 654 b 222 658 207 654 222 639 b 253 656 222 631 197 656 l 253 979 b 378 1160 253 1085 300 1160 b 474 979 443 1160 474 1099 l 474 656 l 474 600 l 449 600 l 449 924 b 578 1104 449 1032 501 1104 b 685 924 643 1104 685 1043 l 685 600 l 1008 600 b 742 850 1008 786 883 850 b 561 743 668 850 601 813 b 342 850 518 815 439 850 b 210 797 292 850 246 831 l 213 804 z "},"n":{"ha":410,"x_min":0,"x_max":0,"o":"m 157 621 b 208 568 182 621 208 613 l 208 147 b 157 67 208 92 185 67 b 124 33 139 67 124 51 b 158 -1 124 14 140 -1 b 106 79 131 -1 106 24 l 106 403 b 268 583 106 508 192 583 b 393 403 335 583 393 538 l 393 79 l 717 79 b 432 329 717 250 600 329 b 257 251 372 329 306 300 b 265 283 258 265 261 274 b 164 285 219 276 197 282 z "},"o":{"ha":315,"x_min":0,"x_max":0,"o":""},"p":{"ha":390,"x_min":0,"x_max":0,"o":"m 574 721 b 382 617 517 721 439 690 b 414 633 382 618 414 622 b 429 650 414 639 429 642 b 439 654 429 650 439 646 b 424 621 439 656 424 640 b NaN NaN 424 576 NaN NaN l NaN NaN l NaN NaN l NaN NaN b NaN NaN NaN NaN NaN NaN b NaN NaN NaN NaN NaN NaN b NaN NaN NaN NaN NaN NaN z m NaN NaN b NaN NaN NaN NaN NaN NaN b NaN NaN NaN NaN NaN NaN b NaN NaN NaN NaN NaN NaN b NaN NaN NaN NaN NaN NaN z "},"q":{"ha":418,"x_min":0,"x_max":0,"o":"m 908 -293 b 856 -212 879 -293 856 -268 l 856 424 b 978 447 888 425 932 428 b NaN NaN 964 464 944 465 b NaN NaN NaN NaN NaN NaN b NaN NaN NaN NaN NaN NaN b NaN NaN NaN NaN NaN NaN b NaN NaN NaN NaN NaN NaN b NaN NaN NaN NaN NaN NaN b NaN NaN NaN NaN NaN NaN l NaN NaN z m NaN NaN b NaN NaN NaN NaN NaN NaN b NaN NaN NaN NaN NaN NaN b NaN NaN NaN NaN NaN NaN b NaN NaN NaN NaN NaN NaN z "},"r":{"ha":0,"x_min":0,"x_max":0,"o":""},"s":{"ha":228,"x_min":0,"x_max":0,"o":""},"t":{"ha":0,"x_min":0,"x_max":0,"o":""},"u":{"ha":410,"x_min":0,"x_max":0,"o":"b -33 33 0 18 -14 33 "},"v":{"ha":464,"x_min":0,"x_max":0,"o":"m 951 721 b 914 744 951 789 976 772 l 760 392 l 601 743 b 608 824 575 803 579 824 b 592 808 608 843 592 828 b 626 774 592 789 607 774 b 706 693 668 774 678 754 "},"w":{"ha":788,"x_min":0,"x_max":0,"o":"m 1276 721 b 1332 771 1276 739 1346 771 b 1246 NaN 1267 771 1246 NaN l 1147 NaN "},"x":{"ha":422,"x_min":0,"x_max":0,"o":"l 913 67 b 932 4 946 19 946 8 b 908 -28 918 0 908 -12 b 943 -62 908 -47 925 -62 "},"y":{"ha":500,"x_min":0,"x_max":0,"o":""},"z":{"ha":329,"x_min":0,"x_max":0,"o":""},"{":{"ha":-92,"x_min":0,"x_max":0,"o":"m 282 369 b 269 122 282 244 269 225 b 408 -87 269 -4 336 -76 l 415 -50 b 339 115 349 -26 339 42 b 351 369 339 189 351 269 b 290 522 351 439 336 494 b 351 675 336 550 351 606 b 339 929 351 775 339 856 b 415 1094 339 1003 349 1071 l 408 1132 b 269 922 336 1122 269 1049 b 282 675 269 819 282 800 b 208 542 282 550 242 542 l 208 504 b 282 369 242 504 282 494 z "},"}":{"ha":0,"x_min":0,"x_max":0,"o":""},"ʼ":{"ha":0,"x_min":0,"x_max":0,"o":"m 188 1050 b 264 972 188 1007 222 972 z "},"’":{"ha":0,"x_min":0,"x_max":0,"o":"m 188 1050 b 264 972 188 1007 222 972 z "},"\\":{"ha":0,"x_min":0,"x_max":0,"o":"m 274 1068 l 208 1044 l 260 1421 l -807 NaN l -844 NaN l -822 NaN z "},"ʻ":{"ha":-62,"x_min":0,"x_max":0,"o":"b -76 78 0 43 -35 78 "},"‘":{"ha":-62,"x_min":0,"x_max":0,"o":"b -76 78 0 43 -35 78 "},"~":{"ha":683,"x_min":0,"x_max":0,"o":"m 1099 525 b 1556 599 1356 413 1479 528 z "},"∼":{"ha":683,"x_min":0,"x_max":0,"o":"m 1099 525 b 1556 599 1356 413 1479 528 z "},"¡":{"ha":4,"x_min":0,"x_max":0,"o":"b 271 -89 325 0 271 -44 b 172 -44 271 -143 217 -99 m 172 -900 b 289 -783 236 -900 289 -847 b 288 -764 289 -776 289 -772 b 181 -150 257 -561 214 -504 l 164 -150 b 57 -764 129 -504 88 -561 b 56 -783 56 -771 56 -776 b 172 -900 56 -847 107 -900 z "},"¢":{"ha":417,"x_min":0,"x_max":0,"o":"b 258 325 0 208 189 325 b 506 232 354 325 506 138 b NaN 60 506 85 717 60 l NaN -57 b NaN -92 NaN -76 NaN -92 b NaN -57 NaN -92 NaN -76 l NaN 56 b NaN 256 NaN 57 NaN 107 b NaN 297 NaN 272 NaN 290 b NaN 278 NaN 306 NaN 296 b NaN 125 NaN 169 NaN 126 l NaN 714 b NaN 650 NaN 713 NaN 679 b NaN 569 NaN 632 NaN 603 b NaN 469 NaN 514 NaN 469 b NaN 525 NaN 469 NaN 492 b NaN 783 NaN 633 NaN 782 l NaN 894 b NaN 929 NaN 914 NaN 929 b NaN 894 NaN 929 NaN 914 l NaN 778 b NaN 419 NaN 751 NaN 626 b NaN 719 NaN 725 NaN 764 b NaN NaN NaN 825 NaN NaN b NaN NaN NaN NaN NaN NaN "},"£":{"ha":536,"x_min":0,"x_max":0,"o":"m 208 597 b 435 782 208 904 381 782 b 547 1161 381 782 547 1094 b 582 1126 547 1142 563 1126 l 674 1126 b 308 1018 658 1179 408 1140 b 96 1024 132 1007 117 1010 b NaN NaN 83 NaN NaN NaN l NaN NaN b NaN NaN NaN NaN NaN NaN b NaN NaN NaN NaN NaN NaN b NaN NaN NaN NaN NaN NaN b NaN NaN NaN NaN NaN NaN b NaN NaN NaN NaN NaN NaN b NaN NaN NaN NaN NaN NaN b NaN NaN NaN NaN NaN NaN b NaN NaN NaN NaN NaN NaN b NaN NaN NaN NaN NaN NaN b NaN NaN NaN NaN NaN NaN b NaN NaN NaN NaN NaN NaN b NaN NaN NaN NaN NaN NaN l NaN NaN b NaN NaN NaN NaN NaN NaN b NaN NaN NaN NaN NaN NaN l NaN NaN b NaN NaN NaN NaN NaN NaN b NaN NaN NaN NaN NaN NaN b NaN NaN NaN NaN NaN NaN b NaN NaN NaN NaN NaN NaN b NaN NaN NaN NaN NaN NaN b NaN NaN NaN NaN NaN NaN b NaN NaN NaN NaN NaN NaN b NaN NaN NaN NaN NaN NaN b NaN NaN NaN NaN NaN NaN l NaN NaN b NaN NaN NaN NaN NaN NaN z "},"⁄":{"ha":0,"x_min":0,"x_max":0,"o":""},"ƒ":{"ha":685,"x_min":0,"x_max":0,"o":"m 917 1097 b 600 757 736 1115 622 982 l 594 707 l 479 707 b NaN NaN 499 707 NaN NaN l NaN NaN l NaN NaN b NaN NaN NaN NaN NaN NaN b NaN NaN NaN NaN NaN NaN b NaN NaN NaN NaN NaN NaN b NaN NaN NaN NaN NaN NaN b NaN NaN NaN NaN NaN NaN b NaN NaN NaN NaN NaN NaN b NaN NaN NaN NaN NaN NaN l NaN NaN l NaN NaN b NaN NaN NaN NaN NaN NaN b NaN NaN NaN NaN NaN NaN l NaN NaN l NaN NaN b NaN NaN NaN NaN NaN NaN "},"¤":{"ha":488,"x_min":0,"x_max":0,"o":"b 379 546 0 208 190 546 b 231 518 264 546 296 446 l 151 413 b 158 364 140 397 143 375 b 207 371 174 353 196 356 l 288 478 b 485 435 339 450 404 435 b 678 485 556 435 622 451 l 764 371 b 813 364 775 356 797 353 b 819 413 828 375 831 397 l 735 525 b 843 799 801 588 843 679 b 740 1079 843 913 813 1013 l 819 1185 b 813 1233 831 1200 828 1222 b 764 1226 797 1244 775 1242 l 683 1119 b 485 1163 632 1147 567 1163 b 293 1113 415 1163 349 1146 l 207 1226 b 158 1233 196 1242 174 1244 b 151 1185 143 1222 140 1200 l 236 1071 b 126 799 169 1010 126 917 m 485 1093 b 654 799 597 1093 654 968 b 485 504 654 633 600 504 b 317 799 374 504 317 628 b 485 1093 317 964 371 1093 z "},"“":{"ha":140,"x_min":0,"x_max":0,"o":"b -76 78 0 43 -35 78 m 126 78 b 89 93 108 78 85 67 b 199 233 101 144 138 203 l 190 254 b 54 -29 68 222 3 74 b -22 49 54 14 19 49 z "},"«":{"ha":219,"x_min":0,"x_max":0,"o":"m 449 168 l 208 -186 z m 369 -186 l 610 -542 z "},"‹":{"ha":58,"x_min":0,"x_max":0,"o":"m 288 524 l 496 764 l 140 NaN z "},"›":{"ha":58,"x_min":0,"x_max":0,"o":"m 496 524 l 543 492 z "},"‒":{"ha":439,"x_min":0,"x_max":0,"o":"m 876 415 l 876 485 l 208 485 l 208 415 z "},"–":{"ha":439,"x_min":0,"x_max":0,"o":"m 876 415 l 876 485 l 208 485 l 208 415 z "},"·":{"ha":-75,"x_min":0,"x_max":0,"o":""},"∙":{"ha":-75,"x_min":0,"x_max":0,"o":""},"•":{"ha":0,"x_min":0,"x_max":0,"o":""},"‚":{"ha":0,"x_min":0,"x_max":0,"o":""},"„":{"ha":0,"x_min":0,"x_max":0,"o":"m 188 -4 z m 390 -4 z "},"”":{"ha":0,"x_min":0,"x_max":0,"o":"m 188 1051 z m 392 1051 z "},"»":{"ha":219,"x_min":0,"x_max":0,"o":"m 496 524 l 543 492 z m 704 492 l 944 847 z "},"¿":{"ha":446,"x_min":0,"x_max":0,"o":"m 0 -856 b 332 -544 172 -856 349 -721 b 215 -436 328 -483 276 -436 b 99 -553 151 -436 99 -487 b 178 -662 99 -603 132 -646 b 175 -732 213 -676 199 -707 b 39 -786 140 -764 93 -786 b -154 -564 -103 -786 -154 -700 b 10 -106 -154 -372 10 -396 l -7 -106 b -342 -564 -56 -324 -342 -329 b 0 -856 -342 -725 -225 -856 z "},"̶":{"ha":0,"x_min":0,"x_max":0,"o":"m 1254 415 l 1254 485 l 136 485 l 136 415 z "},"—":{"ha":0,"x_min":0,"x_max":0,"o":"m 1254 415 l 1254 485 l 136 485 l 136 415 z "},"ª":{"ha":28,"x_min":0,"x_max":0,"o":""},"º":{"ha":53,"x_min":0,"x_max":0,"o":""},"ı":{"ha":188,"x_min":0,"x_max":0,"o":""},"¬":{"ha":550,"x_min":0,"x_max":0,"o":"m 918 576 l 918 296 l 988 296 l 988 646 l 208 646 l 208 576 z "},"²":{"ha":-112,"x_min":0,"x_max":0,"o":""},"³":{"ha":-112,"x_min":0,"x_max":0,"o":""},"µ":{"ha":0,"x_min":0,"x_max":0,"o":"b -33 222 0 208 -19 222 b -33 239 -14 222 11 249 l -33 -340 b -62 -597 -33 -511 -82 -544 b -46 -607 -62 -642 -46 -568 b 92 NaN -46 -574 92 NaN l 92 NaN b 201 NaN 125 NaN 161 NaN b 379 NaN 263 NaN 329 NaN l 379 NaN b 346 NaN 379 NaN 364 NaN b 294 NaN 318 NaN 294 NaN b 713 NaN 751 NaN 731 NaN b 625 NaN 683 NaN 667 NaN b 525 NaN 581 NaN 558 NaN b 507 NaN 525 NaN 551 NaN l 507 NaN b 344 NaN 507 NaN 421 NaN b 219 NaN 279 NaN 219 NaN l 219 NaN b 231 NaN 219 NaN 225 NaN b 229 NaN 233 NaN 233 NaN b 183 NaN 221 NaN 200 NaN b 96 NaN 154 NaN 136 NaN b -6 NaN 50 NaN 28 NaN b -40 NaN -25 NaN -40 NaN "},"¹":{"ha":-112,"x_min":0,"x_max":0,"o":""},"¼":{"ha":0,"x_min":0,"x_max":0,"o":""},"½":{"ha":0,"x_min":0,"x_max":0,"o":""},"¾":{"ha":0,"x_min":0,"x_max":0,"o":""},"｡":{"ha":49,"x_min":0,"x_max":0,"o":""},"｢":{"ha":49,"x_min":0,"x_max":0,"o":""},"｣":{"ha":0,"x_min":0,"x_max":0,"o":""},"､":{"ha":0,"x_min":0,"x_max":0,"o":""},"ｦ":{"ha":49,"x_min":0,"x_max":0,"o":""},"ｧ":{"ha":49,"x_min":0,"x_max":0,"o":""},"ｨ":{"ha":49,"x_min":0,"x_max":0,"o":""},"ｩ":{"ha":49,"x_min":0,"x_max":0,"o":""},"ｪ":{"ha":49,"x_min":0,"x_max":0,"o":""},"ｫ":{"ha":49,"x_min":0,"x_max":0,"o":""},"ｬ":{"ha":49,"x_min":0,"x_max":0,"o":""},"ｭ":{"ha":49,"x_min":0,"x_max":0,"o":""},"ｮ":{"ha":49,"x_min":0,"x_max":0,"o":""},"ｯ":{"ha":49,"x_min":0,"x_max":0,"o":""},"ｰ":{"ha":49,"x_min":0,"x_max":0,"o":"b 163 39 139 0 163 21 b NaN NaN 163 44 221 NaN b NaN NaN NaN NaN NaN NaN b NaN NaN NaN NaN NaN NaN b NaN NaN NaN NaN NaN NaN b NaN NaN NaN NaN NaN NaN b NaN NaN NaN NaN NaN NaN b NaN NaN NaN NaN NaN NaN b NaN NaN NaN NaN NaN NaN "},"ｱ":{"ha":49,"x_min":0,"x_max":0,"o":""},"ｲ":{"ha":49,"x_min":0,"x_max":0,"o":""},"ｳ":{"ha":49,"x_min":0,"x_max":0,"o":""},"ｴ":{"ha":49,"x_min":0,"x_max":0,"o":""},"ｵ":{"ha":49,"x_min":0,"x_max":0,"o":""},"ｶ":{"ha":49,"x_min":0,"x_max":0,"o":""},"ｷ":{"ha":49,"x_min":0,"x_max":0,"o":""},"ｸ":{"ha":49,"x_min":0,"x_max":0,"o":""},"ｹ":{"ha":49,"x_min":0,"x_max":0,"o":""},"ｺ":{"ha":49,"x_min":0,"x_max":0,"o":""},"ｻ":{"ha":49,"x_min":0,"x_max":0,"o":""},"ｼ":{"ha":49,"x_min":0,"x_max":0,"o":""},"ｽ":{"ha":49,"x_min":0,"x_max":0,"o":""},"ｾ":{"ha":49,"x_min":0,"x_max":0,"o":""},"ｿ":{"ha":49,"x_min":0,"x_max":0,"o":""},"ﾀ":{"ha":49,"x_min":0,"x_max":0,"o":""},"ﾁ":{"ha":49,"x_min":0,"x_max":0,"o":""},"ﾂ":{"ha":49,"x_min":0,"x_max":0,"o":""},"ﾃ":{"ha":49,"x_min":0,"x_max":0,"o":""},"ﾄ":{"ha":49,"x_min":0,"x_max":0,"o":""},"ﾅ":{"ha":49,"x_min":0,"x_max":0,"o":""},"ﾆ":{"ha":49,"x_min":0,"x_max":0,"o":""},"ﾇ":{"ha":49,"x_min":0,"x_max":0,"o":""},"ﾈ":{"ha":49,"x_min":0,"x_max":0,"o":""},"ﾉ":{"ha":49,"x_min":0,"x_max":0,"o":""},"ﾊ":{"ha":49,"x_min":0,"x_max":0,"o":""},"ﾋ":{"ha":49,"x_min":0,"x_max":0,"o":""},"ﾌ":{"ha":49,"x_min":0,"x_max":0,"o":""},"ﾍ":{"ha":49,"x_min":0,"x_max":0,"o":""},"ﾎ":{"ha":49,"x_min":0,"x_max":0,"o":""},"ﾏ":{"ha":49,"x_min":0,"x_max":0,"o":""},"ﾐ":{"ha":49,"x_min":0,"x_max":0,"o":""},"ﾑ":{"ha":49,"x_min":0,"x_max":0,"o":""},"ﾒ":{"ha":49,"x_min":0,"x_max":0,"o":""},"ﾓ":{"ha":49,"x_min":0,"x_max":0,"o":""},"ﾔ":{"ha":49,"x_min":0,"x_max":0,"o":""},"ﾕ":{"ha":49,"x_min":0,"x_max":0,"o":""},"ﾖ":{"ha":49,"x_min":0,"x_max":0,"o":""},"ﾗ":{"ha":49,"x_min":0,"x_max":0,"o":""},"ﾘ":{"ha":49,"x_min":0,"x_max":0,"o":""},"ﾙ":{"ha":49,"x_min":0,"x_max":0,"o":""},"ﾚ":{"ha":49,"x_min":0,"x_max":0,"o":""},"ﾛ":{"ha":49,"x_min":0,"x_max":0,"o":""},"ﾜ":{"ha":49,"x_min":0,"x_max":0,"o":""},"ﾝ":{"ha":49,"x_min":0,"x_max":0,"o":""}," ":{"ha":0,"x_min":0,"x_max":0,"o":""},"　":{"ha":0,"x_min":0,"x_max":0,"o":""},"、":{"ha":0,"x_min":0,"x_max":0,"o":""},"。":{"ha":0,"x_min":0,"x_max":0,"o":""},"，":{"ha":0,"x_min":0,"x_max":0,"o":"m 175 -4 b 211 -18 188 -4 217 7 b 101 -160 199 -71 164 -128 l 111 -181 b 246 103 232 -149 299 0 b 175 151 232 131 211 151 b 97 74 132 151 97 117 b 175 -4 97 31 132 -4 z "},"．":{"ha":0,"x_min":0,"x_max":0,"o":"m 175 -4 b 253 74 218 -4 253 31 b 175 150 253 117 218 150 b 97 74 132 150 97 117 b 175 -4 97 31 132 -4 z "},"・":{"ha":0,"x_min":0,"x_max":0,"o":"b 96 749 0 792 53 749 b -11 663 42 749 -11 706 b -108 653 -11 610 -65 653 b 53 739 -56 653 -1 696 "},"：":{"ha":0,"x_min":0,"x_max":0,"o":"m 694 696 b 618 619 653 696 618 661 b 694 542 618 576 653 542 z m 694 131 b 618 53 653 131 618 96 b 694 -24 618 10 653 -24 b 772 53 738 -24 772 10 b 694 131 772 96 738 131 z "},"；":{"ha":0,"x_min":0,"x_max":0,"o":"m -64 -589 b -79 -597 -36 -589 -79 -632 b NaN NaN -79 -631 -37 NaN b NaN NaN NaN NaN NaN NaN b NaN NaN NaN NaN NaN NaN z "},"？":{"ha":0,"x_min":0,"x_max":0,"o":"m 364 -544 b 267 -643 310 -544 267 -589 b 364 -742 267 -697 310 -742 z "},"！":{"ha":0,"x_min":0,"x_max":0,"o":"m 694 1049 b 579 932 631 1049 579 996 b 581 913 579 925 579 919 z "},"゛":{"ha":0,"x_min":0,"x_max":0,"o":""},"゜":{"ha":0,"x_min":0,"x_max":0,"o":""},"＿":{"ha":0,"x_min":0,"x_max":0,"o":"m 1389 -118 l 1389 -49 l 0 -49 l 0 -118 z "},"ヽ":{"ha":0,"x_min":0,"x_max":0,"o":""},"ヾ":{"ha":0,"x_min":0,"x_max":0,"o":"m -122 -81 b -356 15 -135 -11 -236 42 "},"ゝ":{"ha":0,"x_min":0,"x_max":0,"o":"b NaN NaN 776 500 751 NaN "},"ゞ":{"ha":0,"x_min":0,"x_max":0,"o":"m -122 -81 b NaN NaN 725 825 699 NaN b NaN NaN NaN NaN NaN NaN z "},"〃":{"ha":0,"x_min":0,"x_max":0,"o":"m 838 853 b 825 744 847 818 842 796 b 421 157 765 558 631 307 b 1019 692 744 158 910 365 b 1068 790 1043 763 1065 761 b 890 926 1072 835 1014 915 b 779 896 769 936 779 896 b 838 853 806 889 831 875 z m 713 697 b 758 788 738 761 756 761 b 597 917 763 828 711 904 b 494 892 486 929 494 892 b 426 899 481 897 460 907 b 201 749 408 883 360 838 b -78 968 26 586 -106 840 b NaN NaN 65 1064 307 NaN z "},"仝":{"ha":0,"x_min":0,"x_max":0,"o":"l 0 -375 l -994 -375 l -994 333 l -1167 333 l -1167 679 l -994 679 l -994 367 l -922 367 l -922 21 "},"々":{"ha":0,"x_min":0,"x_max":0,"o":"l 949 0 l 949 -17 l 838 -17 l 838 -93 l 690 -93 l 690 -187 l 588 -187 l 588 -282 l 619 -282 l 619 -386 l 631 -386 l 631 -458 l 608 -458 l 608 -176 l 456 -176 l 456 -104 l 219 -104 l 219 -44 l 242 -44 l 242 18 l 264 18 l 264 44 l 371 44 l 371 22 l 433 22 l 433 6 l 478 6 l 478 -39 l 518 -39 l 518 -99 l 550 -99 l 550 6 l 603 6 l 603 125 l 714 125 l 714 199 l 933 199 l 933 -18 b 1004 49 942 10 967 18 b 1074 -139 1008 53 1032 58 b 1046 -536 1121 -186 1101 -275 b 1019 -843 946 -710 760 -853 b NaN NaN 1161 -635 1231 -450 "},"ー":{"ha":0,"x_min":0,"x_max":0,"o":"b 1276 -87 1114 21 1149 -40 b 1275 -212 1288 -128 1297 -154 b 1233 -633 1265 -342 1242 -514 b NaN NaN 1231 NaN NaN NaN b NaN NaN NaN NaN NaN NaN b NaN NaN NaN NaN NaN NaN b NaN NaN NaN NaN NaN NaN b NaN NaN NaN NaN NaN NaN b NaN NaN NaN NaN NaN NaN "},"―":{"ha":0,"x_min":0,"x_max":0,"o":"l 0 1389 l 69 1389 l 69 0 l 0 0 "},"／":{"ha":0,"x_min":0,"x_max":0,"o":"m 90 -92 l 1349 1167 l 1300 1215 l 42 -43 z "},"＼":{"ha":0,"x_min":0,"x_max":0,"o":"m 1300 -92 l 1349 -43 l 90 1215 l 42 1167 z "},"〜":{"ha":0,"x_min":0,"x_max":0,"o":"m 694 546 b 1151 619 951 433 1075 549 l 1129 651 z "},"～":{"ha":0,"x_min":0,"x_max":0,"o":"m 694 546 b 1151 619 951 433 1075 549 l 1129 651 z "},"‖":{"ha":19,"x_min":0,"x_max":0,"o":"m 69 1271 l 69 1479 l 139 1479 l 139 1589 l -1250 1589 l -1250 1658 l 139 1658 z m 249 1658 l 249 269 l 318 269 l 318 1658 z "},"｜":{"ha":0,"x_min":0,"x_max":0,"o":"m 729 -118 l 729 1271 l 660 1271 l 660 -118 z "},"…":{"ha":528,"x_min":0,"x_max":0,"o":"b 329 68 286 0 329 33 b 406 78 329 111 371 78 b 319 8 363 78 319 43 b 242 44 319 -33 276 1 m 542 44 z m 843 44 b 765 -32 800 44 765 10 b 843 -110 765 -75 800 -110 z "},"（":{"ha":0,"x_min":0,"x_max":0,"o":""},"）":{"ha":0,"x_min":0,"x_max":0,"o":""},"〔":{"ha":0,"x_min":0,"x_max":0,"o":"m 1235 1132 l 982 1032 l 982 13 l 1235 -87 l 1250 -47 b 1051 54 1171 -17 1092 29 l 1051 990 b 1250 1092 1092 1015 1171 1061 z "},"〕":{"ha":0,"x_min":0,"x_max":0,"o":"m 156 -87 l 408 13 l 408 1032 l 156 1132 l 139 1092 b 339 990 219 1061 299 1015 l 339 54 b 139 -47 299 29 219 -17 z "},"［":{"ha":0,"x_min":0,"x_max":0,"o":""},"］":{"ha":0,"x_min":0,"x_max":0,"o":""},"｛":{"ha":0,"x_min":0,"x_max":0,"o":"m 1043 504 b 1117 369 1076 504 1117 494 b 1104 122 1117 244 1104 225 b 1243 -87 1104 -4 1171 -76 l 1250 -50 b 1174 115 1183 -26 1174 42 b 1186 369 1174 189 1186 269 b 1125 522 1186 439 1171 494 b 1186 675 1171 550 1186 606 b 1174 929 1186 775 1174 856 b 1250 1094 1174 1003 1183 1071 l 1243 1132 b 1104 922 1171 1122 1104 1049 b 1117 675 1104 819 1117 800 b 1043 542 1117 550 1076 542 z "},"｝":{"ha":0,"x_min":0,"x_max":0,"o":""},"〈":{"ha":0,"x_min":0,"x_max":0,"o":"m 921 522 l 1199 -87 l 1250 -64 l 996 522 l 1250 1108 l 1199 1132 z "},"〈":{"ha":0,"x_min":0,"x_max":0,"o":"m 921 522 l 1199 -87 l 1250 -64 l 996 522 l 1250 1108 l 1199 1132 z "},"〉":{"ha":0,"x_min":0,"x_max":0,"o":""},"〉":{"ha":0,"x_min":0,"x_max":0,"o":""},"《":{"ha":0,"x_min":0,"x_max":0,"o":"m 844 522 l 1099 1108 l 1047 1132 l 768 522 l 1047 -87 l 1099 -64 z m 1250 -64 l 996 522 l 1250 1108 l 1199 1132 l 921 522 l 1199 -87 z "},"》":{"ha":0,"x_min":0,"x_max":0,"o":"m 151 0 l 290 483 l 569 1093 l 290 1703 l 239 1679 l 493 1093 l 239 507 z "},"「":{"ha":0,"x_min":0,"x_max":0,"o":""},"」":{"ha":0,"x_min":0,"x_max":0,"o":""},"『":{"ha":0,"x_min":0,"x_max":0,"o":"m 1110 136 z m 114 1063 l 114 1849 l 254 1849 l 254 2058 l -96 2058 l -96 1988 l -236 1988 l -236 1201 l -307 1201 l -307 2058 z "},"』":{"ha":0,"x_min":0,"x_max":0,"o":"m 281 908 l 281 122 l 139 122 l 139 -87 l 490 -87 l 490 908 z m 208 -18 l 208 53 l 350 53 l 350 839 l 421 839 l 421 -18 z "},"【":{"ha":0,"x_min":0,"x_max":0,"o":"m 957 -87 l 1250 -87 b 1111 522 1160 39 1111 283 b 1250 1132 1111 761 1160 1006 l 957 1132 z "},"】":{"ha":0,"x_min":0,"x_max":0,"o":"m 433 1132 l 139 1132 b 279 522 231 1006 279 761 b 139 -87 279 283 231 39 l 433 -87 z "},"＋":{"ha":0,"x_min":0,"x_max":0,"o":""},"−":{"ha":0,"x_min":0,"x_max":0,"o":"l 0 213 l -69 213 l -69 1178 l 0 1178 "},"－":{"ha":0,"x_min":0,"x_max":0,"o":"l 0 213 l -69 213 l -69 1178 l 0 1178 "},"×":{"ha":0,"x_min":0,"x_max":0,"o":""},"÷":{"ha":0,"x_min":0,"x_max":0,"o":""},"＝":{"ha":0,"x_min":0,"x_max":0,"o":""},"＜":{"ha":0,"x_min":0,"x_max":0,"o":"m 417 524 l 935 25 l 974 67 l 514 524 l 974 979 l 935 1021 z "},"＞":{"ha":0,"x_min":0,"x_max":0,"o":"m 974 524 l 456 1021 l 417 979 l 875 524 l 417 67 l 456 25 z "},"￥":{"ha":0,"x_min":0,"x_max":0,"o":"m 408 1044 b 271 1049 356 1044 304 1046 b 247 1089 271 1083 283 1068 l 482 686 l 318 686 b NaN NaN 338 686 NaN NaN l NaN NaN l NaN NaN l NaN NaN l NaN NaN l NaN NaN b NaN NaN NaN NaN NaN NaN b NaN NaN NaN NaN NaN NaN b NaN NaN NaN NaN NaN NaN l NaN NaN l NaN NaN l NaN NaN l NaN NaN l NaN NaN b NaN NaN NaN NaN NaN NaN b NaN NaN NaN NaN NaN NaN l NaN NaN l NaN NaN b NaN NaN NaN NaN NaN NaN b NaN NaN NaN NaN NaN NaN b NaN NaN NaN NaN NaN NaN b NaN NaN NaN NaN NaN NaN b NaN NaN NaN NaN NaN NaN b NaN NaN NaN NaN NaN NaN l NaN NaN l NaN NaN b NaN NaN NaN NaN NaN NaN b NaN NaN NaN NaN NaN NaN b NaN NaN NaN NaN NaN NaN b NaN NaN NaN NaN NaN NaN z "},"＄":{"ha":368,"x_min":0,"x_max":0,"o":"m 325 104 l 357 92 "},"％":{"ha":0,"x_min":0,"x_max":0,"o":"m 1013 971 l 953 1006 l 376 32 l 438 -4 z m 393 501 b 614 721 515 501 614 600 z m 614 1092 b 765 940 697 1092 765 1024 b 614 790 765 857 697 790 b 463 940 531 790 463 857 b 614 1092 463 1024 531 1092 z m 1218 279 b 1438 500 1339 279 1438 378 b 1218 721 1438 622 1339 721 b 997 500 1096 721 997 622 b 1081 494 997 617 982 494 b 1104 NaN 982 494 1104 NaN z m 1104 NaN b 1254 NaN 1188 NaN 1254 NaN b 1104 NaN 1254 NaN 1188 NaN b 953 NaN 1021 NaN 953 NaN b 1104 NaN 953 NaN 1021 NaN z "},"＃":{"ha":0,"x_min":0,"x_max":0,"o":"l 638 0 l 638 -167 "},"＆":{"ha":0,"x_min":0,"x_max":0,"o":""},"＊":{"ha":0,"x_min":0,"x_max":0,"o":"b 1039 -104 990 -21 1026 -68 b 922 -282 1018 -168 981 -189 b NaN NaN 844 NaN NaN NaN b NaN NaN NaN NaN NaN NaN b NaN NaN NaN NaN NaN NaN b NaN NaN NaN NaN NaN NaN b NaN NaN NaN NaN NaN NaN b NaN NaN NaN NaN NaN NaN b NaN NaN NaN NaN NaN NaN b NaN NaN NaN NaN NaN NaN b NaN NaN NaN NaN NaN NaN b NaN NaN NaN NaN NaN NaN b NaN NaN NaN NaN NaN NaN b NaN NaN NaN NaN NaN NaN b NaN NaN NaN NaN NaN NaN b NaN NaN NaN NaN NaN NaN b NaN NaN NaN NaN NaN NaN b NaN NaN NaN NaN NaN NaN b NaN NaN NaN NaN NaN NaN b NaN NaN NaN NaN NaN NaN b NaN NaN NaN NaN NaN NaN b NaN NaN NaN NaN NaN NaN b NaN NaN NaN NaN NaN NaN b NaN NaN NaN NaN NaN NaN b NaN NaN NaN NaN NaN NaN "},"＠":{"ha":0,"x_min":0,"x_max":0,"o":"m 694 -4 b 1156 224 913 -4 1067 97 b NaN NaN 1156 472 981 NaN b NaN NaN NaN NaN NaN NaN b NaN NaN NaN NaN NaN NaN z m NaN NaN b NaN NaN NaN NaN NaN NaN b NaN NaN NaN NaN NaN NaN b NaN NaN NaN NaN NaN NaN z "},"☆":{"ha":0,"x_min":0,"x_max":0,"o":"m 1067 -35 l 1438 233 z m 1343 600 l 1444 915 l 1542 600 l 1829 600 l 1594 431 l 1683 143 l 1438 318 l 1197 144 l 1288 426 l 1046 600 z "},"★":{"ha":0,"x_min":0,"x_max":0,"o":"l 694 372 l 426 NaN "},"○":{"ha":0,"x_min":0,"x_max":0,"o":"m 247 522 b 694 75 247 275 447 75 b 1351 75 1142 75 1351 244 b 974 -303 1351 -133 1143 -303 b 556 -303 764 -303 556 -472 b 933 283 556 -94 764 75 z "},"●":{"ha":0,"x_min":0,"x_max":0,"o":"m 694 75 b 647 122 447 75 647 -125 z "},"◇":{"ha":0,"x_min":0,"x_max":0,"o":"m 694 1035 l 182 522 l 694 10 l 1208 522 z m 1110 522 l 694 107 l 281 522 l 694 938 z "},"◆":{"ha":0,"x_min":0,"x_max":0,"o":"m 694 10 l 1208 522 l 694 1035 l 182 522 z "},"□":{"ha":0,"x_min":0,"x_max":0,"o":"m 278 940 l 278 104 l 1113 104 l 1113 940 z m 347 174 l 347 871 l 1043 871 l 1043 174 z "},"■":{"ha":0,"x_min":0,"x_max":0,"o":"m 1113 104 l 1113 940 l 278 940 l 278 104 z "},"△":{"ha":94,"x_min":0,"x_max":0,"o":"m 69 94 l -414 950 l -896 94 z m -414 808 l -50 164 l -776 164 z "},"▲":{"ha":94,"x_min":0,"x_max":0,"o":"m 856 94 l 372 950 l -110 94 z "},"▽":{"ha":853,"x_min":0,"x_max":0,"o":"m 69 922 l -896 922 l -414 67 z m -776 853 l -50 853 l -414 210 z "},"▼":{"ha":67,"x_min":0,"x_max":0,"o":"m 856 922 l -110 922 l 372 67 z "},"※":{"ha":0,"x_min":0,"x_max":0,"o":"b 99 750 0 793 54 750 b -11 663 43 750 -11 707 b -110 651 -11 608 -65 651 b 54 739 -56 651 0 694 m -93 372 l -387 79 l -337 29 l -44 324 l 250 29 l 300 79 l 6 372 l 300 667 l 250 717 l -44 422 l -337 717 l -387 667 z m -410 275 z m 322 471 z "},"〒":{"ha":0,"x_min":0,"x_max":0,"o":"m 1094 1001 l 296 1001 l 296 906 l 1094 906 z m 647 599 "},"→":{"ha":0,"x_min":0,"x_max":0,"o":"l 1051 76 l 964 NaN b 958 NaN 985 NaN 988 NaN l 76 NaN l 76 NaN "},"←":{"ha":0,"x_min":0,"x_max":0,"o":"l 410 0 l 410 882 l 479 882 l 479 0 b 474 44 450 0 451 21 "},"↑":{"ha":0,"x_min":0,"x_max":0,"o":"b 28 750 0 729 29 750 b 32 NaN 53 750 32 NaN l 32 NaN l -46 NaN l -46 NaN l 24 NaN "},"↓":{"ha":0,"x_min":0,"x_max":0,"o":"m 775 160 b 729 167 750 139 729 138 l 1611 97 l 729 NaN z "},"‰":{"ha":0,"x_min":0,"x_max":0,"o":"m 768 1006 l 192 32 l 251 -4 l 828 971 b 1049 542 828 640 950 542 b 806 344 926 542 806 443 b 586 321 806 222 685 321 b 950 518 707 321 829 419 z m 579 518 b 729 669 579 601 646 669 b 881 518 813 669 881 601 b 729 368 881 435 813 368 b 579 518 646 368 579 435 z m 1565 299 b 1381 196 1488 299 1419 257 b 1194 299 1342 257 1272 299 b 974 78 1072 299 974 200 b 1194 -143 974 -44 1072 -143 b 1381 -40 1272 -143 1342 -101 b 1565 -143 1419 -101 1488 -143 b 1786 78 1688 -143 1786 -44 b 1565 299 1786 200 1688 299 z m 1194 -74 b 1043 78 1111 -74 1043 -6 b 1194 229 1043 161 1111 229 b 1346 78 1278 229 1346 161 b 1194 -74 1346 -6 1278 -74 z m 1565 -74 b 1415 78 1482 -74 1415 -6 b 1565 229 1415 161 1482 229 b 1717 78 1650 229 1717 161 b 1565 -74 1717 -6 1650 -74 z "},"０":{"ha":0,"x_min":0,"x_max":0,"o":""},"１":{"ha":0,"x_min":0,"x_max":0,"o":""},"２":{"ha":-8,"x_min":0,"x_max":0,"o":""},"３":{"ha":0,"x_min":0,"x_max":0,"o":""},"４":{"ha":0,"x_min":0,"x_max":0,"o":""},"５":{"ha":0,"x_min":0,"x_max":0,"o":""},"６":{"ha":0,"x_min":0,"x_max":0,"o":""},"７":{"ha":22,"x_min":0,"x_max":0,"o":""},"８":{"ha":0,"x_min":0,"x_max":0,"o":""},"９":{"ha":0,"x_min":0,"x_max":0,"o":""},"Ａ":{"ha":0,"x_min":0,"x_max":0,"o":"m 251 0 "},"Ｂ":{"ha":385,"x_min":0,"x_max":0,"o":"m 332 67 b 299 33 314 67 299 51 b 436 38 331 35 383 38 b 608 31 524 38 608 31 b 771 263 724 74 771 153 b 718 182 771 207 746 182 z m 946 1093 "},"Ｃ":{"ha":0,"x_min":0,"x_max":0,"o":""},"Ｄ":{"ha":0,"x_min":0,"x_max":0,"o":""},"Ｅ":{"ha":0,"x_min":0,"x_max":0,"o":"l 0 338 l -1 338 l -1 282 l -17 282 l -17 632 l 218 632 b 308 569 289 632 308 607 b 342 536 308 551 322 536 b 374 572 360 536 375 553 b NaN 594 374 571 375 594 b NaN 599 NaN 614 NaN 599 b NaN 597 NaN 599 NaN 613 b NaN 585 NaN 617 NaN 640 l NaN -165 b NaN -246 NaN -221 NaN -246 "},"Ｆ":{"ha":0,"x_min":0,"x_max":0,"o":""},"Ｇ":{"ha":0,"x_min":0,"x_max":0,"o":"b 736 NaN 743 0 736 NaN b 1213 NaN 736 NaN 1013 NaN "},"Ｈ":{"ha":0,"x_min":0,"x_max":0,"o":""},"Ｉ":{"ha":0,"x_min":0,"x_max":0,"o":""},"Ｊ":{"ha":0,"x_min":0,"x_max":0,"o":""},"Ｋ":{"ha":0,"x_min":0,"x_max":0,"o":""},"Ｌ":{"ha":0,"x_min":0,"x_max":0,"o":"m 1056 300 b NaN 283 1056 299 1000 283 "},"Ｍ":{"ha":0,"x_min":0,"x_max":0,"o":"m 136 67 b 75 33 136 53 151 33 b 72 NaN 47 33 72 89 l 72 NaN l 375 NaN b 419 NaN 383 NaN 411 NaN l 785 NaN l 785 NaN b 733 NaN 785 NaN 761 NaN b 700 NaN 715 NaN 700 NaN b 735 NaN 700 NaN 717 NaN b 682 NaN 707 NaN 682 NaN b 1379 NaN 1435 NaN 1432 NaN b NaN NaN 1376 NaN 1324 NaN b NaN NaN NaN NaN NaN NaN l NaN NaN l NaN NaN b NaN NaN NaN NaN NaN NaN z "},"Ｎ":{"ha":0,"x_min":0,"x_max":0,"o":""},"Ｏ":{"ha":0,"x_min":0,"x_max":0,"o":""},"Ｐ":{"ha":0,"x_min":0,"x_max":0,"o":""},"Ｑ":{"ha":0,"x_min":0,"x_max":0,"o":""},"Ｒ":{"ha":376,"x_min":0,"x_max":0,"o":"m 1100 104 b 1206 -1 1168 61 1160 38 b NaN NaN 1300 -43 1401 NaN l NaN NaN b NaN NaN NaN NaN NaN NaN b NaN NaN NaN NaN NaN NaN b NaN NaN NaN NaN NaN NaN b NaN NaN NaN NaN NaN NaN b NaN NaN NaN NaN NaN NaN b NaN NaN NaN NaN NaN NaN b NaN NaN NaN NaN NaN NaN b NaN NaN NaN NaN NaN NaN l NaN NaN l NaN NaN l NaN NaN l NaN NaN b NaN NaN NaN NaN NaN NaN b NaN NaN NaN NaN NaN NaN l NaN NaN l NaN NaN b NaN NaN NaN NaN NaN NaN b NaN NaN NaN NaN NaN NaN "},"Ｓ":{"ha":0,"x_min":0,"x_max":0,"o":""},"Ｔ":{"ha":0,"x_min":0,"x_max":0,"o":""},"Ｕ":{"ha":0,"x_min":0,"x_max":0,"o":""},"Ｖ":{"ha":0,"x_min":0,"x_max":0,"o":""},"Ｗ":{"ha":0,"x_min":0,"x_max":0,"o":""},"Ｘ":{"ha":0,"x_min":0,"x_max":0,"o":""},"Ｙ":{"ha":0,"x_min":0,"x_max":0,"o":""},"Ｚ":{"ha":0,"x_min":0,"x_max":0,"o":""},"ａ":{"ha":0,"x_min":0,"x_max":0,"o":""},"ｂ":{"ha":0,"x_min":0,"x_max":0,"o":""},"ｃ":{"ha":0,"x_min":0,"x_max":0,"o":""},"ｄ":{"ha":0,"x_min":0,"x_max":0,"o":""},"ｅ":{"ha":0,"x_min":0,"x_max":0,"o":""},"ｆ":{"ha":0,"x_min":0,"x_max":0,"o":"m 0 850 b 100 750 0 794 46 750 b 189 806 139 750 172 772 b -18 1090 251 915 161 1090 b -300 721 -200 1090 -300 946 l -300 707 l -372 707 l -300 707 l -300 217 l -329 217 l -329 707 l -189 707 l -189 567 l -175 567 b -68 867 -175 768 -165 867 b -15 771 6 867 25 806 b -50 696 -36 751 -50 725 z "},"ｇ":{"ha":0,"x_min":0,"x_max":0,"o":""},"ｈ":{"ha":0,"x_min":0,"x_max":0,"o":""},"ｉ":{"ha":0,"x_min":0,"x_max":0,"o":"m 807 960 "},"ｊ":{"ha":0,"x_min":0,"x_max":0,"o":""},"ｋ":{"ha":0,"x_min":0,"x_max":0,"o":"m 1122 67 "},"ｌ":{"ha":0,"x_min":0,"x_max":0,"o":""},"ｍ":{"ha":0,"x_min":0,"x_max":0,"o":"m 254 688 b 221 654 254 669 239 654 b 217 658 201 654 217 639 b 247 656 217 631 192 656 l 247 979 b 372 1160 247 1085 294 1160 b 468 979 438 1160 468 1099 l 468 656 l 468 600 l 443 600 l 443 924 b 572 1104 443 1032 496 1104 b 679 924 638 1104 679 1043 l 679 600 l 1003 600 b 736 850 1003 786 878 850 b 556 743 663 850 596 813 b 336 850 513 815 433 850 b 204 797 286 850 240 831 l 207 804 z "},"ｎ":{"ha":0,"x_min":0,"x_max":0,"o":"m 324 621 b 375 568 349 621 375 613 l 375 147 b 324 67 375 92 351 67 b 290 33 306 67 290 51 b 325 -1 290 14 307 -1 b 272 79 297 -1 272 24 l 272 403 b 435 583 272 508 358 583 b 560 403 501 583 560 538 l 560 79 l 883 79 b 599 329 883 250 767 329 b 424 251 539 329 472 300 b 432 283 425 265 428 274 b 331 285 386 276 364 282 z "},"ｏ":{"ha":0,"x_min":0,"x_max":0,"o":""},"ｐ":{"ha":0,"x_min":0,"x_max":0,"o":"m -360 721 b -551 617 -417 721 -494 690 b -385 633 -417 618 -385 622 b -369 650 -385 639 -369 642 b -360 654 -369 650 -360 646 b -375 621 -360 656 -375 640 b NaN NaN -375 576 NaN NaN l NaN NaN l NaN NaN l NaN NaN b NaN NaN NaN NaN NaN NaN b NaN NaN NaN NaN NaN NaN b NaN NaN NaN NaN NaN NaN z m NaN NaN b NaN NaN NaN NaN NaN NaN b NaN NaN NaN NaN NaN NaN b NaN NaN NaN NaN NaN NaN b NaN NaN NaN NaN NaN NaN z "},"ｑ":{"ha":0,"x_min":0,"x_max":0,"o":"m -360 -293 b -412 -212 -389 -293 -412 -268 l -412 424 b -290 447 -381 425 -336 428 b NaN NaN -304 464 -324 465 b NaN NaN NaN NaN NaN NaN b NaN NaN NaN NaN NaN NaN b NaN NaN NaN NaN NaN NaN b NaN NaN NaN NaN NaN NaN b NaN NaN NaN NaN NaN NaN b NaN NaN NaN NaN NaN NaN l NaN NaN z m NaN NaN b NaN NaN NaN NaN NaN NaN b NaN NaN NaN NaN NaN NaN b NaN NaN NaN NaN NaN NaN b NaN NaN NaN NaN NaN NaN z "},"ｒ":{"ha":0,"x_min":0,"x_max":0,"o":""},"ｓ":{"ha":0,"x_min":0,"x_max":0,"o":""},"ｔ":{"ha":0,"x_min":0,"x_max":0,"o":""},"ｕ":{"ha":0,"x_min":0,"x_max":0,"o":"b -33 33 0 18 -14 33 "},"ｖ":{"ha":0,"x_min":0,"x_max":0,"o":"m 1104 721 b 1067 744 1104 789 1129 772 l 913 392 l 754 743 b 761 824 728 803 732 824 b 744 808 761 843 744 828 b 779 774 744 789 760 774 b 858 693 821 774 832 754 "},"ｗ":{"ha":0,"x_min":0,"x_max":0,"o":"m 1261 721 b 1317 771 1261 739 1331 771 b 1231 NaN 1251 771 1231 NaN l 1132 NaN "},"ｘ":{"ha":0,"x_min":0,"x_max":0,"o":"l 0 67 b 19 4 32 19 33 8 b -4 -28 6 0 -4 -12 b 31 -62 -4 -47 13 -62 "},"ｙ":{"ha":0,"x_min":0,"x_max":0,"o":""},"ｚ":{"ha":0,"x_min":0,"x_max":0,"o":""},"ぁ":{"ha":0,"x_min":0,"x_max":0,"o":""},"あ":{"ha":0,"x_min":0,"x_max":0,"o":"b 308 353 -4 18 25 221 b 397 651 392 325 467 394 b NaN NaN 332 1128 375 NaN b NaN NaN NaN NaN NaN NaN b NaN NaN NaN NaN NaN NaN b NaN NaN NaN NaN NaN NaN b NaN NaN NaN NaN NaN NaN b NaN NaN NaN NaN NaN NaN b NaN NaN NaN NaN NaN NaN b NaN NaN NaN NaN NaN NaN l NaN NaN l NaN NaN b NaN NaN NaN NaN NaN NaN b NaN NaN NaN NaN NaN NaN b NaN NaN NaN NaN NaN NaN b NaN NaN NaN NaN NaN NaN b NaN NaN NaN NaN NaN NaN l NaN NaN l NaN NaN l NaN NaN l NaN NaN l NaN NaN l NaN NaN l NaN NaN "},"ぃ":{"ha":0,"x_min":0,"x_max":0,"o":"m 375 182 b 601 110 432 69 557 13 b 606 183 618 147 617 167 b 671 440 579 218 596 342 b 535 264 671 440 592 397 "},"い":{"ha":0,"x_min":0,"x_max":0,"o":"m 339 251 b 610 164 408 117 557 49 b 615 253 631 210 629 235 b 693 561 583 296 603 443 b 531 350 693 561 599 510 "},"ぅ":{"ha":0,"x_min":0,"x_max":0,"o":"m -150 -378 b -53 -582 -200 -500 -139 -592 z "},"う":{"ha":0,"x_min":0,"x_max":0,"o":"m -179 -453 "},"ぇ":{"ha":0,"x_min":0,"x_max":0,"o":"m -249 -783 b 478 0 369 -8 401 -33 b 524 NaN 450 71 476 110 b 624 NaN 561 NaN 599 NaN "},"え":{"ha":0,"x_min":0,"x_max":0,"o":"m -297 -937 b -454 -1071 -386 -1037 -432 -1014 b -421 -1207 -472 -1119 -444 -1187 z "},"ぉ":{"ha":-4,"x_min":0,"x_max":0,"o":"b NaN NaN 464 36 NaN NaN b NaN NaN NaN NaN NaN NaN b NaN NaN NaN NaN NaN NaN b NaN NaN NaN NaN NaN NaN b NaN NaN NaN NaN NaN NaN b NaN NaN NaN NaN NaN NaN b NaN NaN NaN NaN NaN NaN b NaN NaN NaN NaN NaN NaN "},"お":{"ha":0,"x_min":0,"x_max":0,"o":"b NaN NaN 428 43 NaN NaN b NaN NaN NaN NaN NaN NaN b NaN NaN NaN NaN NaN NaN b NaN NaN NaN NaN NaN NaN b NaN NaN NaN NaN NaN NaN l NaN NaN l NaN NaN l NaN NaN l NaN NaN l NaN NaN l NaN NaN "},"か":{"ha":0,"x_min":0,"x_max":0,"o":"b 7 -76 51 100 7 -26 b -56 NaN 7 -71 -56 NaN m 592 NaN z "},"が":{"ha":0,"x_min":0,"x_max":0,"o":"m -122 -81 b -22 -210 -64 -110 -40 -149 "},"き":{"ha":0,"x_min":0,"x_max":0,"o":"b 447 1093 532 1003 513 1043 b NaN NaN 335 1040 NaN NaN b NaN NaN NaN NaN NaN NaN "},"ぎ":{"ha":28,"x_min":0,"x_max":0,"o":"m -728 -268 b NaN NaN -654 -143 -647 -115 b NaN NaN NaN NaN NaN NaN z m NaN NaN "},"く":{"ha":0,"x_min":0,"x_max":0,"o":"m 964 825 b 896 1004 992 860 996 931 z "},"ぐ":{"ha":0,"x_min":0,"x_max":0,"o":"m 746 883 b 978 750 864 744 929 719 b 910 929 1006 785 1010 856 z m 1278 558 "},"け":{"ha":0,"x_min":0,"x_max":0,"o":"b 1099 -82 1133 0 1099 -17 b NaN NaN 1099 -96 1047 NaN l NaN NaN b NaN NaN NaN NaN NaN NaN m NaN NaN b NaN NaN NaN NaN NaN NaN b NaN NaN NaN NaN NaN NaN b NaN NaN NaN NaN NaN NaN b NaN NaN NaN NaN NaN NaN z "},"げ":{"ha":31,"x_min":0,"x_max":0,"o":"m -40 -256 b 758 -215 -40 -285 663 -215 b 913 -71 983 -215 913 -150 b 2026 1117 913 -51 2068 1117 b 2058 1279 2053 1117 2058 1168 b 1972 1186 2058 1160 2032 1186 b 2033 1135 2067 1186 2033 1151 b NaN 1018 2033 1069 2019 1018 l NaN 1131 b NaN NaN NaN 1131 NaN NaN z m NaN NaN b NaN NaN NaN NaN NaN NaN b NaN NaN NaN NaN NaN NaN b NaN NaN NaN NaN NaN NaN b NaN NaN NaN NaN NaN NaN b NaN NaN NaN NaN NaN NaN z "},"こ":{"ha":0,"x_min":0,"x_max":0,"o":"b 615 -307 -354 -221 188 -554 "},"ご":{"ha":0,"x_min":0,"x_max":0,"o":"m 111 -175 z m 553 -442 b 1678 175 1593 681 1603 706 b 1321 40 1310 153 1335 83 b NaN NaN 1299 NaN NaN NaN b NaN NaN NaN NaN NaN NaN b NaN NaN NaN NaN NaN NaN b NaN NaN NaN NaN NaN NaN z "},"さ":{"ha":0,"x_min":0,"x_max":0,"o":"l 179 13 b 247 47 208 14 250 21 b 146 163 246 75 181 165 b 28 71 108 160 97 76 l -18 68 l -42 163 b -50 272 -61 235 -37 246 "},"ざ":{"ha":28,"x_min":0,"x_max":0,"o":"l 7 29 b 43 NaN 8 69 17 68 b 7 NaN 126 NaN 125 NaN b NaN NaN 10 NaN NaN NaN b NaN NaN NaN NaN NaN NaN b NaN NaN NaN NaN NaN NaN b NaN NaN NaN NaN NaN NaN b NaN NaN NaN NaN NaN NaN "},"し":{"ha":-4,"x_min":0,"x_max":0,"o":"m 619 6 b 796 -808 619 -232 426 -733 z "},"じ":{"ha":-4,"x_min":0,"x_max":0,"o":"m 619 6 "},"す":{"ha":0,"x_min":0,"x_max":0,"o":"b NaN NaN 353 0 1115 NaN "},"ず":{"ha":0,"x_min":0,"x_max":0,"o":"b -224 -222 -37 -83 -107 -165 "},"せ":{"ha":21,"x_min":0,"x_max":0,"o":"m 239 538 b 383 651 357 554 360 557 b NaN NaN 396 NaN NaN NaN l NaN NaN l NaN NaN b NaN NaN NaN NaN NaN NaN b NaN NaN NaN NaN NaN NaN l NaN NaN b NaN NaN NaN NaN NaN NaN z "},"ぜ":{"ha":21,"x_min":0,"x_max":0,"o":"m -207 -19 z m -647 -537 b -758 -637 -686 -543 -690 -628 l -764 -637 l -764 -550 b -650 -511 -747 -547 -744 -524 z "},"そ":{"ha":28,"x_min":0,"x_max":0,"o":"m 307 413 b 556 -68 99 225 251 -106 b 631 100 621 -60 663 43 b 501 135 615 129 550 135 b 297 165 381 126 319 183 z "},"ぞ":{"ha":28,"x_min":0,"x_max":0,"o":"m 1083 1131 z m 961 1050 b 974 1172 946 1051 982 1121 b 1082 939 958 1160 1029 1057 b NaN NaN 1054 NaN NaN NaN z m NaN NaN b NaN NaN NaN NaN NaN NaN b NaN NaN NaN NaN NaN NaN b NaN NaN NaN NaN NaN NaN b NaN NaN NaN NaN NaN NaN b NaN NaN NaN NaN NaN NaN b NaN NaN NaN NaN NaN NaN b NaN NaN NaN NaN NaN NaN z "},"た":{"ha":0,"x_min":0,"x_max":0,"o":"m 274 758 b 396 781 296 758 294 781 l 324 463 b 251 271 294 332 244 332 b 301 150 228 271 269 150 z m 649 -101 b 1053 -408 311 -329 715 -631 z "},"だ":{"ha":0,"x_min":0,"x_max":0,"o":"m 1196 979 b 1282 735 1181 956 1247 847 b NaN NaN 1238 693 1264 699 z m NaN NaN b NaN NaN NaN NaN NaN NaN b NaN NaN NaN NaN NaN NaN l NaN NaN b NaN NaN NaN NaN NaN NaN b NaN NaN NaN NaN NaN NaN z m NaN NaN b NaN NaN NaN NaN NaN NaN z "},"ち":{"ha":-3,"x_min":0,"x_max":0,"o":"m 313 708 b 961 951 472 476 1035 613 b 790 965 878 944 833 969 b 675 NaN 789 1017 672 1049 z "},"ぢ":{"ha":0,"x_min":0,"x_max":0,"o":"m 1093 1104 z m 251 824 b 271 942 325 886 307 914 b 222 1088 214 963 239 1039 b 283 972 200 1086 251 969 b 932 1215 443 740 1006 876 b 1024 1044 1006 1132 999 1088 b NaN NaN 1019 NaN NaN NaN z m NaN NaN b NaN NaN NaN NaN NaN NaN b NaN NaN NaN NaN NaN NaN b NaN NaN NaN NaN NaN NaN b NaN NaN NaN NaN NaN NaN b NaN NaN NaN NaN NaN NaN z "},"っ":{"ha":0,"x_min":0,"x_max":0,"o":"b 704 333 332 493 451 326 b 1013 722 865 481 951 561 b 288 849 924 842 685 1164 b NaN NaN 181 825 NaN NaN "},"つ":{"ha":0,"x_min":0,"x_max":0,"o":"m 46 403 b -458 279 -74 246 -267 235 b 179 265 -315 81 -12 89 b 250 697 283 361 357 554 b -640 678 -36 1083 -512 706 b -694 725 -662 674 -682 700 b -700 610 -694 725 -736 725 b -531 489 -662 492 -565 461 z "},"づ":{"ha":0,"x_min":0,"x_max":0,"o":"b 1257 -85 1165 -25 1228 -44 b NaN NaN 1283 -81 NaN NaN m NaN NaN b NaN NaN NaN NaN NaN NaN b NaN NaN NaN NaN NaN NaN z m NaN NaN "},"て":{"ha":-4,"x_min":0,"x_max":0,"o":"m 1051 714 z "},"で":{"ha":-4,"x_min":0,"x_max":0,"o":"m 1186 1178 z m 1064 1097 z m 1194 756 b 1338 797 1271 758 1325 760 z "},"と":{"ha":0,"x_min":0,"x_max":0,"o":"m 615 946 z "},"ど":{"ha":-4,"x_min":0,"x_max":0,"o":"m -674 -961 z m -22 -210 b -39 -87 -67 -208 -31 -139 b -272 8 -53 -18 -154 35 b -172 -121 -212 -21 -190 -60 z "},"な":{"ha":-4,"x_min":0,"x_max":0,"o":"l -15 0 l -15 -6 b 21 76 0 47 21 50 b -106 193 24 121 19 189 "},"に":{"ha":0,"x_min":0,"x_max":0,"o":"b 143 214 24 133 67 167 b 161 224 160 217 161 219 b 289 294 163 288 185 340 b NaN NaN 336 NaN NaN NaN b NaN NaN NaN NaN NaN NaN b NaN NaN NaN NaN NaN NaN b NaN NaN NaN NaN NaN NaN b NaN NaN NaN NaN NaN NaN b NaN NaN NaN NaN NaN NaN b NaN NaN NaN NaN NaN NaN b NaN NaN NaN NaN NaN NaN m NaN NaN b NaN NaN NaN NaN NaN NaN b NaN NaN NaN NaN NaN NaN b NaN NaN NaN NaN NaN NaN b NaN NaN NaN NaN NaN NaN b NaN NaN NaN NaN NaN NaN b NaN NaN NaN NaN NaN NaN b NaN NaN NaN NaN NaN NaN b NaN NaN NaN NaN NaN NaN b NaN NaN NaN NaN NaN NaN b NaN NaN NaN NaN NaN NaN b NaN NaN NaN NaN NaN NaN z m NaN NaN "},"ぬ":{"ha":0,"x_min":0,"x_max":0,"o":"m 1151 281 b 1168 400 1160 317 1167 356 b 1001 751 1175 544 1114 678 b 836 575 968 772 821 614 b 901 492 844 553 883 553 l 918 442 b 988 -160 610 203 736 -187 b 1029 -143 1000 -153 1014 -147 z m 833 -314 b 819 -56 749 -333 717 -176 z m 1208 -192 b 1238 -111 1144 -181 1172 -112 b 1304 -125 1263 -111 1285 -117 b 1208 -192 1279 -175 1242 -197 z "},"ね":{"ha":-4,"x_min":0,"x_max":0,"o":"b -4 1260 -15 1181 -7 1218 b -282 1676 -8 1304 -33 1563 b NaN NaN -601 1506 NaN NaN b NaN NaN NaN NaN NaN NaN b NaN NaN NaN NaN NaN NaN l NaN NaN l NaN NaN b NaN NaN NaN NaN NaN NaN b NaN NaN NaN NaN NaN NaN b NaN NaN NaN NaN NaN NaN "},"の":{"ha":0,"x_min":0,"x_max":0,"o":""},"は":{"ha":124,"x_min":0,"x_max":0,"o":"m 738 -4 b 792 189 644 -4 792 88 b NaN NaN 792 335 794 NaN z m NaN NaN b NaN NaN NaN NaN NaN NaN b NaN NaN NaN NaN NaN NaN "},"ば":{"ha":124,"x_min":0,"x_max":0,"o":"m -39 -783 l -26 -674 b -78 -492 -14 -617 -61 -544 b NaN NaN -6 NaN NaN NaN z m NaN NaN b NaN NaN NaN NaN NaN NaN b NaN NaN NaN NaN NaN NaN l NaN NaN "},"ぱ":{"ha":124,"x_min":0,"x_max":0,"o":"m 1210 1208 b 1542 1397 1472 1208 1542 1297 b 1707 1461 1542 1401 1607 1461 b 2014 1471 1860 1461 2014 1307 b 2286 1383 2014 1317 2188 1383 b 2515 1219 2415 1383 2515 1293 b NaN NaN 2515 1146 2424 NaN b NaN NaN NaN NaN NaN NaN b NaN NaN NaN NaN NaN NaN z m NaN NaN b NaN NaN NaN NaN NaN NaN b NaN NaN NaN NaN NaN NaN b NaN NaN NaN NaN NaN NaN b NaN NaN NaN NaN NaN NaN b NaN NaN NaN NaN NaN NaN z m NaN NaN l NaN NaN l NaN NaN l NaN NaN b NaN NaN NaN NaN NaN NaN b NaN NaN NaN NaN NaN NaN z m NaN NaN b NaN NaN NaN NaN NaN NaN b NaN NaN NaN NaN NaN NaN b NaN NaN NaN NaN NaN NaN b NaN NaN NaN NaN NaN NaN b NaN NaN NaN NaN NaN NaN b NaN NaN NaN NaN NaN NaN b NaN NaN NaN NaN NaN NaN b NaN NaN NaN NaN NaN NaN b NaN NaN NaN NaN NaN NaN "},"ひ":{"ha":0,"x_min":0,"x_max":0,"o":"m 938 828 z "},"び":{"ha":0,"x_min":0,"x_max":0,"o":"m 1111 1039 b 1039 1190 1172 1088 1149 1154 b NaN NaN 928 1144 NaN NaN z m NaN NaN z "},"ぴ":{"ha":0,"x_min":0,"x_max":0,"o":"b 1939 -165 1197 0 1939 -92 b 1922 -329 1939 -239 1849 -329 b 1940 NaN 1849 -329 1940 NaN m 1133 NaN z m 1940 NaN b 2004 NaN 1975 NaN 2004 NaN b 1940 NaN 2004 NaN 1975 NaN b 1875 NaN 1904 NaN 1875 NaN b 1940 NaN 1875 NaN 1904 NaN z "},"ふ":{"ha":18,"x_min":0,"x_max":0,"o":"b 85 263 35 115 13 233 b NaN NaN 231 NaN NaN NaN b NaN NaN NaN NaN NaN NaN b NaN NaN NaN NaN NaN NaN "},"ぶ":{"ha":18,"x_min":0,"x_max":0,"o":"b 35 263 -15 115 -37 233 b NaN NaN 181 NaN NaN NaN b NaN NaN NaN NaN NaN NaN l NaN NaN b NaN NaN NaN NaN NaN NaN m NaN NaN b NaN NaN NaN NaN NaN NaN b NaN NaN NaN NaN NaN NaN "},"ぷ":{"ha":18,"x_min":0,"x_max":0,"o":"b 124 263 74 115 51 233 b NaN NaN 269 NaN NaN NaN b NaN NaN NaN NaN NaN NaN l NaN NaN b NaN NaN NaN NaN NaN NaN b NaN NaN NaN NaN NaN NaN b NaN NaN NaN NaN NaN NaN b NaN NaN NaN NaN NaN NaN b NaN NaN NaN NaN NaN NaN b NaN NaN NaN NaN NaN NaN b NaN NaN NaN NaN NaN NaN "},"へ":{"ha":0,"x_min":0,"x_max":0,"o":""},"べ":{"ha":0,"x_min":0,"x_max":0,"o":"b 1160 60 1075 51 1085 76 b 1299 -18 1208 36 1271 18 b 1367 -158 1326 -75 1347 -117 b NaN NaN 1393 -154 NaN NaN m NaN NaN b NaN NaN NaN NaN NaN NaN b NaN NaN NaN NaN NaN NaN z m NaN NaN "},"ぺ":{"ha":0,"x_min":0,"x_max":0,"o":"m 322 942 b 158 778 231 942 158 869 b 322 614 158 688 231 614 b 486 778 413 614 486 688 b 322 942 486 869 413 942 z m 322 714 b 257 778 286 714 257 743 b 322 843 257 814 286 843 b 386 778 357 843 386 814 b 322 714 386 743 357 714 z m -275 342 "},"ほ":{"ha":0,"x_min":0,"x_max":0,"o":"m 1032 417 b 1065 346 1050 392 1058 368 b NaN NaN 1072 NaN NaN NaN b NaN NaN NaN NaN NaN NaN l NaN NaN b NaN NaN NaN NaN NaN NaN b NaN NaN NaN NaN NaN NaN l NaN NaN b NaN NaN NaN NaN NaN NaN b NaN NaN NaN NaN NaN NaN b NaN NaN NaN NaN NaN NaN b NaN NaN NaN NaN NaN NaN b NaN NaN NaN NaN NaN NaN z m NaN NaN b NaN NaN NaN NaN NaN NaN b NaN NaN NaN NaN NaN NaN l NaN NaN "},"ぼ":{"ha":0,"x_min":0,"x_max":0,"o":"b -29 -97 38 -33 36 -47 b NaN NaN -47 NaN NaN NaN b NaN NaN NaN NaN NaN NaN b NaN NaN NaN NaN NaN NaN b NaN NaN NaN NaN NaN NaN l NaN NaN b NaN NaN NaN NaN NaN NaN b NaN NaN NaN NaN NaN NaN b NaN NaN NaN NaN NaN NaN b NaN NaN NaN NaN NaN NaN m NaN NaN b NaN NaN NaN NaN NaN NaN b NaN NaN NaN NaN NaN NaN "},"ぽ":{"ha":-53,"x_min":0,"x_max":0,"o":"m 1253 1264 b 1388 1358 1353 1264 1388 1236 b 1625 1557 1388 1457 1496 1557 b 1542 1411 1724 1557 1633 1483 b 1671 1450 1542 1376 1579 1450 b 1669 NaN 1597 1450 1669 1360 b 1529 NaN 1635 NaN 1672 NaN b NaN NaN 1443 NaN 1374 NaN l NaN NaN b NaN NaN NaN NaN NaN NaN b NaN NaN NaN NaN NaN NaN l NaN NaN b NaN NaN NaN NaN NaN NaN b NaN NaN NaN NaN NaN NaN b NaN NaN NaN NaN NaN NaN b NaN NaN NaN NaN NaN NaN l NaN NaN l NaN NaN l NaN NaN l NaN NaN b NaN NaN NaN NaN NaN NaN b NaN NaN NaN NaN NaN NaN b NaN NaN NaN NaN NaN NaN b NaN NaN NaN NaN NaN NaN "},"ま":{"ha":0,"x_min":0,"x_max":0,"o":"b -169 28 -85 -1 -126 28 "},"み":{"ha":0,"x_min":0,"x_max":0,"o":"b 164 -361 -111 -121 -46 -361 "},"む":{"ha":6,"x_min":0,"x_max":0,"o":"m 224 471 b 604 792 410 728 549 840 b 890 763 674 738 825 856 b 554 1061 729 857 524 1032 b 579 1174 558 1086 568 1108 b 461 1572 433 1340 385 1579 b 547 NaN 506 1521 571 1399 b 418 NaN 429 NaN 406 NaN "},"め":{"ha":31,"x_min":0,"x_max":0,"o":"m 469 67 b 215 -379 493 -94 431 -262 b 669 19 396 -399 653 -312 b 506 382 676 163 617 301 "},"も":{"ha":-3,"x_min":0,"x_max":0,"o":"m 415 511 b 246 526 332 504 288 531 b 64 613 246 571 186 636 b 39 NaN 57 613 39 625 "},"ゃ":{"ha":0,"x_min":0,"x_max":0,"o":"m 822 699 "},"や":{"ha":0,"x_min":0,"x_max":0,"o":"m 229 663 b 224 547 229 663 188 663 b 394 425 261 429 358 399 b 490 510 426 451 458 481 b 546 149 511 419 531 301 b 639 -4 553 76 586 -3 b 761 86 669 -4 743 38 b 735 290 782 144 774 163 b 442 471 728 378 604 506 "},"ゅ":{"ha":0,"x_min":0,"x_max":0,"o":""},"ゆ":{"ha":18,"x_min":0,"x_max":0,"o":"m 275 781 b 278 672 290 747 278 672 b -1 726 215 874 68 903 b -100 679 -114 718 -100 679 b -42 646 -74 678 -50 667 "},"ょ":{"ha":-4,"x_min":0,"x_max":0,"o":"b 849 -119 935 -39 932 -51 b NaN NaN 846 -169 843 NaN l NaN NaN b NaN NaN NaN NaN NaN NaN b NaN NaN NaN NaN NaN NaN b NaN NaN NaN NaN NaN NaN b NaN NaN NaN NaN NaN NaN b NaN NaN NaN NaN NaN NaN b NaN NaN NaN NaN NaN NaN b NaN NaN NaN NaN NaN NaN b NaN NaN NaN NaN NaN NaN b NaN NaN NaN NaN NaN NaN "},"よ":{"ha":0,"x_min":0,"x_max":0,"o":"m 1060 742 b 1206 643 1088 740 1114 676 b NaN NaN 1204 NaN NaN NaN b NaN NaN NaN NaN NaN NaN b NaN NaN NaN NaN NaN NaN b NaN NaN NaN NaN NaN NaN b NaN NaN NaN NaN NaN NaN "},"ら":{"ha":0,"x_min":0,"x_max":0,"o":"m 397 113 b 1046 356 558 -119 1121 17 b 618 543 1008 533 824 606 b 636 592 625 558 631 575 "},"り":{"ha":25,"x_min":0,"x_max":0,"o":"m 464 -4 b 1026 458 763 -26 997 132 b 779 915 1058 824 915 932 b 556 653 649 900 593 775 b 557 692 556 665 556 678 "},"る":{"ha":0,"x_min":0,"x_max":0,"o":""},"れ":{"ha":25,"x_min":0,"x_max":0,"o":"b 1214 -133 1222 -154 1158 -189 b NaN NaN 1431 NaN NaN NaN b NaN NaN NaN NaN NaN NaN b NaN NaN NaN NaN NaN NaN b NaN NaN NaN NaN NaN NaN b NaN NaN NaN NaN NaN NaN "},"ろ":{"ha":0,"x_min":0,"x_max":0,"o":"b 32 822 -4 111 306 283 b 735 558 197 756 558 724 b 863 528 840 381 796 458 b NaN NaN 954 553 992 NaN "},"ゎ":{"ha":0,"x_min":0,"x_max":0,"o":"b NaN NaN 389 154 NaN NaN b NaN NaN NaN NaN NaN NaN b NaN NaN NaN NaN NaN NaN b NaN NaN NaN NaN NaN NaN l NaN NaN b NaN NaN NaN NaN NaN NaN b NaN NaN NaN NaN NaN NaN b NaN NaN NaN NaN NaN NaN l NaN NaN l NaN NaN b NaN NaN NaN NaN NaN NaN b NaN NaN NaN NaN NaN NaN b NaN NaN NaN NaN NaN NaN b NaN NaN NaN NaN NaN NaN b NaN NaN NaN NaN NaN NaN "},"わ":{"ha":10,"x_min":0,"x_max":0,"o":"b 63 131 197 -18 92 88 b 142 222 92 163 113 193 b 49 194 174 217 63 175 b NaN NaN -6 NaN NaN NaN l NaN NaN l NaN NaN l NaN NaN l NaN NaN l NaN NaN l NaN NaN b NaN NaN NaN NaN NaN NaN b NaN NaN NaN NaN NaN NaN b NaN NaN NaN NaN NaN NaN b NaN NaN NaN NaN NaN NaN b NaN NaN NaN NaN NaN NaN "},"ゐ":{"ha":0,"x_min":0,"x_max":0,"o":"b 550 190 243 76 368 54 b NaN NaN 565 415 NaN NaN "},"ゑ":{"ha":19,"x_min":0,"x_max":0,"o":"m 303 11 b 318 393 376 301 772 206 b 304 58 383 181 442 125 b NaN NaN 274 NaN NaN NaN b NaN NaN NaN NaN NaN NaN b NaN NaN NaN NaN NaN NaN b NaN NaN NaN NaN NaN NaN l NaN NaN b NaN NaN NaN NaN NaN NaN b NaN NaN NaN NaN NaN NaN b NaN NaN NaN NaN NaN NaN b NaN NaN NaN NaN NaN NaN b NaN NaN NaN NaN NaN NaN l NaN NaN b NaN NaN NaN NaN NaN NaN b NaN NaN NaN NaN NaN NaN b NaN NaN NaN NaN NaN NaN "},"を":{"ha":0,"x_min":0,"x_max":0,"o":"b NaN NaN -4 67 NaN NaN b NaN NaN NaN NaN NaN NaN b NaN NaN NaN NaN NaN NaN b NaN NaN NaN NaN NaN NaN b NaN NaN NaN NaN NaN NaN l NaN NaN b NaN NaN NaN NaN NaN NaN b NaN NaN NaN NaN NaN NaN b NaN NaN NaN NaN NaN NaN l NaN NaN b NaN NaN NaN NaN NaN NaN b NaN NaN NaN NaN NaN NaN b NaN NaN NaN NaN NaN NaN b NaN NaN NaN NaN NaN NaN l NaN NaN b NaN NaN NaN NaN NaN NaN b NaN NaN NaN NaN NaN NaN b NaN NaN NaN NaN NaN NaN b NaN NaN NaN NaN NaN NaN b NaN NaN NaN NaN NaN NaN "},"ん":{"ha":0,"x_min":0,"x_max":0,"o":"b NaN NaN 1135 332 NaN NaN b NaN NaN NaN NaN NaN NaN b NaN NaN NaN NaN NaN NaN b NaN NaN NaN NaN NaN NaN b NaN NaN NaN NaN NaN NaN b NaN NaN NaN NaN NaN NaN "},"ァ":{"ha":0,"x_min":0,"x_max":0,"o":"b 936 -83 935 -44 947 -58 b NaN NaN 906 -446 889 NaN l NaN NaN b NaN NaN NaN NaN NaN NaN b NaN NaN NaN NaN NaN NaN b NaN NaN NaN NaN NaN NaN b NaN NaN NaN NaN NaN NaN b NaN NaN NaN NaN NaN NaN b NaN NaN NaN NaN NaN NaN b NaN NaN NaN NaN NaN NaN b NaN NaN NaN NaN NaN NaN b NaN NaN NaN NaN NaN NaN b NaN NaN NaN NaN NaN NaN b NaN NaN NaN NaN NaN NaN b NaN NaN NaN NaN NaN NaN b NaN NaN NaN NaN NaN NaN b NaN NaN NaN NaN NaN NaN b NaN NaN NaN NaN NaN NaN "},"ア":{"ha":0,"x_min":0,"x_max":0,"o":""},"ィ":{"ha":0,"x_min":0,"x_max":0,"o":"m 647 454 b 654 404 651 440 654 424 l 654 243 b 631 74 654 132 614 122 b 731 -4 644 32 706 -4 b 811 122 774 -4 811 61 b 800 275 811 153 800 194 l 800 404 b 828 464 800 438 828 444 b 774 507 828 476 804 493 b 932 632 829 538 883 579 b 1006 674 969 672 992 654 b 938 844 1028 704 1035 775 "},"イ":{"ha":0,"x_min":0,"x_max":0,"o":"m 644 544 b 653 485 649 526 653 507 l 653 292 b 624 89 653 158 604 146 b 611 272 624 125 611 176 l 611 426 b 643 497 611 467 643 474 b 579 549 643 514 615 532 b 769 700 646 586 710 636 b 857 749 814 747 840 725 b 776 953 883 785 892 871 "},"ゥ":{"ha":0,"x_min":0,"x_max":0,"o":"m 381 669 b 394 579 397 643 394 579 b 338 576 375 578 357 576 l 338 614 b 354 704 338 675 358 681 b 203 775 347 740 304 794 b 121 725 104 756 121 725 b 176 704 144 726 167 721 "},"ウ":{"ha":0,"x_min":0,"x_max":0,"o":"b -11 -204 0 -133 -31 -146 b 92 -275 6 -253 61 -275 b 178 -144 144 -275 178 -218 b 164 -24 178 -114 167 -92 b 408 93 181 83 318 93 b 343 -176 414 93 411 -176 b 232 -358 85 -176 -217 -358 b 360 22 226 -358 331 22 b 300 0 307 22 322 0 b NaN NaN 299 0 276 NaN l NaN NaN b NaN NaN NaN NaN NaN NaN b NaN NaN NaN NaN NaN NaN b NaN NaN NaN NaN NaN NaN l NaN NaN l NaN NaN b NaN NaN NaN NaN NaN NaN "},"ェ":{"ha":60,"x_min":0,"x_max":0,"o":"b 1006 -106 1018 -35 1026 -56 b NaN NaN 997 NaN NaN NaN b NaN NaN NaN NaN NaN NaN l NaN NaN b NaN NaN NaN NaN NaN NaN b NaN NaN NaN NaN NaN NaN b NaN NaN NaN NaN NaN NaN b NaN NaN NaN NaN NaN NaN b NaN NaN NaN NaN NaN NaN b NaN NaN NaN NaN NaN NaN b NaN NaN NaN NaN NaN NaN b NaN NaN NaN NaN NaN NaN "},"エ":{"ha":0,"x_min":0,"x_max":0,"o":"l 0 290 b 32 361 0 329 32 338 b -61 424 32 381 -11 406 b 31 425 -4 425 31 425 b 289 481 238 426 276 435 b 171 614 300 522 221 611 b 50 575 129 617 124 593 b -256 554 -71 542 -256 554 b -454 606 -382 564 -431 622 b -369 396 -487 582 -411 400 b -265 419 -346 394 -335 418 b -207 421 -246 419 -226 421 b -176 290 -201 396 -176 357 l -176 -12 b -358 -17 -242 -15 -304 -17 b -560 28 -479 -17 -536 46 b -468 -201 -592 4 -510 -199 "},"ォ":{"ha":0,"x_min":0,"x_max":0,"o":"m 1035 763 l 1035 790 b 1051 881 1035 851 1056 856 b 900 951 1044 917 1001 971 b 818 901 800 932 818 901 b 874 881 840 901 863 896 b 889 790 890 854 889 790 l 858 790 l 858 557 l 1092 557 l 1092 464 b 1006 528 1078 486 1053 508 b 892 524 897 569 892 524 b 933 471 921 515 940 490 l 933 236 b 742 190 933 176 865 165 l 736 164 b 865 71 804 147 861 124 b 913 36 867 51 878 36 b 1079 236 1011 36 1079 76 l 1079 650 l 1207 650 b 1278 682 1236 650 1278 654 b 1183 803 1278 708 1218 803 z "},"オ":{"ha":-4,"x_min":0,"x_max":0,"o":"l -8 -29 l -58 -29 l -58 36 l -181 36 l -181 13 l -160 13 l -160 -29 l -472 -29 l -472 283 l -592 283 b -694 360 -607 310 -637 338 b -831 356 -824 410 -831 356 "},"カ":{"ha":25,"x_min":0,"x_max":0,"o":"m 736 646 b 615 558 697 644 682 571 b 1160 1208 958 593 1099 885 z "},"ガ":{"ha":25,"x_min":0,"x_max":0,"o":""},"キ":{"ha":24,"x_min":0,"x_max":0,"o":"b NaN NaN 0 1106 NaN NaN b NaN NaN NaN NaN NaN NaN l NaN NaN "},"ギ":{"ha":24,"x_min":0,"x_max":0,"o":"m 1251 1100 b NaN NaN 1147 1076 NaN NaN l NaN NaN l NaN NaN b NaN NaN NaN NaN NaN NaN b NaN NaN NaN NaN NaN NaN b NaN NaN NaN NaN NaN NaN l NaN NaN "},"ク":{"ha":0,"x_min":0,"x_max":0,"o":""},"グ":{"ha":0,"x_min":0,"x_max":0,"o":"b -203 NaN -122 0 -203 -8 "},"ケ":{"ha":0,"x_min":0,"x_max":0,"o":"b 1394 551 1157 349 1125 501 b 1708 604 1654 567 1726 599 b NaN NaN 1738 NaN NaN NaN b NaN NaN NaN NaN NaN NaN l NaN NaN b NaN NaN NaN NaN NaN NaN "},"ゲ":{"ha":0,"x_min":0,"x_max":0,"o":"m -122 -81 b -22 -210 -62 -108 -40 -149 b -81 NaN -67 -197 -53 -240 z m -693 NaN b -142 NaN -344 NaN -192 NaN b -264 NaN -131 NaN -214 NaN b -382 NaN -306 NaN -311 NaN b -676 NaN -457 NaN -589 NaN b -665 NaN -672 NaN -669 NaN b -619 NaN -656 NaN -621 NaN b -800 NaN -617 NaN -657 NaN b -926 NaN -939 NaN -926 NaN b -858 NaN -890 NaN -858 NaN b -1069 NaN -857 NaN -903 NaN b -712 NaN -892 NaN -778 NaN b -583 NaN -664 NaN -621 NaN b -561 NaN -569 NaN -560 NaN b -932 NaN -581 NaN -696 NaN z "},"コ":{"ha":36,"x_min":0,"x_max":0,"o":""},"ゴ":{"ha":36,"x_min":0,"x_max":0,"o":""},"サ":{"ha":25,"x_min":0,"x_max":0,"o":"m 381 746 z "},"ザ":{"ha":25,"x_min":0,"x_max":0,"o":"m 1099 1157 b 1239 1013 1128 1157 1239 1039 b 1328 1132 1239 1071 1276 1142 l 1357 1076 l 1356 NaN b 1414 NaN 1385 NaN 1414 NaN b NaN NaN 1414 NaN 1413 NaN z "},"シ":{"ha":0,"x_min":0,"x_max":0,"o":""},"ジ":{"ha":0,"x_min":0,"x_max":0,"o":""},"ス":{"ha":0,"x_min":0,"x_max":0,"o":""},"ズ":{"ha":0,"x_min":0,"x_max":0,"o":"m -22 -211 b NaN NaN 1036 969 993 907 "},"セ":{"ha":0,"x_min":0,"x_max":0,"o":"m 301 294 b 800 -36 329 -1 496 -115 b NaN NaN 976 11 1011 93 b NaN NaN NaN NaN NaN NaN l NaN NaN "},"ゼ":{"ha":0,"x_min":0,"x_max":0,"o":"m 1206 967 z m 999 947 b 1051 858 1011 903 1024 858 b NaN NaN 1103 878 1042 NaN z m NaN NaN b NaN NaN NaN NaN NaN NaN b NaN NaN NaN NaN NaN NaN b NaN NaN NaN NaN NaN NaN l NaN NaN b NaN NaN NaN NaN NaN NaN "},"ソ":{"ha":0,"x_min":0,"x_max":0,"o":"b 1242 -196 1126 -3 1169 -72 b NaN NaN 1233 NaN NaN NaN b NaN NaN NaN NaN NaN NaN m NaN NaN b NaN NaN NaN NaN NaN NaN z "},"ゾ":{"ha":0,"x_min":0,"x_max":0,"o":"m 1375 1225 b 1131 1282 1351 1292 1242 1326 b 1249 1169 1193 1263 1221 1228 b 1383 NaN 1258 1194 1333 1178 z m 1219 NaN z m 399 NaN b 471 NaN 356 NaN 399 NaN b NaN NaN 463 NaN NaN NaN b NaN NaN NaN NaN NaN NaN z m NaN NaN b NaN NaN NaN NaN NaN NaN z "},"タ":{"ha":0,"x_min":0,"x_max":0,"o":"b 53 NaN 39 58 25 71 "},"ダ":{"ha":0,"x_min":0,"x_max":0,"o":"b -89 NaN -81 0 -89 NaN m -675 NaN b -410 NaN -562 NaN -475 NaN b -200 NaN -322 NaN -253 NaN b -447 NaN -286 NaN -376 NaN z "},"チ":{"ha":0,"x_min":0,"x_max":0,"o":"m 264 447 b 382 472 281 447 286 469 b NaN NaN 682 479 NaN NaN b NaN NaN NaN NaN NaN NaN z "},"ヂ":{"ha":0,"x_min":0,"x_max":0,"o":"m -24 -210 b 985 985 -39 -210 1029 985 b 1038 940 999 985 1011 940 b NaN NaN 1090 958 1029 NaN z m NaN NaN "},"ッ":{"ha":0,"x_min":0,"x_max":0,"o":"b -100 942 0 926 -100 933 b -100 NaN -100 907 -100 NaN "},"ツ":{"ha":0,"x_min":0,"x_max":0,"o":"m 974 928 b 1714 1615 1410 869 1615 1265 b 1760 1715 1733 1686 1757 1686 b 1579 1847 1763 1758 1703 1839 "},"ヅ":{"ha":0,"x_min":0,"x_max":0,"o":"b 1764 1550 1122 1213 1558 1154 b NaN NaN 1863 1900 NaN NaN "},"テ":{"ha":19,"x_min":0,"x_max":0,"o":"b 1306 NaN 425 0 1306 NaN b 1211 NaN 1306 NaN 1246 NaN m 1874 NaN b 1943 NaN 1903 NaN 1944 NaN b 1847 NaN 1943 NaN 1881 NaN z "},"デ":{"ha":0,"x_min":0,"x_max":0,"o":"b 883 601 -15 0 1101 1160 b 1006 492 883 586 911 526 m 1764 228 b 1885 150 1764 213 1792 150 b 1850 NaN 1851 150 1850 NaN b 1728 NaN 1811 NaN 1797 NaN l 1143 NaN b 974 NaN 1058 NaN 1015 NaN b 1026 NaN 950 NaN 993 NaN b 1144 NaN 1043 NaN 1049 NaN l 1433 NaN b 1450 NaN 1443 NaN 1450 NaN b 1078 NaN 1442 NaN 1274 NaN b 1092 NaN 1063 NaN 1092 NaN b NaN NaN 1092 NaN 1090 NaN z "},"ト":{"ha":0,"x_min":0,"x_max":0,"o":"m 708 972 b 1332 790 1222 964 1267 913 b NaN NaN 1308 NaN NaN NaN b NaN NaN NaN NaN NaN NaN b NaN NaN NaN NaN NaN NaN l NaN NaN b NaN NaN NaN NaN NaN NaN l NaN NaN l NaN NaN l NaN NaN l NaN NaN l NaN NaN l NaN NaN z "},"ド":{"ha":25,"x_min":0,"x_max":0,"o":"m 868 444 b 1047 306 946 422 996 378 "},"ナ":{"ha":0,"x_min":0,"x_max":0,"o":"b -122 -86 -39 0 -53 -85 l -200 -87 l -200 0 l 61 7 "},"ニ":{"ha":-128,"x_min":0,"x_max":0,"o":"m 99 658 b 356 665 236 664 356 665 b 613 719 561 667 600 675 b 496 854 625 763 544 850 b 375 814 453 857 446 835 b 110 794 274 781 110 794 z m 740 289 b 208 250 569 260 358 251 b 7 294 88 250 31 313 z "},"ヌ":{"ha":0,"x_min":0,"x_max":0,"o":""},"ネ":{"ha":0,"x_min":0,"x_max":0,"o":"b 178 414 203 135 157 282 b NaN NaN 238 NaN NaN NaN b NaN NaN NaN NaN NaN NaN l NaN NaN b NaN NaN NaN NaN NaN NaN l NaN NaN b NaN NaN NaN NaN NaN NaN b NaN NaN NaN NaN NaN NaN l NaN NaN l NaN NaN b NaN NaN NaN NaN NaN NaN b NaN NaN NaN NaN NaN NaN b NaN NaN NaN NaN NaN NaN b NaN NaN NaN NaN NaN NaN "},"ノ":{"ha":0,"x_min":0,"x_max":0,"o":"m 1043 785 b 1075 889 1051 857 1078 860 b 879 997 1074 933 1003 1004 b 775 950 758 989 775 950 b 838 917 801 947 828 938 b 842 807 854 883 847 861 b 313 4 818 615 715 235 b 1043 785 806 4 1003 474 z "},"ハ":{"ha":0,"x_min":0,"x_max":0,"o":""},"バ":{"ha":0,"x_min":0,"x_max":0,"o":"m 982 1029 z m 860 949 z m 1015 935 b 1135 824 1078 917 1106 881 b 988 779 1154 850 1231 661 b 600 835 885 815 689 826 b 467 953 536 843 472 881 b 618 1004 456 1024 544 1018 b 988 NaN 819 831 999 661 z "},"パ":{"ha":0,"x_min":0,"x_max":0,"o":"m 1232 896 z m 1068 831 b 1085 814 1158 831 1085 904 b 921 650 1085 724 1011 650 b 856 715 885 650 856 679 b 921 779 856 750 885 779 b 985 715 956 779 985 750 b 921 650 985 679 956 650 "},"ヒ":{"ha":0,"x_min":0,"x_max":0,"o":"b 586 -407 0 -365 206 -514 "},"ビ":{"ha":33,"x_min":0,"x_max":0,"o":"m -207 -19 b 1079 917 -79 -19 1124 917 b 1132 872 1092 917 1106 872 z m 479 429 b 550 518 479 482 481 518 b 592 358 540 518 592 153 b NaN 317 592 210 972 317 z "},"ピ":{"ha":0,"x_min":0,"x_max":0,"o":"m 1104 1156 b 997 1008 1178 1156 1088 1082 b 1161 740 997 904 1088 831 z m 1024 138 b 510 239 1024 33 658 239 b 997 NaN 890 239 997 NaN b NaN NaN 1071 NaN NaN NaN z "},"フ":{"ha":0,"x_min":0,"x_max":0,"o":"m 314 -4 b 1060 793 803 -4 999 442 z "},"ブ":{"ha":0,"x_min":0,"x_max":0,"o":""},"プ":{"ha":0,"x_min":0,"x_max":0,"o":""},"ヘ":{"ha":0,"x_min":0,"x_max":0,"o":"m 322 108 z "},"ベ":{"ha":0,"x_min":0,"x_max":0,"o":"m -307 110 b -207 -21 -249 81 -225 42 b -210 NaN -250 -8 -237 -53 z m 129 NaN z "},"ペ":{"ha":0,"x_min":0,"x_max":0,"o":"b 1621 -164 981 0 1621 -90 b 1604 -328 1621 -237 1531 -328 b 1621 NaN 1531 -328 1621 NaN m 1621 NaN b 1685 NaN 1657 NaN 1685 NaN b 1621 NaN 1685 NaN 1657 NaN b 1557 NaN 1585 NaN 1557 NaN b 1621 NaN 1557 NaN 1585 NaN z m 1751 NaN z "},"ホ":{"ha":-4,"x_min":0,"x_max":0,"o":"m 383 150 b 478 -31 368 143 413 92 b NaN NaN 454 NaN NaN NaN b NaN NaN NaN NaN NaN NaN "},"ボ":{"ha":-4,"x_min":0,"x_max":0,"o":"m 1146 1011 b 1349 1150 1264 1063 1272 1088 z m 1140 1131 b 1226 1144 1258 1131 1214 1144 b NaN NaN 1183 1144 1210 NaN z m NaN NaN b NaN NaN NaN NaN NaN NaN b NaN NaN NaN NaN NaN NaN b NaN NaN NaN NaN NaN NaN z m NaN NaN b NaN NaN NaN NaN NaN NaN b NaN NaN NaN NaN NaN NaN "},"ポ":{"ha":-4,"x_min":0,"x_max":0,"o":"m 1057 1239 b 893 1075 967 1239 893 1165 b NaN NaN 893 983 985 NaN b NaN NaN NaN NaN NaN NaN z m NaN NaN b NaN NaN NaN NaN NaN NaN b NaN NaN NaN NaN NaN NaN b NaN NaN NaN NaN NaN NaN b NaN NaN NaN NaN NaN NaN z m NaN NaN l NaN NaN l NaN NaN b NaN NaN NaN NaN NaN NaN b NaN NaN NaN NaN NaN NaN l NaN NaN "},"マ":{"ha":0,"x_min":0,"x_max":0,"o":""},"ミ":{"ha":0,"x_min":0,"x_max":0,"o":""},"ム":{"ha":0,"x_min":0,"x_max":0,"o":""},"メ":{"ha":0,"x_min":0,"x_max":0,"o":"m 275 4 b 842 322 544 4 726 144 b 876 286 854 311 865 299 b 996 207 921 239 963 190 b 1024 410 1063 239 1067 349 b 935 504 999 446 968 476 b 1006 785 972 601 994 699 b 1039 889 1015 857 1040 860 b 843 997 1036 933 967 1004 "},"モ":{"ha":0,"x_min":0,"x_max":0,"o":"b 697 21 0 358 558 21 b 861 NaN 588 21 861 88 b NaN NaN 1039 NaN 1074 NaN b NaN NaN NaN NaN NaN NaN l NaN NaN l NaN NaN "},"ャ":{"ha":0,"x_min":0,"x_max":0,"o":"b 939 -75 950 -46 951 -57 b NaN NaN 903 NaN NaN NaN b NaN NaN NaN NaN NaN NaN b NaN NaN NaN NaN NaN NaN b NaN NaN NaN NaN NaN NaN b NaN NaN NaN NaN NaN NaN l NaN NaN b NaN NaN NaN NaN NaN NaN b NaN NaN NaN NaN NaN NaN b NaN NaN NaN NaN NaN NaN b NaN NaN NaN NaN NaN NaN b NaN NaN NaN NaN NaN NaN l NaN NaN b NaN NaN NaN NaN NaN NaN b NaN NaN NaN NaN NaN NaN b NaN NaN NaN NaN NaN NaN b NaN NaN NaN NaN NaN NaN l NaN NaN b NaN NaN NaN NaN NaN NaN b NaN NaN NaN NaN NaN NaN b NaN NaN NaN NaN NaN NaN b NaN NaN NaN NaN NaN NaN b NaN NaN NaN NaN NaN NaN "},"ヤ":{"ha":0,"x_min":0,"x_max":0,"o":"b 8 -104 0 -28 8 -104 l 25 -208 b NaN NaN NaN NaN NaN NaN "},"ュ":{"ha":0,"x_min":0,"x_max":0,"o":""},"ユ":{"ha":0,"x_min":0,"x_max":0,"o":"m 128 329 b NaN NaN 90 310 86 NaN l NaN NaN l NaN NaN b NaN NaN NaN NaN NaN NaN b NaN NaN NaN NaN NaN NaN b NaN NaN NaN NaN NaN NaN b NaN NaN NaN NaN NaN NaN b NaN NaN NaN NaN NaN NaN l NaN NaN l NaN NaN b NaN NaN NaN NaN NaN NaN b NaN NaN NaN NaN NaN NaN z "},"ョ":{"ha":0,"x_min":0,"x_max":0,"o":""},"ヨ":{"ha":0,"x_min":0,"x_max":0,"o":"m 494 221 b 293 267 374 221 317 283 b 385 36 261 242 343 39 b 488 63 408 35 429 54 b 835 86 571 74 746 92 b 1097 90 969 81 1069 39 b 1010 283 1118 129 1058 271 b 996 286 1006 285 1000 286 l 1047 736 b 1089 826 1053 790 1085 786 b 958 968 1092 863 992 965 b 840 900 922 971 893 915 b 540 892 724 882 540 892 b 622 893 414 892 615 893 l 599 678 l 346 674 b 176 700 261 672 219 701 b 228 581 153 700 196 581 b 347 604 246 581 251 603 l 590 608 l 564 378 b 243 351 456 361 333 351 z "},"ラ":{"ha":0,"x_min":0,"x_max":0,"o":"l 360 996 l 794 999 b 865 1031 824 999 865 1003 b 743 944 828 1031 807 947 l 454 944 b 1200 1496 833 913 1131 1142 b 1276 1549 1208 1533 1264 1521 b 1099 1713 1297 1594 1206 1683 b 1000 1681 1046 1728 1028 1715 b 635 1638 854 1650 635 1638 b 411 1676 524 1629 432 1697 b 563 1442 385 1646 521 1435 "},"リ":{"ha":0,"x_min":0,"x_max":0,"o":"m 999 846 b 1181 1508 999 1278 1160 1508 b 619 889 819 1508 801 1201 b 1125 1739 1086 914 1125 1289 z m 558 1538 b 531 1331 558 1417 510 1383 b 547 1306 531 1288 547 1346 b 633 NaN 547 1340 633 NaN l 633 NaN z "},"ル":{"ha":0,"x_min":0,"x_max":0,"o":"b 896 -108 897 -32 896 -108 l 896 -517 b 857 -561 896 -551 883 -546 b 847 -569 854 -562 850 -565 b 986 -831 797 -637 922 -837 b 1082 -778 1010 -829 1036 -796 b 1444 -237 1365 -662 1472 -421 b 1071 -550 1385 -404 1217 -511 m 789 -389 b 822 -285 799 -315 824 -314 b 625 -176 819 -240 750 -168 b 521 -222 506 -183 521 -222 b 583 -256 547 -225 575 -235 b 588 -365 596 -283 593 -304 b 313 -924 567 -585 494 -785 b 789 -389 588 -881 743 -717 z "},"レ":{"ha":0,"x_min":0,"x_max":0,"o":"b 90 138 358 -50 290 74 b 131 233 96 161 99 186 b 503 824 143 586 243 819 b 415 222 819 681 542 433 b NaN NaN 390 NaN NaN NaN l NaN NaN l NaN NaN l NaN NaN l NaN NaN l NaN NaN l NaN NaN b NaN NaN NaN NaN NaN NaN b NaN NaN NaN NaN NaN NaN "},"ロ":{"ha":0,"x_min":0,"x_max":0,"o":"b 289 -131 150 4 186 -97 b 231 -261 292 -169 294 -203 b NaN NaN 221 NaN NaN NaN b NaN NaN NaN NaN NaN NaN b NaN NaN NaN NaN NaN NaN b NaN NaN NaN NaN NaN NaN b NaN NaN NaN NaN NaN NaN b NaN NaN NaN NaN NaN NaN b NaN NaN NaN NaN NaN NaN l NaN NaN b NaN NaN NaN NaN NaN NaN b NaN NaN NaN NaN NaN NaN b NaN NaN NaN NaN NaN NaN b NaN NaN NaN NaN NaN NaN b NaN NaN NaN NaN NaN NaN b NaN NaN NaN NaN NaN NaN b NaN NaN NaN NaN NaN NaN b NaN NaN NaN NaN NaN NaN b NaN NaN NaN NaN NaN NaN l NaN NaN b NaN NaN NaN NaN NaN NaN b NaN NaN NaN NaN NaN NaN m NaN NaN b NaN NaN NaN NaN NaN NaN b NaN NaN NaN NaN NaN NaN l NaN NaN b NaN NaN NaN NaN NaN NaN z "},"ヮ":{"ha":0,"x_min":0,"x_max":0,"o":"b -10 -169 0 -111 -26 -121 b 76 -229 4 -211 51 -229 b 149 -121 119 -229 149 -182 b 136 0 149 -92 136 -72 b 421 42 263 11 363 29 b -18 -662 418 -129 285 -486 b 604 3 390 -662 554 -290 b 668 47 610 36 657 24 b 519 185 686 86 608 160 "},"ワ":{"ha":0,"x_min":0,"x_max":0,"o":"m 339 -4 b 242 -37 288 10 269 -1 b -121 -75 135 -57 -28 -69 b -647 -918 -125 -279 -285 -706 z "},"ヰ":{"ha":25,"x_min":0,"x_max":0,"o":"m 781 283 b 628 254 765 281 640 235 b NaN NaN 571 NaN NaN NaN b NaN NaN NaN NaN NaN NaN b NaN NaN NaN NaN NaN NaN l NaN NaN b NaN NaN NaN NaN NaN NaN b NaN NaN NaN NaN NaN NaN b NaN NaN NaN NaN NaN NaN l NaN NaN l NaN NaN l NaN NaN b NaN NaN NaN NaN NaN NaN b NaN NaN NaN NaN NaN NaN b NaN NaN NaN NaN NaN NaN l NaN NaN z "},"ヱ":{"ha":72,"x_min":0,"x_max":0,"o":"l 0 199 b 28 257 0 229 19 242 "},"ヲ":{"ha":0,"x_min":0,"x_max":0,"o":"m 1185 518 b 1092 639 1185 544 1125 639 b 1001 564 1060 639 1043 585 z "},"ン":{"ha":0,"x_min":0,"x_max":0,"o":""},"ヴ":{"ha":0,"x_min":0,"x_max":0,"o":"m -122 -81 z m -110 -296 b -124 -396 -125 -349 -111 -367 b -162 -462 -161 -418 -162 -440 b NaN NaN -164 NaN NaN NaN l NaN NaN "},"ヵ":{"ha":0,"x_min":0,"x_max":0,"o":"m 742 539 b 875 564 806 549 856 560 l 876 551 b 842 239 886 454 864 297 b 671 231 818 182 764 186 l 658 208 b 731 99 718 179 740 150 b 765 53 726 81 732 63 b 982 197 860 25 938 44 b 1022 557 1006 282 1026 435 b 1046 638 1021 604 1047 604 b 922 740 1044 667 950 740 b 822 667 890 739 876 676 b 760 658 800 663 781 660 b 769 738 764 685 767 711 b 793 825 775 799 796 801 b 650 910 790 863 753 921 b 563 868 549 900 563 868 b 617 842 586 867 608 860 b 624 751 632 815 624 751 l 611 646 b 540 644 567 644 540 644 b 357 694 443 640 375 711 b 464 488 332 672 428 486 b 547 518 483 489 490 514 b 589 521 561 519 575 519 b 286 -4 542 307 453 117 b 742 539 574 25 690 268 z "},"ヶ":{"ha":25,"x_min":0,"x_max":0,"o":"m 979 721 b 881 685 944 722 940 703 b 635 658 818 665 708 660 b 644 707 639 674 642 690 b 683 782 653 761 682 757 b 532 886 685 819 651 882 b 426 844 417 890 426 844 b 483 810 457 847 483 829 b 307 285 483 653 446 433 b 604 547 454 278 550 390 l 713 551 b 732 525 724 544 732 536 "},"亜":{"ha":0,"x_min":0,"x_max":0,"o":"l 1161 0 l 1161 150 l 1006 150 l 1006 433 l 1006 703 b 1036 797 1006 758 1036 757 b 904 926 1036 833 935 926 b 792 843 869 926 854 843 l 765 843 l 765 997 l 978 997 l 978 407 l 1090 407 l 1090 415 l 936 415 l 936 349 l 936 301 l 975 301 l 975 168 l 1017 168 l 1017 -140 b 1017 -236 1017 -208 1001 -224 l 1017 -239 l 1021 -239 l 1021 -222 l 1018 -222 l 1018 -189 l 1099 -189 l 1099 -472 l 901 -472 l 1776 -472 b 1847 -442 1806 -472 1847 -468 b 1754 -319 1847 -414 1788 -319 m 1260 439 l 1279 439 l 1279 285 l 1224 285 z m 982 -50 l 1049 -50 l 1049 -315 z m 1210 -315 l 1210 -50 l 1282 -50 l 1282 -315 l 1282 -83 l 1547 -83 l 1547 -156 l 1813 -156 z m 1589 -774 l 1589 -490 l 1644 -490 l 1644 -774 z "},"唖":{"ha":0,"x_min":0,"x_max":0,"o":"l 493 0 l 493 -26 l 1132 -26 b 1203 4 1161 -26 1203 -22 b 1110 126 1203 32 1143 126 b 986 43 1071 126 1054 43 l 949 43 l 949 326 l 933 326 l 933 354 l 933 200 l 917 200 b 965 78 893 200 933 78 m 1338 1013 l 1356 1013 l 1356 858 l 1303 858 z m 768 376 b 569 431 718 415 589 454 l 569 414 l 546 414 l 546 457 l 36 457 b 36 363 36 390 21 374 b 78 356 42 358 57 356 l 78 404 l 150 404 l 150 479 l 194 479 l 149 479 l 149 1014 l -276 1014 l -276 968 l 125 968 l 125 1218 l 174 1218 l 174 953 l 119 953 l 119 1186 l 385 1186 l 385 1131 l 650 1131 z m 882 1131 l 882 1115 l 617 1115 l 617 1063 l 882 1063 z m 704 444 l 704 728 l 757 728 l 757 444 z "},"娃":{"ha":0,"x_min":0,"x_max":0,"o":"b 107 19 101 8 104 14 b NaN NaN 110 NaN NaN NaN l NaN NaN l NaN NaN l NaN NaN l NaN NaN l NaN NaN l NaN NaN l NaN NaN b NaN NaN NaN NaN NaN NaN b NaN NaN NaN NaN NaN NaN b NaN NaN NaN NaN NaN NaN l NaN NaN b NaN NaN NaN NaN NaN NaN b NaN NaN NaN NaN NaN NaN l NaN NaN l NaN NaN b NaN NaN NaN NaN NaN NaN l NaN NaN l NaN NaN l NaN NaN l NaN NaN l NaN NaN l NaN NaN l NaN NaN m NaN NaN b NaN NaN NaN NaN NaN NaN b NaN NaN NaN NaN NaN NaN b NaN NaN NaN NaN NaN NaN l NaN NaN l NaN NaN b NaN NaN NaN NaN NaN NaN b NaN NaN NaN NaN NaN NaN b NaN NaN NaN NaN NaN NaN l NaN NaN l NaN NaN l NaN NaN l NaN NaN l NaN NaN l NaN NaN z "},"阿":{"ha":135,"x_min":0,"x_max":0,"o":"b 858 1201 0 63 1263 1201 b 1135 1083 1147 1201 1135 1054 l 1126 1053 b 1247 1022 1126 1115 1153 1056 m 1656 989 b 1111 747 1172 850 1144 747 b 1071 751 1060 747 1056 751 b NaN NaN 1069 751 1088 NaN b NaN NaN NaN NaN NaN NaN l NaN NaN b NaN NaN NaN NaN NaN NaN b NaN NaN NaN NaN NaN NaN b NaN NaN NaN NaN NaN NaN b NaN NaN NaN NaN NaN NaN b NaN NaN NaN NaN NaN NaN l NaN NaN l NaN NaN b NaN NaN NaN NaN NaN NaN l NaN NaN l NaN NaN l NaN NaN l NaN NaN l NaN NaN z "},"哀":{"ha":-53,"x_min":0,"x_max":0,"o":"m 308 983 b 215 1104 308 1010 249 1104 b 92 1022 176 1104 160 1022 l -164 1022 l -164 1057 b -132 1128 -164 1096 -132 1104 z m -426 342 b -476 306 -464 342 -476 350 b -106 550 -339 333 -189 379 b 221 269 11 340 200 268 b 283 374 250 274 242 306 b 368 474 324 442 368 474 b 378 292 368 367 378 253 b 449 233 378 188 449 228 b 464 321 449 272 464 299 b 472 343 464 331 472 340 b 468 363 472 353 468 367 b 468 406 468 382 468 392 b 504 468 468 415 504 433 l 504 567 b 538 661 504 622 538 621 b 393 790 538 697 428 790 l 393 483 l 256 483 b 256 389 256 417 239 401 b 300 382 260 385 278 382 b 364 390 319 382 343 385 b 13 168 278 282 146 203 b -46 418 13 283 -46 404 b 11 519 -46 525 11 522 l 11 450 b -107 450 -28 449 -67 449 l 85 450 l 85 968 l 461 968 l 461 846 l 79 846 b 113 921 79 947 94 921 b 93 NaN 76 921 93 NaN b 157 NaN 108 NaN 126 NaN b 175 NaN 144 NaN 163 NaN b NaN NaN 204 NaN 238 NaN l NaN NaN b NaN NaN NaN NaN NaN NaN b NaN NaN NaN NaN NaN NaN b NaN NaN NaN NaN NaN NaN b NaN NaN NaN NaN NaN NaN b NaN NaN NaN NaN NaN NaN b NaN NaN NaN NaN NaN NaN l NaN NaN z "},"愛":{"ha":-26,"x_min":0,"x_max":0,"o":"m 132 632 l 28 632 l 28 903 l 17 899 b 103 824 61 883 89 857 b 167 743 121 783 136 743 l 226 743 l 226 744 l 260 744 l 260 808 l 240 808 l 240 854 l 231 854 l 231 875 l 214 875 l 214 892 l 467 892 b 446 793 465 860 463 825 b 385 782 426 792 406 789 b 460 679 421 763 444 733 b 522 590 471 633 489 589 b 610 711 586 590 626 660 l 599 711 l 599 740 l 568 740 l 568 767 l 526 767 l 526 781 l 574 781 l 574 797 l 621 797 l 621 826 l 653 826 l 653 876 l 613 876 b 682 938 642 893 664 913 b 713 949 689 947 700 951 b 756 964 726 946 749 949 b 647 1074 768 993 714 1040 b 679 1088 658 1078 668 1083 b 746 NaN 699 1097 735 1086 b 693 NaN 715 NaN 713 NaN b 751 NaN 564 NaN 629 NaN b 915 NaN 890 NaN 907 NaN b 933 NaN 926 NaN 931 NaN b NaN NaN 938 NaN NaN NaN l NaN NaN b NaN NaN NaN NaN NaN NaN b NaN NaN NaN NaN NaN NaN b NaN NaN NaN NaN NaN NaN z m NaN NaN b NaN NaN NaN NaN NaN NaN b NaN NaN NaN NaN NaN NaN l NaN NaN b NaN NaN NaN NaN NaN NaN b NaN NaN NaN NaN NaN NaN b NaN NaN NaN NaN NaN NaN b NaN NaN NaN NaN NaN NaN b NaN NaN NaN NaN NaN NaN b NaN NaN NaN NaN NaN NaN b NaN NaN NaN NaN NaN NaN b NaN NaN NaN NaN NaN NaN b NaN NaN NaN NaN NaN NaN b NaN NaN NaN NaN NaN NaN b NaN NaN NaN NaN NaN NaN b NaN NaN NaN NaN NaN NaN b NaN NaN NaN NaN NaN NaN b NaN NaN NaN NaN NaN NaN b NaN NaN NaN NaN NaN NaN b NaN NaN NaN NaN NaN NaN b NaN NaN NaN NaN NaN NaN b NaN NaN NaN NaN NaN NaN b NaN NaN NaN NaN NaN NaN b NaN NaN NaN NaN NaN NaN b NaN NaN NaN NaN NaN NaN b NaN NaN NaN NaN NaN NaN b NaN NaN NaN NaN NaN NaN b NaN NaN NaN NaN NaN NaN b NaN NaN NaN NaN NaN NaN b NaN NaN NaN NaN NaN NaN z m NaN NaN b NaN NaN NaN NaN NaN NaN b NaN NaN NaN NaN NaN NaN b NaN NaN NaN NaN NaN NaN b NaN NaN NaN NaN NaN NaN z m NaN NaN b NaN NaN NaN NaN NaN NaN b NaN NaN NaN NaN NaN NaN l NaN NaN b NaN NaN NaN NaN NaN NaN b NaN NaN NaN NaN NaN NaN l NaN NaN b NaN NaN NaN NaN NaN NaN z m NaN NaN b NaN NaN NaN NaN NaN NaN b NaN NaN NaN NaN NaN NaN b NaN NaN NaN NaN NaN NaN z "},"挨":{"ha":0,"x_min":0,"x_max":0,"o":"l -2149 0 l -2149 274 l -2222 274 l -2206 335 b -2162 400 -2196 374 -2165 376 b -2194 443 -2160 413 -2174 428 l -2058 443 b -1987 475 -2029 443 -1987 449 b -2065 590 -1987 499 -2032 571 b -1958 729 -2010 603 -1964 672 b -2222 935 -1950 819 -2092 935 b -2171 843 -2200 904 -2183 872 b -2364 814 -2229 826 -2297 818 b -2274 949 -2333 847 -2303 892 b NaN NaN -2256 985 -2229 NaN b NaN NaN NaN NaN NaN NaN b NaN NaN NaN NaN NaN NaN b NaN NaN NaN NaN NaN NaN b NaN NaN NaN NaN NaN NaN b NaN NaN NaN NaN NaN NaN b NaN NaN NaN NaN NaN NaN b NaN NaN NaN NaN NaN NaN b NaN NaN NaN NaN NaN NaN b NaN NaN NaN NaN NaN NaN b NaN NaN NaN NaN NaN NaN b NaN NaN NaN NaN NaN NaN b NaN NaN NaN NaN NaN NaN b NaN NaN NaN NaN NaN NaN b NaN NaN NaN NaN NaN NaN b NaN NaN NaN NaN NaN NaN b NaN NaN NaN NaN NaN NaN b NaN NaN NaN NaN NaN NaN b NaN NaN NaN NaN NaN NaN b NaN NaN NaN NaN NaN NaN b NaN NaN NaN NaN NaN NaN b NaN NaN NaN NaN NaN NaN b NaN NaN NaN NaN NaN NaN b NaN NaN NaN NaN NaN NaN l NaN NaN m NaN NaN b NaN NaN NaN NaN NaN NaN l NaN NaN b NaN NaN NaN NaN NaN NaN b NaN NaN NaN NaN NaN NaN l NaN NaN b NaN NaN NaN NaN NaN NaN z "},"姶":{"ha":0,"x_min":0,"x_max":0,"o":"m 992 1061 b 790 686 950 942 883 794 b 85 988 722 686 89 988 b 129 986 90 988 107 986 b 261 1053 182 986 261 1001 l 261 1086 l 440 1086 l 440 1068 b 413 1068 440 1051 425 1068 l 588 1068 l 588 786 l 407 786 z "},"葵":{"ha":-53,"x_min":0,"x_max":0,"o":"m 1182 646 b 1210 657 1192 654 1199 660 b 1249 671 1222 653 1242 656 b 1114 800 1263 706 1188 768 b 1072 774 1082 814 1082 803 b 1006 647 1060 729 1035 685 b 896 711 965 667 929 688 b 1000 775 938 722 975 743 b 1050 654 976 775 1018 654 b 1051 588 1046 611 1036 599 b 1094 585 1056 588 1074 585 b 1138 588 1108 585 1122 586 b 1088 558 1125 574 1108 561 b 950 585 1024 564 988 585 b 1000 464 928 585 968 464 b 1125 488 1021 464 1021 488 b 1031 340 1103 439 1071 388 b 824 444 1024 407 926 469 b 679 483 757 453 714 461 b 563 247 671 415 613 336 b 526 619 529 382 490 511 b NaN NaN 603 NaN NaN NaN b NaN NaN NaN NaN NaN NaN b NaN NaN NaN NaN NaN NaN b NaN NaN NaN NaN NaN NaN l NaN NaN l NaN NaN l NaN NaN b NaN NaN NaN NaN NaN NaN b NaN NaN NaN NaN NaN NaN b NaN NaN NaN NaN NaN NaN b NaN NaN NaN NaN NaN NaN b NaN NaN NaN NaN NaN NaN b NaN NaN NaN NaN NaN NaN l NaN NaN l NaN NaN l NaN NaN b NaN NaN NaN NaN NaN NaN b NaN NaN NaN NaN NaN NaN l NaN NaN b NaN NaN NaN NaN NaN NaN b NaN NaN NaN NaN NaN NaN b NaN NaN NaN NaN NaN NaN b NaN NaN NaN NaN NaN NaN b NaN NaN NaN NaN NaN NaN b NaN NaN NaN NaN NaN NaN z m NaN NaN b NaN NaN NaN NaN NaN NaN b NaN NaN NaN NaN NaN NaN b NaN NaN NaN NaN NaN NaN b NaN NaN NaN NaN NaN NaN z b NaN NaN NaN NaN NaN NaN b NaN NaN NaN NaN NaN NaN b NaN NaN NaN NaN NaN NaN b NaN NaN NaN NaN NaN NaN b NaN NaN NaN NaN NaN NaN b NaN NaN NaN NaN NaN NaN b NaN NaN NaN NaN NaN NaN b NaN NaN NaN NaN NaN NaN b NaN NaN NaN NaN NaN NaN b NaN NaN NaN NaN NaN NaN "},"茜":{"ha":-19,"x_min":0,"x_max":0,"o":"m 1161 1088 b 1232 1119 1192 1088 1232 1093 b 1353 878 1232 971 1258 911 l 1444 878 b 1469 760 1453 853 1469 817 l 1469 731 l 1446 731 l 1446 582 l 1051 582 l 1051 1056 l 1051 907 l 1407 907 b 1440 1001 1407 963 1440 961 b 1297 1131 1440 1038 1331 1131 l 1297 1185 b 1326 1256 1297 1224 1326 1232 b 1317 1275 1326 1263 1324 1268 l 1519 1275 b 1429 1319 1371 1275 1401 1315 z m 964 1288 l 964 1231 l 882 1231 l 882 1260 b 913 1331 882 1299 913 1307 b 863 1378 913 1346 890 1363 z m 686 810 l 686 869 b 903 1161 792 878 889 964 l 754 1161 l 754 1197 l 642 1197 b 771 1033 642 1108 674 1033 b 863 1078 817 1033 849 1050 l 863 958 l 714 958 l 714 1031 b 635 792 710 938 681 858 z m 1108 900 b 1057 874 960 876 1017 906 b NaN NaN 1082 NaN NaN NaN b NaN NaN NaN NaN NaN NaN b NaN NaN NaN NaN NaN NaN b NaN NaN NaN NaN NaN NaN l NaN NaN l NaN NaN z "},"穐":{"ha":-39,"x_min":0,"x_max":0,"o":"m 1282 146 b 1590 381 1451 229 1521 304 b 1615 494 1660 367 1569 436 b 1708 653 1601 511 1646 581 b 1751 928 1708 625 1861 776 b 1497 1361 1786 1103 1626 1249 b 1464 1611 1564 1514 1439 1667 b 1667 NaN 1497 1693 1607 1631 b 1642 NaN 1667 NaN 1661 NaN l 1642 NaN b 1669 NaN 1642 NaN 1669 NaN b 1754 NaN 1669 NaN 1700 NaN b 1735 NaN 1719 NaN 1735 NaN b 1771 NaN 1756 NaN 1771 NaN l 1771 NaN b 1799 NaN 1771 NaN 1799 NaN b 1692 NaN 1799 NaN 1721 NaN b 1585 NaN 1658 NaN 1644 NaN b 1639 NaN 1606 NaN 1624 NaN b 1669 NaN 1660 NaN 1669 NaN b 1547 NaN 1669 NaN 1576 NaN b 1460 NaN 1518 NaN 1504 NaN b 1463 NaN 1461 NaN 1461 NaN b 1256 NaN 1474 NaN 1290 NaN b 1246 NaN 1232 NaN 1268 NaN b 1167 NaN 1235 NaN 1207 NaN b 1007 NaN 1160 NaN 1086 NaN b 957 NaN 975 NaN 969 NaN b 651 NaN 904 NaN 783 NaN l 731 NaN b 733 NaN 721 NaN 719 NaN b NaN NaN 753 NaN NaN NaN b NaN NaN NaN NaN NaN NaN b NaN NaN NaN NaN NaN NaN b NaN NaN NaN NaN NaN NaN b NaN NaN NaN NaN NaN NaN l NaN NaN l NaN NaN l NaN NaN l NaN NaN l NaN NaN l NaN NaN l NaN NaN l NaN NaN l NaN NaN l NaN NaN l NaN NaN l NaN NaN l NaN NaN b NaN NaN NaN NaN NaN NaN z m NaN NaN b NaN NaN NaN NaN NaN NaN b NaN NaN NaN NaN NaN NaN b NaN NaN NaN NaN NaN NaN b NaN NaN NaN NaN NaN NaN b NaN NaN NaN NaN NaN NaN b NaN NaN NaN NaN NaN NaN b NaN NaN NaN NaN NaN NaN l NaN NaN l NaN NaN l NaN NaN b NaN NaN NaN NaN NaN NaN b NaN NaN NaN NaN NaN NaN l NaN NaN z m NaN NaN l NaN NaN l NaN NaN z m NaN NaN l NaN NaN l NaN NaN l NaN NaN l NaN NaN l NaN NaN l NaN NaN l NaN NaN l NaN NaN z m NaN NaN l NaN NaN l NaN NaN l NaN NaN z m NaN NaN b NaN NaN NaN NaN NaN NaN b NaN NaN NaN NaN NaN NaN l NaN NaN l NaN NaN l NaN NaN b NaN NaN NaN NaN NaN NaN z m NaN NaN b NaN NaN NaN NaN NaN NaN b NaN NaN NaN NaN NaN NaN l NaN NaN l NaN NaN l NaN NaN b NaN NaN NaN NaN NaN NaN b NaN NaN NaN NaN NaN NaN l NaN NaN z m NaN NaN b NaN NaN NaN NaN NaN NaN l NaN NaN l NaN NaN b NaN NaN NaN NaN NaN NaN b NaN NaN NaN NaN NaN NaN z m NaN NaN l NaN NaN l NaN NaN l NaN NaN l NaN NaN z m NaN NaN l NaN NaN l NaN NaN l NaN NaN z m NaN NaN l NaN NaN l NaN NaN l NaN NaN z m NaN NaN l NaN NaN l NaN NaN l NaN NaN b NaN NaN NaN NaN NaN NaN b NaN NaN NaN NaN NaN NaN b NaN NaN NaN NaN NaN NaN l NaN NaN l NaN NaN b NaN NaN NaN NaN NaN NaN b NaN NaN NaN NaN NaN NaN b NaN NaN NaN NaN NaN NaN z "},"悪":{"ha":0,"x_min":0,"x_max":0,"o":"l -146 0 l -146 110 l -78 110 b -74 71 -82 88 -83 78 b -33 64 -69 67 -54 64 l -33 113 l 39 113 l 39 244 b 69 339 39 299 69 297 b -64 467 69 374 -32 467 l -81 467 l -81 500 l 164 500 l 164 -172 l 293 -172 b 322 -296 297 -196 321 -233 l 265 -296 b 64 -239 218 -257 83 -214 l 64 -257 l 40 -257 l 40 -212 l -101 -212 b -101 -307 -101 -279 -118 -294 b -61 -314 -97 -311 -82 -314 b 54 -268 -21 -314 38 -303 l 132 -268 l 132 -378 l 461 -378 b 551 -483 511 -403 532 -433 b 494 -422 543 -458 522 -437 l 872 -422 b 943 -390 903 -422 943 -417 b 947 -928 943 -985 947 -953 b 969 NaN 947 -919 969 NaN b 888 NaN 969 NaN 932 NaN l 994 NaN l 994 NaN m 689 NaN l 817 NaN l 817 NaN z m 978 NaN l 978 NaN l 1050 NaN l 1050 NaN z m 1283 NaN l 1283 NaN l 1211 NaN l 1211 NaN l 1211 NaN l 1321 NaN l 1321 NaN l 1211 NaN "},"握":{"ha":-3,"x_min":0,"x_max":0,"o":"b -49 246 -149 117 -132 194 b -31 308 78 257 19 282 b NaN NaN -29 NaN NaN NaN b NaN NaN NaN NaN NaN NaN b NaN NaN NaN NaN NaN NaN b NaN NaN NaN NaN NaN NaN b NaN NaN NaN NaN NaN NaN b NaN NaN NaN NaN NaN NaN l NaN NaN l NaN NaN l NaN NaN l NaN NaN l NaN NaN l NaN NaN l NaN NaN l NaN NaN l NaN NaN b NaN NaN NaN NaN NaN NaN b NaN NaN NaN NaN NaN NaN b NaN NaN NaN NaN NaN NaN b NaN NaN NaN NaN NaN NaN b NaN NaN NaN NaN NaN NaN b NaN NaN NaN NaN NaN NaN b NaN NaN NaN NaN NaN NaN b NaN NaN NaN NaN NaN NaN b NaN NaN NaN NaN NaN NaN l NaN NaN l NaN NaN b NaN NaN NaN NaN NaN NaN b NaN NaN NaN NaN NaN NaN b NaN NaN NaN NaN NaN NaN l NaN NaN l NaN NaN b NaN NaN NaN NaN NaN NaN b NaN NaN NaN NaN NaN NaN b NaN NaN NaN NaN NaN NaN b NaN NaN NaN NaN NaN NaN b NaN NaN NaN NaN NaN NaN b NaN NaN NaN NaN NaN NaN l NaN NaN l NaN NaN l NaN NaN b NaN NaN NaN NaN NaN NaN m NaN NaN b NaN NaN NaN NaN NaN NaN b NaN NaN NaN NaN NaN NaN l NaN NaN b NaN NaN NaN NaN NaN NaN b NaN NaN NaN NaN NaN NaN z m NaN NaN b NaN NaN NaN NaN NaN NaN b NaN NaN NaN NaN NaN NaN b NaN NaN NaN NaN NaN NaN l NaN NaN l NaN NaN l NaN NaN l NaN NaN l NaN NaN l NaN NaN l NaN NaN l NaN NaN l NaN NaN l NaN NaN l NaN NaN l NaN NaN l NaN NaN l NaN NaN b NaN NaN NaN NaN NaN NaN z m NaN NaN b NaN NaN NaN NaN NaN NaN b NaN NaN NaN NaN NaN NaN l NaN NaN l NaN NaN b NaN NaN NaN NaN NaN NaN b NaN NaN NaN NaN NaN NaN "},"渥":{"ha":0,"x_min":0,"x_max":0,"o":"b 336 685 194 621 264 607 b 553 861 338 767 467 774 b NaN NaN 607 996 NaN NaN b NaN NaN NaN NaN NaN NaN b NaN NaN NaN NaN NaN NaN b NaN NaN NaN NaN NaN NaN b NaN NaN NaN NaN NaN NaN b NaN NaN NaN NaN NaN NaN b NaN NaN NaN NaN NaN NaN l NaN NaN l NaN NaN l NaN NaN l NaN NaN b NaN NaN NaN NaN NaN NaN b NaN NaN NaN NaN NaN NaN b NaN NaN NaN NaN NaN NaN b NaN NaN NaN NaN NaN NaN b NaN NaN NaN NaN NaN NaN b NaN NaN NaN NaN NaN NaN b NaN NaN NaN NaN NaN NaN b NaN NaN NaN NaN NaN NaN b NaN NaN NaN NaN NaN NaN b NaN NaN NaN NaN NaN NaN b NaN NaN NaN NaN NaN NaN l NaN NaN l NaN NaN b NaN NaN NaN NaN NaN NaN b NaN NaN NaN NaN NaN NaN b NaN NaN NaN NaN NaN NaN b NaN NaN NaN NaN NaN NaN m NaN NaN b NaN NaN NaN NaN NaN NaN l NaN NaN l NaN NaN l NaN NaN b NaN NaN NaN NaN NaN NaN z m NaN NaN b NaN NaN NaN NaN NaN NaN b NaN NaN NaN NaN NaN NaN b NaN NaN NaN NaN NaN NaN b NaN NaN NaN NaN NaN NaN b NaN NaN NaN NaN NaN NaN z m NaN NaN b NaN NaN NaN NaN NaN NaN b NaN NaN NaN NaN NaN NaN b NaN NaN NaN NaN NaN NaN b NaN NaN NaN NaN NaN NaN b NaN NaN NaN NaN NaN NaN b NaN NaN NaN NaN NaN NaN z m NaN NaN b NaN NaN NaN NaN NaN NaN b NaN NaN NaN NaN NaN NaN b NaN NaN NaN NaN NaN NaN "},"旭":{"ha":0,"x_min":0,"x_max":0,"o":"l 1149 0 l 1149 1150 l 1069 1150 l 1069 507 l 1174 507 b 1065 319 1167 479 1138 363 b 986 296 1044 308 1021 296 l 911 296 l 911 697 l 910 697 b 1022 701 910 700 967 701 b 1018 647 1072 701 1018 701 b NaN NaN 1018 644 964 NaN b NaN NaN NaN NaN NaN NaN b NaN NaN NaN NaN NaN NaN b NaN NaN NaN NaN NaN NaN b NaN NaN NaN NaN NaN NaN l NaN NaN l NaN NaN b NaN NaN NaN NaN NaN NaN l NaN NaN b NaN NaN NaN NaN NaN NaN b NaN NaN NaN NaN NaN NaN b NaN NaN NaN NaN NaN NaN l NaN NaN l NaN NaN l NaN NaN l NaN NaN l NaN NaN l NaN NaN b NaN NaN NaN NaN NaN NaN b NaN NaN NaN NaN NaN NaN m NaN NaN l NaN NaN l NaN NaN l NaN NaN z m NaN NaN l NaN NaN l NaN NaN l NaN NaN z "},"葦":{"ha":54,"x_min":0,"x_max":0,"o":"m 1161 1129 b 1204 1124 1165 1126 1183 1124 l 1211 1124 b NaN NaN 1211 1121 1194 NaN l NaN NaN l NaN NaN l NaN NaN l NaN NaN b NaN NaN NaN NaN NaN NaN b NaN NaN NaN NaN NaN NaN b NaN NaN NaN NaN NaN NaN l NaN NaN b NaN NaN NaN NaN NaN NaN b NaN NaN NaN NaN NaN NaN l NaN NaN l NaN NaN l NaN NaN l NaN NaN l NaN NaN l NaN NaN l NaN NaN l NaN NaN l NaN NaN b NaN NaN NaN NaN NaN NaN b NaN NaN NaN NaN NaN NaN b NaN NaN NaN NaN NaN NaN l NaN NaN l NaN NaN l NaN NaN b NaN NaN NaN NaN NaN NaN b NaN NaN NaN NaN NaN NaN b NaN NaN NaN NaN NaN NaN b NaN NaN NaN NaN NaN NaN b NaN NaN NaN NaN NaN NaN b NaN NaN NaN NaN NaN NaN l NaN NaN b NaN NaN NaN NaN NaN NaN b NaN NaN NaN NaN NaN NaN b NaN NaN NaN NaN NaN NaN b NaN NaN NaN NaN NaN NaN b NaN NaN NaN NaN NaN NaN b NaN NaN NaN NaN NaN NaN b NaN NaN NaN NaN NaN NaN b NaN NaN NaN NaN NaN NaN z m NaN NaN l NaN NaN b NaN NaN NaN NaN NaN NaN l NaN NaN b NaN NaN NaN NaN NaN NaN b NaN NaN NaN NaN NaN NaN l NaN NaN l NaN NaN l NaN NaN l NaN NaN l NaN NaN z m NaN NaN b NaN NaN NaN NaN NaN NaN l NaN NaN b NaN NaN NaN NaN NaN NaN l NaN NaN l NaN NaN z m NaN NaN b NaN NaN NaN NaN NaN NaN l NaN NaN b NaN NaN NaN NaN NaN NaN b NaN NaN NaN NaN NaN NaN z m NaN NaN l NaN NaN l NaN NaN l NaN NaN z "},"鯵":{"ha":-51,"x_min":0,"x_max":0,"o":"m NaN 0 z m NaN NaN z m NaN NaN b NaN NaN NaN NaN NaN NaN b NaN NaN NaN NaN NaN NaN b NaN NaN NaN NaN NaN NaN b NaN NaN NaN NaN NaN NaN b NaN NaN NaN NaN NaN NaN b NaN NaN NaN NaN NaN NaN b NaN NaN NaN NaN NaN NaN b NaN NaN NaN NaN NaN NaN b NaN NaN NaN NaN NaN NaN b NaN NaN NaN NaN NaN NaN l NaN NaN b NaN NaN NaN NaN NaN NaN b NaN NaN NaN NaN NaN NaN b NaN NaN NaN NaN NaN NaN b NaN NaN NaN NaN NaN NaN b NaN NaN NaN NaN NaN NaN z m NaN NaN l NaN NaN l NaN NaN l NaN NaN b NaN NaN NaN NaN NaN NaN b NaN NaN NaN NaN NaN NaN b NaN NaN NaN NaN NaN NaN b NaN NaN NaN NaN NaN NaN b NaN NaN NaN NaN NaN NaN b NaN NaN NaN NaN NaN NaN b NaN NaN NaN NaN NaN NaN b NaN NaN NaN NaN NaN NaN b NaN NaN NaN NaN NaN NaN b NaN NaN NaN NaN NaN NaN b NaN NaN NaN NaN NaN NaN z m NaN NaN b NaN NaN NaN NaN NaN NaN b NaN NaN NaN NaN NaN NaN b NaN NaN NaN NaN NaN NaN b NaN NaN NaN NaN NaN NaN b NaN NaN NaN NaN NaN NaN b NaN NaN NaN NaN NaN NaN z m NaN NaN l NaN NaN l NaN NaN l NaN NaN l NaN NaN l NaN NaN l NaN NaN l NaN NaN l NaN NaN l NaN NaN l NaN NaN l NaN NaN l NaN NaN l NaN NaN l NaN NaN b NaN NaN NaN NaN NaN NaN b NaN NaN NaN NaN NaN NaN b NaN NaN NaN NaN NaN NaN z m NaN NaN z m NaN NaN b NaN NaN NaN NaN NaN NaN b NaN NaN NaN NaN NaN NaN b NaN NaN NaN NaN NaN NaN b NaN NaN NaN NaN NaN NaN z m NaN NaN b NaN NaN NaN NaN NaN NaN b NaN NaN NaN NaN NaN NaN b NaN NaN NaN NaN NaN NaN b NaN NaN NaN NaN NaN NaN b NaN NaN NaN NaN NaN NaN z m NaN NaN z m NaN NaN b NaN NaN NaN NaN NaN NaN b NaN NaN NaN NaN NaN NaN b NaN NaN NaN NaN NaN NaN b NaN NaN NaN NaN NaN NaN z "},"梓":{"ha":0,"x_min":0,"x_max":0,"o":"b NaN NaN 274 140 269 157 l NaN NaN b NaN NaN NaN NaN NaN NaN l NaN NaN l NaN NaN l NaN NaN l NaN NaN l NaN NaN l NaN NaN l NaN NaN l NaN NaN l NaN NaN l NaN NaN l NaN NaN b NaN NaN NaN NaN NaN NaN b NaN NaN NaN NaN NaN NaN b NaN NaN NaN NaN NaN NaN b NaN NaN NaN NaN NaN NaN l NaN NaN l NaN NaN l NaN NaN l NaN NaN l NaN NaN l NaN NaN b NaN NaN NaN NaN NaN NaN b NaN NaN NaN NaN NaN NaN b NaN NaN NaN NaN NaN NaN l NaN NaN l NaN NaN b NaN NaN NaN NaN NaN NaN b NaN NaN NaN NaN NaN NaN b NaN NaN NaN NaN NaN NaN b NaN NaN NaN NaN NaN NaN b NaN NaN NaN NaN NaN NaN b NaN NaN NaN NaN NaN NaN b NaN NaN NaN NaN NaN NaN b NaN NaN NaN NaN NaN NaN b NaN NaN NaN NaN NaN NaN "},"圧":{"ha":0,"x_min":0,"x_max":0,"o":"m 413 963 l -106 963 b 218 1660 178 992 218 1399 l 278 1660 l 278 806 l 994 806 l 1024 806 l 1024 847 l 1028 847 l 1028 875 l 851 875 l 851 1250 l 1064 1250 l 1064 1185 l 1243 1185 l 1064 1185 l 1064 1078 l 1171 1078 l 1171 703 z "},"斡":{"ha":157,"x_min":0,"x_max":0,"o":"m 1047 1036 b NaN NaN 1032 NaN NaN NaN b NaN NaN NaN NaN NaN NaN l NaN NaN l NaN NaN l NaN NaN b NaN NaN NaN NaN NaN NaN b NaN NaN NaN NaN NaN NaN b NaN NaN NaN NaN NaN NaN l NaN NaN l NaN NaN l NaN NaN l NaN NaN b NaN NaN NaN NaN NaN NaN l NaN NaN l NaN NaN l NaN NaN l NaN NaN l NaN NaN l NaN NaN l NaN NaN l NaN NaN l NaN NaN l NaN NaN l NaN NaN l NaN NaN b NaN NaN NaN NaN NaN NaN b NaN NaN NaN NaN NaN NaN b NaN NaN NaN NaN NaN NaN b NaN NaN NaN NaN NaN NaN b NaN NaN NaN NaN NaN NaN l NaN NaN l NaN NaN l NaN NaN b NaN NaN NaN NaN NaN NaN b NaN NaN NaN NaN NaN NaN b NaN NaN NaN NaN NaN NaN b NaN NaN NaN NaN NaN NaN l NaN NaN l NaN NaN b NaN NaN NaN NaN NaN NaN b NaN NaN NaN NaN NaN NaN b NaN NaN NaN NaN NaN NaN b NaN NaN NaN NaN NaN NaN b NaN NaN NaN NaN NaN NaN b NaN NaN NaN NaN NaN NaN b NaN NaN NaN NaN NaN NaN b NaN NaN NaN NaN NaN NaN b NaN NaN NaN NaN NaN NaN b NaN NaN NaN NaN NaN NaN b NaN NaN NaN NaN NaN NaN b NaN NaN NaN NaN NaN NaN l NaN NaN l NaN NaN l NaN NaN l NaN NaN l NaN NaN z m NaN NaN l NaN NaN l NaN NaN l NaN NaN z m NaN NaN b NaN NaN NaN NaN NaN NaN b NaN NaN NaN NaN NaN NaN b NaN NaN NaN NaN NaN NaN b NaN NaN NaN NaN NaN NaN z m NaN NaN b NaN NaN NaN NaN NaN NaN l NaN NaN "},"扱":{"ha":-26,"x_min":0,"x_max":0,"o":"b 93 3 115 0 82 3 b NaN NaN 75 3 118 NaN b NaN NaN NaN NaN NaN NaN b NaN NaN NaN NaN NaN NaN b NaN NaN NaN NaN NaN NaN b NaN NaN NaN NaN NaN NaN b NaN NaN NaN NaN NaN NaN b NaN NaN NaN NaN NaN NaN b NaN NaN NaN NaN NaN NaN b NaN NaN NaN NaN NaN NaN b NaN NaN NaN NaN NaN NaN b NaN NaN NaN NaN NaN NaN b NaN NaN NaN NaN NaN NaN b NaN NaN NaN NaN NaN NaN b NaN NaN NaN NaN NaN NaN l NaN NaN b NaN NaN NaN NaN NaN NaN b NaN NaN NaN NaN NaN NaN b NaN NaN NaN NaN NaN NaN l NaN NaN l NaN NaN l NaN NaN b NaN NaN NaN NaN NaN NaN b NaN NaN NaN NaN NaN NaN b NaN NaN NaN NaN NaN NaN b NaN NaN NaN NaN NaN NaN b NaN NaN NaN NaN NaN NaN b NaN NaN NaN NaN NaN NaN b NaN NaN NaN NaN NaN NaN b NaN NaN NaN NaN NaN NaN l NaN NaN b NaN NaN NaN NaN NaN NaN b NaN NaN NaN NaN NaN NaN "},"宛":{"ha":417,"x_min":0,"x_max":0,"o":"m 132 763 b 229 781 132 836 165 781 b 268 804 219 781 268 803 b 265 768 268 788 268 768 b 224 554 244 768 224 604 b 82 342 224 432 156 342 b 61 408 92 342 61 401 l 61 340 l -62 340 l -62 243 l -157 243 l -157 147 l -212 147 l -212 358 l -246 358 l -246 625 l -117 625 l -117 683 l 361 683 l 361 694 l 365 694 l 365 701 l 369 701 l 369 343 b 606 119 369 185 461 119 b 831 344 606 238 803 344 b 932 186 894 344 932 256 b 824 165 901 167 885 165 b 754 236 768 165 754 192 l 754 372 b 817 289 797 354 813 338 b 874 247 819 265 831 247 l 874 347 l 921 347 l 921 435 b 954 529 921 489 954 488 b 835 649 954 558 879 626 b 997 781 892 668 957 708 b 1033 819 1021 790 1033 797 b 890 949 1033 856 924 949 z m 1797 1100 b 1764 1039 1871 1099 1829 1082 b NaN NaN 1708 NaN NaN NaN b NaN NaN NaN NaN NaN NaN b NaN NaN NaN NaN NaN NaN l NaN NaN b NaN NaN NaN NaN NaN NaN b NaN NaN NaN NaN NaN NaN b NaN NaN NaN NaN NaN NaN b NaN NaN NaN NaN NaN NaN b NaN NaN NaN NaN NaN NaN l NaN NaN b NaN NaN NaN NaN NaN NaN b NaN NaN NaN NaN NaN NaN b NaN NaN NaN NaN NaN NaN b NaN NaN NaN NaN NaN NaN b NaN NaN NaN NaN NaN NaN l NaN NaN l NaN NaN z m NaN NaN b NaN NaN NaN NaN NaN NaN b NaN NaN NaN NaN NaN NaN b NaN NaN NaN NaN NaN NaN l NaN NaN b NaN NaN NaN NaN NaN NaN b NaN NaN NaN NaN NaN NaN z "},"姐":{"ha":-146,"x_min":0,"x_max":0,"o":"b NaN NaN 1260 -22 1235 NaN b NaN NaN NaN NaN NaN NaN m NaN NaN l NaN NaN b NaN NaN NaN NaN NaN NaN l NaN NaN b NaN NaN NaN NaN NaN NaN b NaN NaN NaN NaN NaN NaN b NaN NaN NaN NaN NaN NaN b NaN NaN NaN NaN NaN NaN z m NaN NaN l NaN NaN l NaN NaN l NaN NaN z m NaN NaN "},"虻":{"ha":346,"x_min":0,"x_max":0,"o":"b 922 619 0 -46 29 619 b 561 NaN 393 619 561 NaN l 646 NaN l 561 NaN b 468 NaN 483 NaN 468 NaN l 468 NaN l 453 NaN l 453 NaN b 467 NaN 453 NaN 526 NaN b 526 NaN 561 NaN 526 NaN b NaN NaN 526 NaN 514 NaN l NaN NaN l NaN NaN l NaN NaN l NaN NaN l NaN NaN b NaN NaN NaN NaN NaN NaN b NaN NaN NaN NaN NaN NaN b NaN NaN NaN NaN NaN NaN b NaN NaN NaN NaN NaN NaN "},"絢":{"ha":76,"x_min":0,"x_max":0,"o":"m 1325 907 b 1200 940 1325 904 1310 940 b 1258 NaN 1293 940 1258 NaN l 1056 NaN b 1063 NaN 1058 NaN 1061 NaN b 1106 NaN 1069 NaN 1103 NaN b 883 NaN 1113 NaN 914 NaN b 890 NaN 861 NaN 897 NaN b 739 NaN 876 NaN 836 NaN b 774 NaN 724 NaN 774 NaN b NaN NaN 774 NaN 811 NaN b NaN NaN NaN NaN NaN NaN b NaN NaN NaN NaN NaN NaN b NaN NaN NaN NaN NaN NaN l NaN NaN l NaN NaN b NaN NaN NaN NaN NaN NaN b NaN NaN NaN NaN NaN NaN b NaN NaN NaN NaN NaN NaN l NaN NaN l NaN NaN l NaN NaN l NaN NaN b NaN NaN NaN NaN NaN NaN b NaN NaN NaN NaN NaN NaN l NaN NaN b NaN NaN NaN NaN NaN NaN b NaN NaN NaN NaN NaN NaN l NaN NaN b NaN NaN NaN NaN NaN NaN b NaN NaN NaN NaN NaN NaN b NaN NaN NaN NaN NaN NaN b NaN NaN NaN NaN NaN NaN b NaN NaN NaN NaN NaN NaN b NaN NaN NaN NaN NaN NaN b NaN NaN NaN NaN NaN NaN "},"綾":{"ha":0,"x_min":0,"x_max":0,"o":"b 1051 -24 1078 0 1064 -24 b NaN NaN 1044 -24 1019 NaN b NaN NaN NaN NaN NaN NaN b NaN NaN NaN NaN NaN NaN b NaN NaN NaN NaN NaN NaN l NaN NaN l NaN NaN b NaN NaN NaN NaN NaN NaN b NaN NaN NaN NaN NaN NaN b NaN NaN NaN NaN NaN NaN b NaN NaN NaN NaN NaN NaN b NaN NaN NaN NaN NaN NaN b NaN NaN NaN NaN NaN NaN b NaN NaN NaN NaN NaN NaN b NaN NaN NaN NaN NaN NaN b NaN NaN NaN NaN NaN NaN b NaN NaN NaN NaN NaN NaN b NaN NaN NaN NaN NaN NaN m NaN NaN b NaN NaN NaN NaN NaN NaN b NaN NaN NaN NaN NaN NaN b NaN NaN NaN NaN NaN NaN b NaN NaN NaN NaN NaN NaN l NaN NaN b NaN NaN NaN NaN NaN NaN b NaN NaN NaN NaN NaN NaN z m NaN NaN b NaN NaN NaN NaN NaN NaN b NaN NaN NaN NaN NaN NaN b NaN NaN NaN NaN NaN NaN z m NaN NaN "},"鮎":{"ha":0,"x_min":0,"x_max":0,"o":"b -69 -201 -137 -61 -101 -182 b NaN NaN -92 NaN NaN NaN l NaN NaN l NaN NaN l NaN NaN l NaN NaN l NaN NaN l NaN NaN l NaN NaN l NaN NaN l NaN NaN l NaN NaN l NaN NaN l NaN NaN l NaN NaN b NaN NaN NaN NaN NaN NaN m NaN NaN b NaN NaN NaN NaN NaN NaN b NaN NaN NaN NaN NaN NaN z m NaN NaN z m NaN NaN l NaN NaN l NaN NaN l NaN NaN l NaN NaN l NaN NaN l NaN NaN l NaN NaN z m NaN NaN l NaN NaN l NaN NaN l NaN NaN z m NaN NaN "},"或":{"ha":-31,"x_min":0,"x_max":0,"o":"m 1272 829 l 1257 829 l 1257 1272 b 1297 1318 1242 1272 1271 1314 z m 550 813 b 531 938 546 797 599 938 l 531 925 l 338 925 l 338 958 l 322 958 l 322 1043 l 307 1043 l 307 957 l 553 957 l 553 1036 l 403 1036 l 403 950 z m 756 832 b 158 743 564 764 318 746 b 111 707 121 743 108 750 b 204 496 117 607 158 493 b 238 535 225 497 236 518 b 261 561 239 549 247 560 b 756 832 456 592 663 664 z "},"粟":{"ha":0,"x_min":0,"x_max":0,"o":"m 83 -3 l 346 -3 l 346 -32 b 399 26 367 -14 385 6 b 426 39 406 38 415 42 b 468 56 440 36 461 39 b 408 142 476 79 449 113 b 526 208 460 143 526 161 l 526 326 b 560 421 526 382 560 381 b 415 550 560 457 450 550 b 315 469 382 550 365 486 l 358 469 l 358 722 b 429 753 388 722 429 726 b 336 875 429 781 369 875 b 213 792 297 875 281 792 l -517 792 l -517 931 b -485 799 -512 906 -485 867 l -485 794 l -506 794 l -506 653 b -506 557 -506 585 -522 569 b -461 551 -501 553 -483 551 b -412 556 -446 551 -429 553 l -412 1189 l 588 1189 l 588 1143 l 508 1143 l 508 1147 b 542 1218 508 1186 542 1194 b 453 1279 542 1236 500 1261 l 297 1279 l 297 1047 l 371 1047 l 371 921 l 292 921 z m 503 1047 z m 376 1174 l 376 1253 l 250 1253 l 250 1174 l 376 1174 z m -57 942 l -57 949 l 74 949 b 106 804 68 924 106 883 l 106 715 l 51 715 b 72 818 75 743 82 783 b -68 913 60 867 1 906 z m 439 925 b 413 936 431 929 421 933 b 368 907 376 950 376 939 b 282 726 347 832 324 775 l 282 804 b 314 875 282 843 314 851 b 190 949 314 899 251 929 l 442 949 b 439 925 442 939 440 931 z "},"袷":{"ha":-24,"x_min":0,"x_max":0,"o":"m 1006 1061 b 1040 1101 1019 1081 1038 1082 b 1049 1065 1044 1143 1069 1131 b 758 608 994 911 900 711 b 779 668 767 628 774 647 b 815 707 803 678 815 685 b 743 669 740 668 767 628 b 663 736 621 701 639 707 b 711 779 674 757 692 772 b 714 NaN 710 788 710 794 b 740 NaN 722 NaN 740 NaN l 740 NaN b 740 NaN 740 NaN 724 NaN b 785 NaN 746 NaN 763 NaN b 917 NaN 838 NaN 917 NaN l 917 NaN l 1096 NaN l 1381 NaN l 1381 NaN b 1163 NaN 1331 NaN 1186 NaN b 1081 NaN 1149 NaN 1114 NaN l 1058 NaN b 1150 NaN 1093 NaN 1124 NaN b 1346 NaN 1222 NaN 1288 NaN l 1310 NaN l 1310 NaN l 1333 NaN l 1333 NaN l 1354 NaN l 1354 NaN b 1425 NaN 1383 NaN 1425 NaN b 1406 NaN 1425 NaN 1417 NaN b 1371 NaN 1406 NaN 1371 NaN b 1349 NaN 1371 NaN 1349 NaN b 1349 NaN 1349 NaN 1349 NaN b 992 NaN 1200 NaN 1047 NaN z m 1022 NaN b 899 NaN 983 NaN 968 NaN l 893 NaN b 763 NaN 833 NaN 794 NaN b 950 NaN 838 NaN 901 NaN b 1047 NaN 971 NaN 1006 NaN b 1022 NaN 1038 NaN 1029 NaN l 839 NaN l 839 NaN l 1014 NaN l 1014 NaN l 833 NaN z "},"安":{"ha":-36,"x_min":0,"x_max":0,"o":"m 1118 1067 b 1099 1032 1118 1007 1099 985 b 1008 NaN 1099 993 1008 NaN l 1008 NaN l 744 NaN b 781 NaN 768 NaN 781 NaN b 638 NaN 781 NaN 671 NaN l -171 NaN l -171 NaN l -15 NaN l -85 NaN b -110 NaN -101 NaN -122 NaN b -68 NaN -106 NaN -89 NaN b 76 NaN -18 NaN 63 NaN l 88 NaN b 167 NaN 115 NaN 142 NaN b -199 NaN 60 NaN -78 NaN b 314 NaN -18 NaN 161 NaN b 436 NaN 365 NaN 406 NaN b 539 NaN 472 NaN 506 NaN b 586 NaN 617 NaN 625 NaN b 404 NaN 565 NaN 500 NaN b 469 NaN 426 NaN 449 NaN b 519 NaN 489 NaN 514 NaN b 401 NaN 526 NaN 461 NaN l 703 NaN l 703 NaN l 714 NaN b 764 NaN 724 NaN 757 NaN b 556 NaN 775 NaN 589 NaN b 544 NaN 532 NaN 567 NaN l 522 NaN z m 824 NaN b 818 NaN 828 NaN 844 NaN b 746 NaN 799 NaN 775 NaN b 617 NaN 706 NaN 663 NaN l 685 NaN z "},"庵":{"ha":-25,"x_min":0,"x_max":0,"o":"b 63 399 18 367 63 357 b 65 386 63 399 65 383 b 44 NaN 65 368 44 NaN l 44 NaN b 63 NaN 44 NaN 79 NaN b 379 NaN 265 NaN 369 NaN b 272 NaN 351 NaN 340 NaN b 192 NaN 207 NaN 192 NaN l 238 NaN b 276 NaN 242 NaN 257 NaN b 394 NaN 324 NaN 394 NaN l 394 NaN b 424 NaN 394 NaN 418 NaN b 467 NaN 444 NaN 461 NaN b 515 NaN 493 NaN 485 NaN b 583 NaN 547 NaN 583 NaN b 290 NaN 471 NaN 374 NaN l 461 NaN l 490 NaN l 490 NaN l 494 NaN l 494 NaN l 319 NaN b 351 NaN 319 NaN 351 NaN b 629 NaN 503 NaN 585 NaN l 675 NaN l 675 NaN l 933 NaN b 899 NaN 933 NaN 918 NaN l 824 NaN b 669 NaN 749 NaN 707 NaN b 671 NaN 671 NaN 671 NaN m 665 NaN l 640 NaN l 640 NaN l 656 NaN l 656 NaN l 692 NaN b 460 NaN 632 NaN 547 NaN b 497 NaN 479 NaN 490 NaN z m 968 NaN b 1042 NaN 988 NaN 1013 NaN b 963 NaN 1022 NaN 1003 NaN l 954 NaN l 954 NaN b 982 NaN 954 NaN 982 NaN b 867 NaN 982 NaN 922 NaN l 879 NaN z m 806 NaN l 758 NaN z m 697 NaN l 646 NaN z m 775 NaN l 775 NaN l 846 NaN l 846 NaN z m 575 NaN l 575 NaN l 646 NaN l 646 NaN z m 775 NaN l 775 NaN l 846 NaN l 846 NaN z "},"按":{"ha":-44,"x_min":0,"x_max":0,"o":"l 0 1186 l 1007 1186 l 1007 1114 l 1074 1114 l 1074 1047 l 940 1047 b 847 1154 919 1086 888 1122 b 764 1065 788 1092 775 1078 b NaN NaN 754 1053 NaN NaN b NaN NaN NaN NaN NaN NaN b NaN NaN NaN NaN NaN NaN l NaN NaN b NaN NaN NaN NaN NaN NaN b NaN NaN NaN NaN NaN NaN b NaN NaN NaN NaN NaN NaN b NaN NaN NaN NaN NaN NaN b NaN NaN NaN NaN NaN NaN b NaN NaN NaN NaN NaN NaN b NaN NaN NaN NaN NaN NaN b NaN NaN NaN NaN NaN NaN l NaN NaN l NaN NaN l NaN NaN l NaN NaN l NaN NaN b NaN NaN NaN NaN NaN NaN l NaN NaN l NaN NaN l NaN NaN l NaN NaN l NaN NaN l NaN NaN b NaN NaN NaN NaN NaN NaN b NaN NaN NaN NaN NaN NaN b NaN NaN NaN NaN NaN NaN l NaN NaN l NaN NaN b NaN NaN NaN NaN NaN NaN b NaN NaN NaN NaN NaN NaN b NaN NaN NaN NaN NaN NaN b NaN NaN NaN NaN NaN NaN b NaN NaN NaN NaN NaN NaN b NaN NaN NaN NaN NaN NaN b NaN NaN NaN NaN NaN NaN b NaN NaN NaN NaN NaN NaN b NaN NaN NaN NaN NaN NaN b NaN NaN NaN NaN NaN NaN l NaN NaN b NaN NaN NaN NaN NaN NaN b NaN NaN NaN NaN NaN NaN b NaN NaN NaN NaN NaN NaN l NaN NaN l NaN NaN b NaN NaN NaN NaN NaN NaN b NaN NaN NaN NaN NaN NaN l NaN NaN l NaN NaN b NaN NaN NaN NaN NaN NaN l NaN NaN b NaN NaN NaN NaN NaN NaN b NaN NaN NaN NaN NaN NaN b NaN NaN NaN NaN NaN NaN l NaN NaN l NaN NaN b NaN NaN NaN NaN NaN NaN b NaN NaN NaN NaN NaN NaN b NaN NaN NaN NaN NaN NaN l NaN NaN b NaN NaN NaN NaN NaN NaN b NaN NaN NaN NaN NaN NaN b NaN NaN NaN NaN NaN NaN b NaN NaN NaN NaN NaN NaN b NaN NaN NaN NaN NaN NaN b NaN NaN NaN NaN NaN NaN l NaN NaN "},"暗":{"ha":106,"x_min":0,"x_max":0,"o":"m 1333 613 b 1240 733 1333 639 1274 733 b NaN NaN 1168 757 NaN NaN l NaN NaN l NaN NaN l NaN NaN l NaN NaN l NaN NaN b NaN NaN NaN NaN NaN NaN l NaN NaN b NaN NaN NaN NaN NaN NaN b NaN NaN NaN NaN NaN NaN l NaN NaN l NaN NaN l NaN NaN l NaN NaN l NaN NaN l NaN NaN l NaN NaN l NaN NaN l NaN NaN l NaN NaN l NaN NaN l NaN NaN l NaN NaN l NaN NaN b NaN NaN NaN NaN NaN NaN z m NaN NaN b NaN NaN NaN NaN NaN NaN z m NaN NaN l NaN NaN l NaN NaN l NaN NaN l NaN NaN z m NaN NaN l NaN NaN l NaN NaN l NaN NaN z m NaN NaN l NaN NaN l NaN NaN l NaN NaN l NaN NaN l NaN NaN l NaN NaN l NaN NaN z m NaN NaN l NaN NaN l NaN NaN l NaN NaN z "},"案":{"ha":0,"x_min":0,"x_max":0,"o":"m 83 -17 l 83 192 b -43 240 -128 290 99 235 b NaN NaN -228 265 -340 358 b NaN NaN NaN NaN NaN NaN l NaN NaN l NaN NaN l NaN NaN b NaN NaN NaN NaN NaN NaN b NaN NaN NaN NaN NaN NaN b NaN NaN NaN NaN NaN NaN b NaN NaN NaN NaN NaN NaN b NaN NaN NaN NaN NaN NaN b NaN NaN NaN NaN NaN NaN b NaN NaN NaN NaN NaN NaN b NaN NaN NaN NaN NaN NaN b NaN NaN NaN NaN NaN NaN l NaN NaN b NaN NaN NaN NaN NaN NaN b NaN NaN NaN NaN NaN NaN b NaN NaN NaN NaN NaN NaN b NaN NaN NaN NaN NaN NaN b NaN NaN NaN NaN NaN NaN b NaN NaN NaN NaN NaN NaN l NaN NaN l NaN NaN b NaN NaN NaN NaN NaN NaN b NaN NaN NaN NaN NaN NaN l NaN NaN l NaN NaN l NaN NaN l NaN NaN l NaN NaN b NaN NaN NaN NaN NaN NaN b NaN NaN NaN NaN NaN NaN b NaN NaN NaN NaN NaN NaN l NaN NaN b NaN NaN NaN NaN NaN NaN b NaN NaN NaN NaN NaN NaN b NaN NaN NaN NaN NaN NaN l NaN NaN l NaN NaN l NaN NaN l NaN NaN l NaN NaN l NaN NaN l NaN NaN b NaN NaN NaN NaN NaN NaN z m NaN NaN l NaN NaN b NaN NaN NaN NaN NaN NaN l NaN NaN l NaN NaN l NaN NaN l NaN NaN l NaN NaN l NaN NaN l NaN NaN b NaN NaN NaN NaN NaN NaN z m NaN NaN b NaN NaN NaN NaN NaN NaN b NaN NaN NaN NaN NaN NaN b NaN NaN NaN NaN NaN NaN b NaN NaN NaN NaN NaN NaN z m NaN NaN l NaN NaN b NaN NaN NaN NaN NaN NaN b NaN NaN NaN NaN NaN NaN z "},"闇":{"ha":0,"x_min":0,"x_max":0,"o":"m 717 21 b 669 25 657 21 654 25 b NaN NaN 668 25 688 NaN b NaN NaN NaN NaN NaN NaN l NaN NaN l NaN NaN l NaN NaN l NaN NaN l NaN NaN l NaN NaN l NaN NaN b NaN NaN NaN NaN NaN NaN b NaN NaN NaN NaN NaN NaN b NaN NaN NaN NaN NaN NaN b NaN NaN NaN NaN NaN NaN b NaN NaN NaN NaN NaN NaN b NaN NaN NaN NaN NaN NaN b NaN NaN NaN NaN NaN NaN b NaN NaN NaN NaN NaN NaN b NaN NaN NaN NaN NaN NaN b NaN NaN NaN NaN NaN NaN b NaN NaN NaN NaN NaN NaN b NaN NaN NaN NaN NaN NaN b NaN NaN NaN NaN NaN NaN b NaN NaN NaN NaN NaN NaN b NaN NaN NaN NaN NaN NaN l NaN NaN b NaN NaN NaN NaN NaN NaN b NaN NaN NaN NaN NaN NaN b NaN NaN NaN NaN NaN NaN l NaN NaN l NaN NaN b NaN NaN NaN NaN NaN NaN b NaN NaN NaN NaN NaN NaN z m NaN NaN b NaN NaN NaN NaN NaN NaN b NaN NaN NaN NaN NaN NaN l NaN NaN l NaN NaN b NaN NaN NaN NaN NaN NaN b NaN NaN NaN NaN NaN NaN l NaN NaN b NaN NaN NaN NaN NaN NaN b NaN NaN NaN NaN NaN NaN b NaN NaN NaN NaN NaN NaN l NaN NaN b NaN NaN NaN NaN NaN NaN b NaN NaN NaN NaN NaN NaN b NaN NaN NaN NaN NaN NaN b NaN NaN NaN NaN NaN NaN l NaN NaN b NaN NaN NaN NaN NaN NaN b NaN NaN NaN NaN NaN NaN b NaN NaN NaN NaN NaN NaN b NaN NaN NaN NaN NaN NaN b NaN NaN NaN NaN NaN NaN b NaN NaN NaN NaN NaN NaN b NaN NaN NaN NaN NaN NaN z m NaN NaN b NaN NaN NaN NaN NaN NaN b NaN NaN NaN NaN NaN NaN b NaN NaN NaN NaN NaN NaN z m NaN NaN b NaN NaN NaN NaN NaN NaN b NaN NaN NaN NaN NaN NaN l NaN NaN b NaN NaN NaN NaN NaN NaN l NaN NaN l NaN NaN z m NaN NaN l NaN NaN l NaN NaN l NaN NaN z "},"鞍":{"ha":0,"x_min":0,"x_max":0,"o":"l 1189 0 l 1189 1007 l 1146 1007 l 1146 1074 l 1146 1007 l 1068 1007 b 975 1114 1047 1046 1017 1083 b 1051 985 917 1051 960 981 b 1161 1144 1100 1036 1146 1085 b NaN NaN 1151 1203 NaN NaN l NaN NaN b NaN NaN NaN NaN NaN NaN l NaN NaN b NaN NaN NaN NaN NaN NaN b NaN NaN NaN NaN NaN NaN b NaN NaN NaN NaN NaN NaN l NaN NaN b NaN NaN NaN NaN NaN NaN b NaN NaN NaN NaN NaN NaN b NaN NaN NaN NaN NaN NaN l NaN NaN b NaN NaN NaN NaN NaN NaN b NaN NaN NaN NaN NaN NaN b NaN NaN NaN NaN NaN NaN l NaN NaN l NaN NaN b NaN NaN NaN NaN NaN NaN b NaN NaN NaN NaN NaN NaN b NaN NaN NaN NaN NaN NaN b NaN NaN NaN NaN NaN NaN b NaN NaN NaN NaN NaN NaN b NaN NaN NaN NaN NaN NaN b NaN NaN NaN NaN NaN NaN b NaN NaN NaN NaN NaN NaN b NaN NaN NaN NaN NaN NaN b NaN NaN NaN NaN NaN NaN l NaN NaN l NaN NaN l NaN NaN b NaN NaN NaN NaN NaN NaN b NaN NaN NaN NaN NaN NaN b NaN NaN NaN NaN NaN NaN l NaN NaN b NaN NaN NaN NaN NaN NaN b NaN NaN NaN NaN NaN NaN b NaN NaN NaN NaN NaN NaN b NaN NaN NaN NaN NaN NaN b NaN NaN NaN NaN NaN NaN b NaN NaN NaN NaN NaN NaN l NaN NaN b NaN NaN NaN NaN NaN NaN l NaN NaN l NaN NaN l NaN NaN l NaN NaN l NaN NaN m NaN NaN l NaN NaN l NaN NaN l NaN NaN z m NaN NaN b NaN NaN NaN NaN NaN NaN b NaN NaN NaN NaN NaN NaN b NaN NaN NaN NaN NaN NaN b NaN NaN NaN NaN NaN NaN l NaN NaN z m NaN NaN b NaN NaN NaN NaN NaN NaN b NaN NaN NaN NaN NaN NaN b NaN NaN NaN NaN NaN NaN l NaN NaN b NaN NaN NaN NaN NaN NaN z "},"杏":{"ha":10,"x_min":0,"x_max":0,"o":"b 33 94 0 56 33 54 b -110 224 33 131 -76 224 b -233 140 -149 224 -165 140 l -467 140 b -600 196 -494 161 -551 183 b -415 328 -533 224 -469 267 l -415 286 l -194 286 b -368 290 -432 385 -206 283 b NaN NaN -593 382 -690 533 l NaN NaN l NaN NaN l NaN NaN l NaN NaN "},"以":{"ha":0,"x_min":0,"x_max":0,"o":"m 900 319 b 1017 111 951 272 993 206 b 1078 -17 1032 49 1040 -14 b 1204 139 1150 -24 1210 67 b 921 367 1197 224 1078 363 b 1310 472 921 440 1093 472 b 1526 4 1544 472 1526 78 b NaN -629 1526 -406 1107 -629 b NaN NaN NaN -625 NaN -410 z m NaN NaN b NaN NaN NaN NaN NaN NaN b NaN NaN NaN NaN NaN NaN l NaN NaN l NaN NaN l NaN NaN b NaN NaN NaN NaN NaN NaN b NaN NaN NaN NaN NaN NaN b NaN NaN NaN NaN NaN NaN z m NaN NaN b NaN NaN NaN NaN NaN NaN b NaN NaN NaN NaN NaN NaN b NaN NaN NaN NaN NaN NaN b NaN NaN NaN NaN NaN NaN b NaN NaN NaN NaN NaN NaN z "},"伊":{"ha":0,"x_min":0,"x_max":0,"o":"b 431 489 254 0 431 315 b 1878 419 431 318 606 419 b 1806 356 1851 419 1836 381 b NaN NaN 1958 356 1890 NaN l NaN NaN l NaN NaN b NaN NaN NaN NaN NaN NaN l NaN NaN b NaN NaN NaN NaN NaN NaN b NaN NaN NaN NaN NaN NaN b NaN NaN NaN NaN NaN NaN b NaN NaN NaN NaN NaN NaN b NaN NaN NaN NaN NaN NaN b NaN NaN NaN NaN NaN NaN b NaN NaN NaN NaN NaN NaN l NaN NaN b NaN NaN NaN NaN NaN NaN l NaN NaN l NaN NaN b NaN NaN NaN NaN NaN NaN b NaN NaN NaN NaN NaN NaN l NaN NaN l NaN NaN l NaN NaN b NaN NaN NaN NaN NaN NaN b NaN NaN NaN NaN NaN NaN m NaN NaN l NaN NaN l NaN NaN l NaN NaN l NaN NaN l NaN NaN l NaN NaN l NaN NaN b NaN NaN NaN NaN NaN NaN b NaN NaN NaN NaN NaN NaN l NaN NaN l NaN NaN z "},"位":{"ha":0,"x_min":0,"x_max":0,"o":"l 301 0 l 301 -361 l 828 -361 l 828 -510 b 1061 -6 924 -400 1029 -150 b 1129 -212 1075 -3 1085 -122 b 967 -821 1139 -319 1096 -617 m 1106 -481 b 1008 -583 1106 -590 1051 -583 b 1031 NaN 1039 -583 1031 NaN z "},"依":{"ha":-53,"x_min":0,"x_max":0,"o":"m 1043 444 b 1207 511 1106 449 1163 472 b 1239 518 1217 519 1226 524 b 1285 529 1253 513 1275 513 b 1153 694 1306 565 1231 647 b 1103 671 1118 714 1117 701 b 1003 532 1075 614 1042 568 b 921 806 968 613 940 704 b 954 274 867 615 897 424 b 793 215 899 244 844 226 l 793 386 b 826 457 793 425 826 433 b 708 528 826 479 767 510 b 811 713 749 578 783 639 b 863 757 821 738 854 733 b 797 844 868 774 838 811 b 674 761 758 844 742 761 l 578 761 l 578 865 b 610 936 578 904 610 913 b 590 1004 610 978 590 956 b 501 NaN 590 964 501 NaN l 397 NaN l 397 NaN b 388 NaN 397 NaN 396 NaN b 171 NaN 354 NaN 282 NaN b 203 NaN 175 NaN 203 NaN l 203 NaN b 383 NaN 267 NaN 328 NaN b 390 NaN 388 NaN 390 NaN l 390 NaN b 288 NaN 356 NaN 322 NaN b -18 NaN 174 NaN 65 NaN z "},"偉":{"ha":0,"x_min":0,"x_max":0,"o":"b 915 1051 0 483 888 1051 b 950 994 856 1051 950 1018 b 893 956 950 979 918 956 l 893 965 b 926 1060 893 1021 926 1019 b 783 1189 926 1096 817 1189 b 660 1106 744 1189 728 1106 l 618 1106 b 663 1164 628 1139 658 1142 b 443 1285 669 1206 474 1310 m 919 1282 l 919 1267 l 811 1267 l 811 1135 l 831 1243 z m 244 1156 b NaN NaN 229 1129 NaN NaN b NaN NaN NaN NaN NaN NaN b NaN NaN NaN NaN NaN NaN l NaN NaN b NaN NaN NaN NaN NaN NaN b NaN NaN NaN NaN NaN NaN b NaN NaN NaN NaN NaN NaN l NaN NaN b NaN NaN NaN NaN NaN NaN b NaN NaN NaN NaN NaN NaN l NaN NaN l NaN NaN b NaN NaN NaN NaN NaN NaN z m NaN NaN l NaN NaN l NaN NaN l NaN NaN l NaN NaN z m NaN NaN b NaN NaN NaN NaN NaN NaN l NaN NaN l NaN NaN b NaN NaN NaN NaN NaN NaN b NaN NaN NaN NaN NaN NaN b NaN NaN NaN NaN NaN NaN b NaN NaN NaN NaN NaN NaN b NaN NaN NaN NaN NaN NaN b NaN NaN NaN NaN NaN NaN l NaN NaN l NaN NaN b NaN NaN NaN NaN NaN NaN l NaN NaN l NaN NaN l NaN NaN l NaN NaN l NaN NaN z "},"囲":{"ha":-11,"x_min":0,"x_max":0,"o":"b 0 -67 -4 -43 -14 -57 l -612 -67 l -612 821 l -7 821 l -7 43 l -619 43 m -78 482 b -124 432 -96 482 -107 454 l -124 440 b -100 511 -124 481 -100 488 b -276 593 -100 554 -257 624 l -276 578 l -300 578 l -300 614 l -342 614 l -342 558 l -300 558 b -275 629 -300 599 -275 606 b -453 711 -275 672 -433 742 l -453 697 l -476 697 l -476 732 l -517 732 b -654 760 -581 739 -617 760 b -604 639 -676 760 -636 639 b -519 660 -589 639 -582 656 b -535 532 -521 617 -526 574 b -654 557 -587 539 -621 557 b -604 436 -676 557 -636 436 b -644 328 -593 443 -614 385 b NaN NaN -690 269 NaN NaN b NaN NaN NaN NaN NaN NaN l NaN NaN l NaN NaN b NaN NaN NaN NaN NaN NaN b NaN NaN NaN NaN NaN NaN b NaN NaN NaN NaN NaN NaN b NaN NaN NaN NaN NaN NaN b NaN NaN NaN NaN NaN NaN l NaN NaN z m NaN NaN b NaN NaN NaN NaN NaN NaN l NaN NaN l NaN NaN z "},"夷":{"ha":193,"x_min":0,"x_max":0,"o":"l -256 0 l -274 0 l -274 -297 b -224 -504 -297 -382 -256 -504 l -56 -504 b -64 -632 -57 -549 -60 -592 l -206 -632 b -410 -551 -256 -586 -386 -531 b -403 -706 -432 -571 -390 -617 b -417 -903 -428 -894 -437 -900 b -278 -853 -364 -910 -285 -904 l -265 -769 l -126 -769 b -447 -1224 -197 -1017 -328 -1151 b 35 -857 -229 -1247 -56 -1132 b -11 -971 -249 -786 -37 -897 b 46 -1003 0 -1036 18 -1094 b 135 -921 44 -956 68 -928 b 213 NaN 153 -908 193 -904 b 243 NaN 228 NaN 243 NaN b NaN NaN 278 NaN 222 NaN l NaN NaN b NaN NaN NaN NaN NaN NaN l NaN NaN b NaN NaN NaN NaN NaN NaN b NaN NaN NaN NaN NaN NaN b NaN NaN NaN NaN NaN NaN l NaN NaN b NaN NaN NaN NaN NaN NaN l NaN NaN l NaN NaN l NaN NaN b NaN NaN NaN NaN NaN NaN l NaN NaN b NaN NaN NaN NaN NaN NaN m NaN NaN b NaN NaN NaN NaN NaN NaN b NaN NaN NaN NaN NaN NaN l NaN NaN b NaN NaN NaN NaN NaN NaN b NaN NaN NaN NaN NaN NaN z "},"委":{"ha":0,"x_min":0,"x_max":0,"o":"b 544 88 119 46 356 115 b 1067 433 1326 193 1129 407 b 1104 497 1069 463 1074 456 b NaN NaN 1172 NaN NaN NaN b NaN NaN NaN NaN NaN NaN b NaN NaN NaN NaN NaN NaN l NaN NaN b NaN NaN NaN NaN NaN NaN b NaN NaN NaN NaN NaN NaN b NaN NaN NaN NaN NaN NaN b NaN NaN NaN NaN NaN NaN b NaN NaN NaN NaN NaN NaN b NaN NaN NaN NaN NaN NaN b NaN NaN NaN NaN NaN NaN l NaN NaN b NaN NaN NaN NaN NaN NaN b NaN NaN NaN NaN NaN NaN b NaN NaN NaN NaN NaN NaN l NaN NaN b NaN NaN NaN NaN NaN NaN l NaN NaN l NaN NaN b NaN NaN NaN NaN NaN NaN b NaN NaN NaN NaN NaN NaN b NaN NaN NaN NaN NaN NaN m NaN NaN b NaN NaN NaN NaN NaN NaN b NaN NaN NaN NaN NaN NaN b NaN NaN NaN NaN NaN NaN b NaN NaN NaN NaN NaN NaN l NaN NaN z "},"威":{"ha":0,"x_min":0,"x_max":0,"o":"m 365 428 b 378 424 369 425 374 424 b 426 440 389 424 396 433 l 403 293 b 390 211 394 235 378 224 b 428 200 394 207 408 203 b 549 240 472 193 542 196 l 553 268 l 583 256 b 342 1 532 135 444 53 b 690 156 458 -28 597 17 b 746 111 708 132 728 117 b 649 39 715 85 683 61 b 975 138 776 19 886 64 b 1232 -22 1069 -18 1183 -49 b 1322 -129 1372 -93 1418 -104 b 1290 -221 1247 -187 1279 -204 b 1379 -169 1306 -235 1328 -199 b 1500 -126 1433 -144 1488 -139 b NaN NaN 1503 -115 1501 NaN l NaN NaN b NaN NaN NaN NaN NaN NaN b NaN NaN NaN NaN NaN NaN b NaN NaN NaN NaN NaN NaN b NaN NaN NaN NaN NaN NaN z m NaN NaN b NaN NaN NaN NaN NaN NaN l NaN NaN b NaN NaN NaN NaN NaN NaN b NaN NaN NaN NaN NaN NaN b NaN NaN NaN NaN NaN NaN b NaN NaN NaN NaN NaN NaN b NaN NaN NaN NaN NaN NaN b NaN NaN NaN NaN NaN NaN b NaN NaN NaN NaN NaN NaN b NaN NaN NaN NaN NaN NaN l NaN NaN b NaN NaN NaN NaN NaN NaN b NaN NaN NaN NaN NaN NaN b NaN NaN NaN NaN NaN NaN b NaN NaN NaN NaN NaN NaN b NaN NaN NaN NaN NaN NaN l NaN NaN b NaN NaN NaN NaN NaN NaN b NaN NaN NaN NaN NaN NaN z m NaN NaN b NaN NaN NaN NaN NaN NaN b NaN NaN NaN NaN NaN NaN b NaN NaN NaN NaN NaN NaN l NaN NaN b NaN NaN NaN NaN NaN NaN b NaN NaN NaN NaN NaN NaN z m NaN NaN b NaN NaN NaN NaN NaN NaN l NaN NaN l NaN NaN b NaN NaN NaN NaN NaN NaN z "},"尉":{"ha":0,"x_min":0,"x_max":0,"o":"l -126 0 l -126 -87 l -39 -87 l -39 -574 b -222 -632 -39 -642 -87 -657 b -225 -614 -222 -625 -224 -619 b -436 -521 -240 -549 -337 -496 l -436 -514 b NaN NaN -436 -474 -431 NaN l NaN NaN l NaN NaN b NaN NaN NaN NaN NaN NaN b NaN NaN NaN NaN NaN NaN l NaN NaN b NaN NaN NaN NaN NaN NaN b NaN NaN NaN NaN NaN NaN b NaN NaN NaN NaN NaN NaN l NaN NaN l NaN NaN b NaN NaN NaN NaN NaN NaN b NaN NaN NaN NaN NaN NaN b NaN NaN NaN NaN NaN NaN b NaN NaN NaN NaN NaN NaN b NaN NaN NaN NaN NaN NaN l NaN NaN b NaN NaN NaN NaN NaN NaN b NaN NaN NaN NaN NaN NaN b NaN NaN NaN NaN NaN NaN b NaN NaN NaN NaN NaN NaN b NaN NaN NaN NaN NaN NaN b NaN NaN NaN NaN NaN NaN b NaN NaN NaN NaN NaN NaN b NaN NaN NaN NaN NaN NaN l NaN NaN b NaN NaN NaN NaN NaN NaN b NaN NaN NaN NaN NaN NaN b NaN NaN NaN NaN NaN NaN l NaN NaN b NaN NaN NaN NaN NaN NaN b NaN NaN NaN NaN NaN NaN b NaN NaN NaN NaN NaN NaN b NaN NaN NaN NaN NaN NaN m NaN NaN b NaN NaN NaN NaN NaN NaN l NaN NaN l NaN NaN l NaN NaN b NaN NaN NaN NaN NaN NaN z m NaN NaN b NaN NaN NaN NaN NaN NaN b NaN NaN NaN NaN NaN NaN b NaN NaN NaN NaN NaN NaN b NaN NaN NaN NaN NaN NaN z m NaN NaN b NaN NaN NaN NaN NaN NaN b NaN NaN NaN NaN NaN NaN b NaN NaN NaN NaN NaN NaN b NaN NaN NaN NaN NaN NaN z "},"惟":{"ha":-22,"x_min":0,"x_max":0,"o":"m 229 475 b 408 463 369 476 388 471 b 456 540 429 490 439 517 b NaN NaN 475 NaN NaN NaN l NaN NaN l NaN NaN l NaN NaN l NaN NaN l NaN NaN b NaN NaN NaN NaN NaN NaN b NaN NaN NaN NaN NaN NaN b NaN NaN NaN NaN NaN NaN l NaN NaN l NaN NaN b NaN NaN NaN NaN NaN NaN b NaN NaN NaN NaN NaN NaN b NaN NaN NaN NaN NaN NaN l NaN NaN b NaN NaN NaN NaN NaN NaN b NaN NaN NaN NaN NaN NaN l NaN NaN l NaN NaN l NaN NaN l NaN NaN l NaN NaN l NaN NaN l NaN NaN l NaN NaN l NaN NaN l NaN NaN l NaN NaN l NaN NaN b NaN NaN NaN NaN NaN NaN b NaN NaN NaN NaN NaN NaN b NaN NaN NaN NaN NaN NaN l NaN NaN l NaN NaN l NaN NaN l NaN NaN l NaN NaN b NaN NaN NaN NaN NaN NaN z m NaN NaN "},"意":{"ha":10,"x_min":0,"x_max":0,"o":"l 1254 0 l 1254 767 l 1086 767 b 1147 835 1111 785 1133 808 b 1172 851 1154 846 1161 851 b 1208 875 1186 851 1206 858 b 1178 922 1211 890 1199 907 l 1178 818 l 1163 818 l 1163 590 b 1213 383 1139 506 1181 383 l 1263 383 l 1285 383 l 1285 365 l 1299 365 l 1299 338 l 1310 338 l 1310 283 l 1314 283 l 1314 263 l 1318 263 l 1318 243 l 1324 243 l 1324 228 l 2197 228 b 2268 258 2228 228 2268 232 m 1617 297 l 1633 297 l 1633 319 l 1640 319 l 1640 349 l 1636 349 l 1636 376 l 1633 376 l 1633 404 l 1610 404 l 1610 433 l 1838 433 b 1781 278 1829 376 1810 322 z m 1610 125 l 1610 -24 b 1610 -118 1610 -90 1593 -107 b 1642 -249 1603 -140 1642 -175 b 1675 -185 1642 -214 1675 -206 b 1485 -107 1675 -157 1554 -114 b 1528 -75 1504 -100 1519 -89 l 1624 -75 b 1590 -82 1613 -76 1601 -79 b 1482 -11 1576 -49 1536 -22 l 1583 -11 b 1588 -50 1581 -33 1578 -43 l 1588 -199 l 1583 -199 l 1583 -146 l 1721 -146 b 1754 -51 1721 -90 1754 -92 b 1611 78 1754 -15 1644 78 b 1488 -154 1572 -71 1556 -154 l 1247 -154 l 1247 138 l 1201 138 z m 903 22 l 903 68 l 1201 68 l 1201 22 z m 1296 -103 "},"慰":{"ha":26,"x_min":0,"x_max":0,"o":"m 1300 940 b 1224 1061 1300 967 1251 1061 b 1156 990 1200 1061 1186 1014 l 1183 990 l 1183 950 l 1092 950 l 1092 1042 l 746 1042 b 888 932 857 1006 881 994 b 943 892 889 910 901 892 l 943 992 l 990 992 l 990 1338 l 1076 1338 b 1135 1369 1101 1338 1135 1343 z m 313 608 b 369 508 313 593 336 508 b 315 NaN 300 508 315 NaN b 371 NaN 353 NaN 371 NaN l 371 NaN b 332 NaN 382 NaN 358 NaN b 224 NaN 278 NaN 249 NaN b 206 NaN 211 NaN 210 NaN b 258 NaN 199 NaN 232 NaN b NaN NaN 269 NaN NaN NaN b NaN NaN NaN NaN NaN NaN b NaN NaN NaN NaN NaN NaN b NaN NaN NaN NaN NaN NaN b NaN NaN NaN NaN NaN NaN l NaN NaN b NaN NaN NaN NaN NaN NaN b NaN NaN NaN NaN NaN NaN b NaN NaN NaN NaN NaN NaN l NaN NaN b NaN NaN NaN NaN NaN NaN b NaN NaN NaN NaN NaN NaN l NaN NaN b NaN NaN NaN NaN NaN NaN b NaN NaN NaN NaN NaN NaN b NaN NaN NaN NaN NaN NaN b NaN NaN NaN NaN NaN NaN b NaN NaN NaN NaN NaN NaN b NaN NaN NaN NaN NaN NaN b NaN NaN NaN NaN NaN NaN b NaN NaN NaN NaN NaN NaN b NaN NaN NaN NaN NaN NaN l NaN NaN b NaN NaN NaN NaN NaN NaN b NaN NaN NaN NaN NaN NaN b NaN NaN NaN NaN NaN NaN b NaN NaN NaN NaN NaN NaN b NaN NaN NaN NaN NaN NaN b NaN NaN NaN NaN NaN NaN b NaN NaN NaN NaN NaN NaN b NaN NaN NaN NaN NaN NaN b NaN NaN NaN NaN NaN NaN b NaN NaN NaN NaN NaN NaN b NaN NaN NaN NaN NaN NaN l NaN NaN l NaN NaN l NaN NaN l NaN NaN l NaN NaN z m NaN NaN b NaN NaN NaN NaN NaN NaN b NaN NaN NaN NaN NaN NaN b NaN NaN NaN NaN NaN NaN b NaN NaN NaN NaN NaN NaN z m NaN NaN b NaN NaN NaN NaN NaN NaN b NaN NaN NaN NaN NaN NaN b NaN NaN NaN NaN NaN NaN b NaN NaN NaN NaN NaN NaN z m NaN NaN "},"易":{"ha":-53,"x_min":0,"x_max":0,"o":"m 561 453 b 489 314 546 450 540 438 b 463 99 394 207 271 135 b 699 411 604 218 683 379 b 738 436 726 408 733 426 b NaN NaN 729 453 714 471 l NaN NaN b NaN NaN NaN NaN NaN NaN b NaN NaN NaN NaN NaN NaN b NaN NaN NaN NaN NaN NaN l NaN NaN b NaN NaN NaN NaN NaN NaN b NaN NaN NaN NaN NaN NaN b NaN NaN NaN NaN NaN NaN b NaN NaN NaN NaN NaN NaN l NaN NaN l NaN NaN l NaN NaN l NaN NaN l NaN NaN l NaN NaN l NaN NaN l NaN NaN l NaN NaN b NaN NaN NaN NaN NaN NaN b NaN NaN NaN NaN NaN NaN b NaN NaN NaN NaN NaN NaN b NaN NaN NaN NaN NaN NaN l NaN NaN l NaN NaN b NaN NaN NaN NaN NaN NaN l NaN NaN b NaN NaN NaN NaN NaN NaN b NaN NaN NaN NaN NaN NaN l NaN NaN l NaN NaN l NaN NaN l NaN NaN l NaN NaN l NaN NaN b NaN NaN NaN NaN NaN NaN b NaN NaN NaN NaN NaN NaN b NaN NaN NaN NaN NaN NaN b NaN NaN NaN NaN NaN NaN b NaN NaN NaN NaN NaN NaN z "},"椅":{"ha":-53,"x_min":0,"x_max":0,"o":"m 1243 718 b 1553 926 1357 788 1447 857 b 1675 1100 1585 939 1599 1011 b 1713 1119 1692 1106 1701 1111 b NaN NaN 1726 NaN NaN NaN b NaN NaN NaN NaN NaN NaN b NaN NaN NaN NaN NaN NaN b NaN NaN NaN NaN NaN NaN b NaN NaN NaN NaN NaN NaN b NaN NaN NaN NaN NaN NaN l NaN NaN l NaN NaN b NaN NaN NaN NaN NaN NaN b NaN NaN NaN NaN NaN NaN b NaN NaN NaN NaN NaN NaN b NaN NaN NaN NaN NaN NaN l NaN NaN b NaN NaN NaN NaN NaN NaN b NaN NaN NaN NaN NaN NaN b NaN NaN NaN NaN NaN NaN l NaN NaN l NaN NaN l NaN NaN l NaN NaN b NaN NaN NaN NaN NaN NaN b NaN NaN NaN NaN NaN NaN b NaN NaN NaN NaN NaN NaN l NaN NaN b NaN NaN NaN NaN NaN NaN b NaN NaN NaN NaN NaN NaN b NaN NaN NaN NaN NaN NaN l NaN NaN l NaN NaN l NaN NaN l NaN NaN z "},"為":{"ha":0,"x_min":0,"x_max":0,"o":"m 69 114 b 381 247 181 114 286 160 b 296 124 368 199 343 163 b 165 200 253 88 225 104 b 238 342 156 253 194 313 b 514 333 378 263 475 299 b NaN NaN 558 367 610 NaN l NaN NaN b NaN NaN NaN NaN NaN NaN b NaN NaN NaN NaN NaN NaN l NaN NaN b NaN NaN NaN NaN NaN NaN b NaN NaN NaN NaN NaN NaN b NaN NaN NaN NaN NaN NaN b NaN NaN NaN NaN NaN NaN b NaN NaN NaN NaN NaN NaN l NaN NaN b NaN NaN NaN NaN NaN NaN b NaN NaN NaN NaN NaN NaN b NaN NaN NaN NaN NaN NaN l NaN NaN b NaN NaN NaN NaN NaN NaN b NaN NaN NaN NaN NaN NaN b NaN NaN NaN NaN NaN NaN b NaN NaN NaN NaN NaN NaN l NaN NaN b NaN NaN NaN NaN NaN NaN b NaN NaN NaN NaN NaN NaN b NaN NaN NaN NaN NaN NaN b NaN NaN NaN NaN NaN NaN b NaN NaN NaN NaN NaN NaN l NaN NaN l NaN NaN b NaN NaN NaN NaN NaN NaN z m NaN NaN b NaN NaN NaN NaN NaN NaN b NaN NaN NaN NaN NaN NaN b NaN NaN NaN NaN NaN NaN z m NaN NaN l NaN NaN l NaN NaN b NaN NaN NaN NaN NaN NaN z m NaN NaN l NaN NaN l NaN NaN b NaN NaN NaN NaN NaN NaN z m NaN NaN b NaN NaN NaN NaN NaN NaN b NaN NaN NaN NaN NaN NaN b NaN NaN NaN NaN NaN NaN b NaN NaN NaN NaN NaN NaN z m NaN NaN b NaN NaN NaN NaN NaN NaN b NaN NaN NaN NaN NaN NaN b NaN NaN NaN NaN NaN NaN b NaN NaN NaN NaN NaN NaN z m NaN NaN b NaN NaN NaN NaN NaN NaN b NaN NaN NaN NaN NaN NaN b NaN NaN NaN NaN NaN NaN b NaN NaN NaN NaN NaN NaN z "},"畏":{"ha":258,"x_min":0,"x_max":0,"o":"m 885 590 b 1182 660 954 590 1061 660 b 1274 729 1251 660 1372 729 b 1417 876 1449 729 1490 876 b 1603 1053 1442 876 1607 1053 b 1647 1051 1608 1053 1625 1051 b 1779 1119 1700 1051 1779 1067 l 2067 1119 l 2067 811 l 2067 485 l 2444 485 z m 2063 785 l 2157 785 l 2157 881 l 2157 850 z m 2304 881 l 2403 881 l 2403 760 l 2286 760 z m 2021 569 l 2021 690 l 2139 690 l 2139 569 z m 2286 690 l 2403 690 l 2403 569 l 2286 569 l 2286 646 l 2118 646 l 2118 553 b 2069 518 2081 553 2068 561 b 2115 557 1969 528 1983 531 b 2460 561 2258 601 2344 756 b 2710 499 2660 493 2681 496 b NaN NaN 2703 531 2743 599 b NaN NaN NaN NaN NaN NaN b NaN NaN NaN NaN NaN NaN b NaN NaN NaN NaN NaN NaN b NaN NaN NaN NaN NaN NaN b NaN NaN NaN NaN NaN NaN b NaN NaN NaN NaN NaN NaN l NaN NaN b NaN NaN NaN NaN NaN NaN l NaN NaN l NaN NaN l NaN NaN l NaN NaN b NaN NaN NaN NaN NaN NaN b NaN NaN NaN NaN NaN NaN b NaN NaN NaN NaN NaN NaN b NaN NaN NaN NaN NaN NaN b NaN NaN NaN NaN NaN NaN z "},"異":{"ha":0,"x_min":0,"x_max":0,"o":"m 1240 247 b 1361 50 1240 143 1267 83 b 1238 -47 1322 35 1307 -47 l 1146 -47 l 1146 74 l 1246 74 b 1315 106 1275 74 1315 78 b 1222 226 1315 132 1256 226 b 1146 160 1194 226 1179 185 l 1146 174 b 1179 244 1146 213 1179 221 b 1075 311 1179 265 1129 292 l 1164 311 b 1072 317 1060 311 1056 317 b NaN NaN 1071 317 1093 NaN b NaN NaN NaN NaN NaN NaN l NaN NaN l NaN NaN l NaN NaN b NaN NaN NaN NaN NaN NaN b NaN NaN NaN NaN NaN NaN b NaN NaN NaN NaN NaN NaN b NaN NaN NaN NaN NaN NaN b NaN NaN NaN NaN NaN NaN b NaN NaN NaN NaN NaN NaN b NaN NaN NaN NaN NaN NaN l NaN NaN l NaN NaN l NaN NaN l NaN NaN l NaN NaN l NaN NaN l NaN NaN l NaN NaN l NaN NaN l NaN NaN l NaN NaN l NaN NaN l NaN NaN l NaN NaN l NaN NaN l NaN NaN l NaN NaN l NaN NaN l NaN NaN l NaN NaN l NaN NaN l NaN NaN l NaN NaN l NaN NaN l NaN NaN l NaN NaN l NaN NaN l NaN NaN l NaN NaN l NaN NaN l NaN NaN l NaN NaN l NaN NaN b NaN NaN NaN NaN NaN NaN l NaN NaN l NaN NaN l NaN NaN l NaN NaN l NaN NaN z m NaN NaN b NaN NaN NaN NaN NaN NaN b NaN NaN NaN NaN NaN NaN l NaN NaN l NaN NaN l NaN NaN z m NaN NaN l NaN NaN l NaN NaN l NaN NaN z m NaN NaN l NaN NaN l NaN NaN l NaN NaN z m NaN NaN b NaN NaN NaN NaN NaN NaN b NaN NaN NaN NaN NaN NaN l NaN NaN l NaN NaN l NaN NaN l NaN NaN l NaN NaN l NaN NaN b NaN NaN NaN NaN NaN NaN l NaN NaN z m NaN NaN z m NaN NaN b NaN NaN NaN NaN NaN NaN b NaN NaN NaN NaN NaN NaN b NaN NaN NaN NaN NaN NaN b NaN NaN NaN NaN NaN NaN b NaN NaN NaN NaN NaN NaN z "},"移":{"ha":-49,"x_min":0,"x_max":0,"o":"m 572 -33 b 1275 481 851 -107 1156 94 l 1260 481 l 1260 506 l 1269 506 l 1269 518 l 1276 518 l 1276 542 l 1236 542 b 1207 571 1254 547 1235 571 b 1401 642 1232 571 1326 642 b 1485 769 1504 642 1553 769 l 1428 769 b 1476 818 1444 796 1469 797 b 1275 967 1489 858 1308 988 b 1256 813 1250 950 1282 899 b 1061 569 1231 726 1158 640 b 1299 608 1139 550 1225 561 b 1228 613 1301 607 1283 606 b NaN NaN 1199 654 1189 NaN b NaN NaN NaN NaN NaN NaN b NaN NaN NaN NaN NaN NaN b NaN NaN NaN NaN NaN NaN b NaN NaN NaN NaN NaN NaN b NaN NaN NaN NaN NaN NaN b NaN NaN NaN NaN NaN NaN b NaN NaN NaN NaN NaN NaN b NaN NaN NaN NaN NaN NaN z m NaN NaN b NaN NaN NaN NaN NaN NaN b NaN NaN NaN NaN NaN NaN l NaN NaN b NaN NaN NaN NaN NaN NaN b NaN NaN NaN NaN NaN NaN z m NaN NaN "},"維":{"ha":0,"x_min":0,"x_max":0,"o":"l 74 0 l 74 669 l 107 669 l 107 1069 l 100 1069 l 100 1261 l 206 1261 b 276 1293 236 1261 276 1265 b 183 1414 276 1319 217 1414 b 100 1342 154 1414 138 1365 l 100 1522 l 206 1522 b 276 1553 236 1522 276 1526 b 183 1675 276 1581 217 1675 b 100 1603 154 1675 138 1625 b NaN NaN 190 1717 86 1789 b NaN NaN NaN NaN NaN NaN b NaN NaN NaN NaN NaN NaN b NaN NaN NaN NaN NaN NaN b NaN NaN NaN NaN NaN NaN b NaN NaN NaN NaN NaN NaN b NaN NaN NaN NaN NaN NaN b NaN NaN NaN NaN NaN NaN b NaN NaN NaN NaN NaN NaN l NaN NaN b NaN NaN NaN NaN NaN NaN b NaN NaN NaN NaN NaN NaN m NaN NaN z m NaN NaN l NaN NaN l NaN NaN l NaN NaN z m NaN NaN l NaN NaN l NaN NaN l NaN NaN l NaN NaN l NaN NaN z "},"緯":{"ha":79,"x_min":0,"x_max":0,"o":"m 1243 942 b 1071 894 1094 942 1071 926 b NaN NaN 1071 871 1046 NaN l NaN NaN b NaN NaN NaN NaN NaN NaN b NaN NaN NaN NaN NaN NaN b NaN NaN NaN NaN NaN NaN l NaN NaN b NaN NaN NaN NaN NaN NaN b NaN NaN NaN NaN NaN NaN b NaN NaN NaN NaN NaN NaN z m NaN NaN l NaN NaN b NaN NaN NaN NaN NaN NaN b NaN NaN NaN NaN NaN NaN b NaN NaN NaN NaN NaN NaN b NaN NaN NaN NaN NaN NaN b NaN NaN NaN NaN NaN NaN b NaN NaN NaN NaN NaN NaN l NaN NaN b NaN NaN NaN NaN NaN NaN b NaN NaN NaN NaN NaN NaN b NaN NaN NaN NaN NaN NaN z m NaN NaN l NaN NaN l NaN NaN l NaN NaN b NaN NaN NaN NaN NaN NaN b NaN NaN NaN NaN NaN NaN l NaN NaN b NaN NaN NaN NaN NaN NaN b NaN NaN NaN NaN NaN NaN b NaN NaN NaN NaN NaN NaN l NaN NaN b NaN NaN NaN NaN NaN NaN b NaN NaN NaN NaN NaN NaN l NaN NaN l NaN NaN b NaN NaN NaN NaN NaN NaN z m NaN NaN l NaN NaN l NaN NaN l NaN NaN b NaN NaN NaN NaN NaN NaN b NaN NaN NaN NaN NaN NaN b NaN NaN NaN NaN NaN NaN b NaN NaN NaN NaN NaN NaN b NaN NaN NaN NaN NaN NaN b NaN NaN NaN NaN NaN NaN b NaN NaN NaN NaN NaN NaN b NaN NaN NaN NaN NaN NaN z m NaN NaN "},"胃":{"ha":0,"x_min":0,"x_max":0,"o":"l 1018 0 l 1018 1178 l 572 1178 b 353 1233 521 1217 375 1258 b 397 1228 357 1231 375 1228 b 435 1231 408 1228 421 1229 l 435 849 l 611 849 l 611 1149 l 578 1149 l 351 1149 b 169 1213 314 1178 222 1208 l 169 1218 l 686 1218 b 542 1347 686 1254 576 1347 m -43 1092 l 33 1092 l 33 1242 b 50 1149 42 1218 50 1189 l 50 1139 z m 226 1139 l 226 1149 b 258 1221 226 1189 258 1196 b 244 1242 258 1226 254 1233 l 399 1242 l 399 1139 z m -122 967 l -122 1069 l 50 1069 l 50 967 z m 226 967 l 226 1069 l 399 1069 l 399 967 l -11 967 l -11 675 l 283 675 l 283 613 l -17 613 z m 283 543 l 283 479 l -17 479 l -17 543 z "},"萎":{"ha":-54,"x_min":0,"x_max":0,"o":"l -137 0 l -137 1128 l 461 1128 l 461 929 b 492 989 467 958 492 968 b 485 1004 492 993 489 999 b 379 1165 342 1058 357 1113 b 404 1233 406 1186 415 1222 b 506 1151 428 1243 453 1206 b NaN NaN 546 NaN NaN NaN b NaN NaN NaN NaN NaN NaN b NaN NaN NaN NaN NaN NaN b NaN NaN NaN NaN NaN NaN b NaN NaN NaN NaN NaN NaN b NaN NaN NaN NaN NaN NaN l NaN NaN b NaN NaN NaN NaN NaN NaN b NaN NaN NaN NaN NaN NaN b NaN NaN NaN NaN NaN NaN b NaN NaN NaN NaN NaN NaN l NaN NaN l NaN NaN b NaN NaN NaN NaN NaN NaN b NaN NaN NaN NaN NaN NaN b NaN NaN NaN NaN NaN NaN l NaN NaN l NaN NaN b NaN NaN NaN NaN NaN NaN b NaN NaN NaN NaN NaN NaN b NaN NaN NaN NaN NaN NaN b NaN NaN NaN NaN NaN NaN b NaN NaN NaN NaN NaN NaN b NaN NaN NaN NaN NaN NaN b NaN NaN NaN NaN NaN NaN b NaN NaN NaN NaN NaN NaN b NaN NaN NaN NaN NaN NaN b NaN NaN NaN NaN NaN NaN b NaN NaN NaN NaN NaN NaN b NaN NaN NaN NaN NaN NaN m NaN NaN b NaN NaN NaN NaN NaN NaN b NaN NaN NaN NaN NaN NaN b NaN NaN NaN NaN NaN NaN l NaN NaN b NaN NaN NaN NaN NaN NaN b NaN NaN NaN NaN NaN NaN z m NaN NaN b NaN NaN NaN NaN NaN NaN b NaN NaN NaN NaN NaN NaN l NaN NaN l NaN NaN b NaN NaN NaN NaN NaN NaN z "},"⾐":{"ha":0,"x_min":0,"x_max":0,"o":"m 103 344 b 450 431 232 308 351 349 l 450 208 b 300 196 397 203 347 199 b 253 158 263 193 249 201 b 349 -51 258 58 303 -56 b 382 -12 369 -50 379 -29 b 404 15 383 1 390 13 b 808 299 585 47 738 131 b 625 239 744 272 683 254 l 625 426 b 658 497 625 465 658 474 b 567 560 658 517 615 542 b 621 650 588 588 606 618 b 683 699 639 685 672 678 b 650 772 690 713 675 740 l 721 772 b 579 510 232 767 579 461 b 628 600 579 572 628 600 b 293 846 503 642 389 729 b 456 932 363 853 418 890 b 486 942 464 943 475 946 b 532 954 500 936 522 938 b 394 1114 551 990 475 1071 b 344 1089 360 1133 357 1121 b 240 915 315 1011 285 963 b 90 1210 181 1003 129 1103 l -165 1210 l -165 1344 b -133 1415 -165 1383 -133 1392 l -268 1415 l -268 1118 l -99 1118 b -485 NaN -253 968 -396 819 z "},"衣":{"ha":0,"x_min":0,"x_max":0,"o":"m 103 344 b 450 431 232 308 351 349 l 450 208 b 300 196 397 203 347 199 b 253 158 263 193 249 201 b 349 -51 258 58 303 -56 b 382 -12 369 -50 379 -29 b 404 15 383 1 390 13 b 808 299 585 47 738 131 b 625 239 744 272 683 254 l 625 426 b 658 497 625 465 658 474 b 567 560 658 517 615 542 b 621 650 588 588 606 618 b 683 699 639 685 672 678 b 650 772 690 713 675 740 l 721 772 b 579 510 232 767 579 461 b 628 600 579 572 628 600 b 293 846 503 642 389 729 b 456 932 363 853 418 890 b 486 942 464 943 475 946 b 532 954 500 936 522 938 b 394 1114 551 990 475 1071 b 344 1089 360 1133 357 1121 b 240 915 315 1011 285 963 b 90 1210 181 1003 129 1103 l -165 1210 l -165 1344 b -133 1415 -165 1383 -133 1392 l -268 1415 l -268 1118 l -99 1118 b -485 NaN -253 968 -396 819 z "},"謂":{"ha":0,"x_min":0,"x_max":0,"o":"l 138 0 l 138 317 l 138 247 b 138 151 138 181 119 164 b 174 146 142 149 156 147 b 207 13 178 121 207 82 l 207 -385 b 290 -547 207 -489 233 -547 b 274 NaN 246 -547 274 NaN l 282 NaN l 282 NaN b 315 NaN 282 NaN 315 NaN b 171 NaN 315 NaN 206 NaN l -56 NaN l -56 NaN l -17 NaN l -17 NaN l 25 NaN l 25 NaN l -108 NaN l 196 NaN l 196 NaN l 269 NaN b 281 NaN 275 NaN 281 NaN l 190 NaN m 490 NaN l 490 NaN l 399 NaN z m 265 NaN l 265 NaN l 303 NaN l 303 NaN l 213 NaN l 213 NaN z m 513 NaN l 513 NaN l 421 NaN l 421 NaN z m 985 NaN l 1281 NaN b 1158 NaN 1243 NaN 1226 NaN l 1071 NaN b NaN NaN 1044 NaN NaN NaN b NaN NaN NaN NaN NaN NaN z m NaN NaN l NaN NaN l NaN NaN l NaN NaN z m NaN NaN z m NaN NaN l NaN NaN l NaN NaN l NaN NaN "},"違":{"ha":0,"x_min":0,"x_max":0,"o":"b 122 1246 0 1299 28 1246 b 67 1182 93 1246 67 1232 b NaN NaN 67 1160 33 NaN b NaN NaN NaN NaN NaN NaN b NaN NaN NaN NaN NaN NaN l NaN NaN b NaN NaN NaN NaN NaN NaN b NaN NaN NaN NaN NaN NaN b NaN NaN NaN NaN NaN NaN b NaN NaN NaN NaN NaN NaN b NaN NaN NaN NaN NaN NaN b NaN NaN NaN NaN NaN NaN l NaN NaN b NaN NaN NaN NaN NaN NaN b NaN NaN NaN NaN NaN NaN b NaN NaN NaN NaN NaN NaN b NaN NaN NaN NaN NaN NaN l NaN NaN b NaN NaN NaN NaN NaN NaN l NaN NaN l NaN NaN l NaN NaN l NaN NaN l NaN NaN l NaN NaN l NaN NaN l NaN NaN l NaN NaN b NaN NaN NaN NaN NaN NaN b NaN NaN NaN NaN NaN NaN b NaN NaN NaN NaN NaN NaN l NaN NaN l NaN NaN l NaN NaN b NaN NaN NaN NaN NaN NaN b NaN NaN NaN NaN NaN NaN l NaN NaN l NaN NaN l NaN NaN l NaN NaN l NaN NaN l NaN NaN b NaN NaN NaN NaN NaN NaN b NaN NaN NaN NaN NaN NaN b NaN NaN NaN NaN NaN NaN b NaN NaN NaN NaN NaN NaN b NaN NaN NaN NaN NaN NaN b NaN NaN NaN NaN NaN NaN l NaN NaN b NaN NaN NaN NaN NaN NaN b NaN NaN NaN NaN NaN NaN l NaN NaN b NaN NaN NaN NaN NaN NaN m NaN NaN l NaN NaN l NaN NaN l NaN NaN z m NaN NaN b NaN NaN NaN NaN NaN NaN l NaN NaN b NaN NaN NaN NaN NaN NaN z m NaN NaN l NaN NaN b NaN NaN NaN NaN NaN NaN b NaN NaN NaN NaN NaN NaN l NaN NaN l NaN NaN l NaN NaN l NaN NaN b NaN NaN NaN NaN NaN NaN b NaN NaN NaN NaN NaN NaN b NaN NaN NaN NaN NaN NaN b NaN NaN NaN NaN NaN NaN l NaN NaN l NaN NaN l NaN NaN b NaN NaN NaN NaN NaN NaN b NaN NaN NaN NaN NaN NaN "},"遺":{"ha":0,"x_min":0,"x_max":0,"o":"m 247 -50 b 264 15 251 -25 258 -3 b 332 157 338 28 361 103 b 210 229 313 190 268 218 b 243 276 229 240 243 256 l 243 411 b 275 506 243 467 275 465 b 196 600 275 528 236 569 l 336 600 b 407 631 365 600 407 604 b 313 751 407 657 347 751 b 189 669 275 751 258 669 l 58 669 l 58 743 l 96 743 b -47 871 96 779 -14 871 b -153 790 -82 871 -99 804 l -179 790 l -179 738 b -179 642 -179 669 -196 654 b -181 669 -179 650 -179 660 b -74 767 -118 667 -81 714 b -17 665 -69 732 -42 665 b 78 688 -1 665 6 685 b 110 544 72 664 110 624 l 110 371 b 110 276 110 304 93 289 b 140 271 114 274 125 271 z m 204 7 b 125 -42 185 -17 163 -42 l 26 -42 z m 119 -176 l 133 -176 l 133 -19 l -40 -19 l -40 -74 l -40 -247 z m 133 -317 b 132 -335 133 -322 132 -329 l -40 -335 l -40 -161 b -164 -387 -207 -360 -186 -357 b NaN NaN -129 -432 -99 NaN l NaN NaN b NaN NaN NaN NaN NaN NaN b NaN NaN NaN NaN NaN NaN b NaN NaN NaN NaN NaN NaN b NaN NaN NaN NaN NaN NaN b NaN NaN NaN NaN NaN NaN b NaN NaN NaN NaN NaN NaN z "},"医":{"ha":0,"x_min":0,"x_max":0,"o":"b 289 481 242 279 214 404 b NaN NaN 449 NaN NaN NaN b NaN NaN NaN NaN NaN NaN b NaN NaN NaN NaN NaN NaN l NaN NaN l NaN NaN b NaN NaN NaN NaN NaN NaN b NaN NaN NaN NaN NaN NaN b NaN NaN NaN NaN NaN NaN l NaN NaN l NaN NaN b NaN NaN NaN NaN NaN NaN b NaN NaN NaN NaN NaN NaN b NaN NaN NaN NaN NaN NaN b NaN NaN NaN NaN NaN NaN b NaN NaN NaN NaN NaN NaN b NaN NaN NaN NaN NaN NaN b NaN NaN NaN NaN NaN NaN m NaN NaN b NaN NaN NaN NaN NaN NaN b NaN NaN NaN NaN NaN NaN b NaN NaN NaN NaN NaN NaN l NaN NaN b NaN NaN NaN NaN NaN NaN z "},"井":{"ha":0,"x_min":0,"x_max":0,"o":"b 85 1025 308 424 390 686 b 665 1261 283 972 676 1129 b 610 1049 533 1047 651 1049 b NaN NaN 571 1050 533 NaN m NaN NaN l NaN NaN l NaN NaN l NaN NaN b NaN NaN NaN NaN NaN NaN z "},"亥":{"ha":0,"x_min":0,"x_max":0,"o":"l 190 0 l 190 256 b 71 64 168 182 132 117 b -136 14 10 72 -65 58 b 38 -100 -54 4 -10 -35 b 117 -183 65 -137 92 -175 b -215 -294 24 -229 -86 -268 b 650 13 -31 -392 421 -279 b 714 44 664 31 706 18 b 554 176 724 79 640 151 b 504 150 522 185 518 171 b 179 -150 433 44 329 -64 b 165 18 213 -99 204 -21 b 335 147 261 39 306 97 b 364 163 342 160 351 164 b 407 183 379 161 401 165 b 358 256 413 204 392 231 b 265 376 358 282 299 376 b 142 293 226 376 210 293 l -114 293 l -114 342 b -82 413 -114 381 -82 389 b -32 292 -106 413 -65 292 m 656 -431 b 729 -529 685 -456 707 -487 b 825 -632 758 -585 789 -640 b 897 -446 894 -617 925 -512 b 756 -353 878 -397 824 -362 b 863 -240 794 -318 829 -281 b 926 -210 876 -222 918 -236 b 772 -74 938 -175 858 -101 b 721 -97 740 -62 736 -78 b -64 -579 565 -310 324 -506 b 656 -431 131 -654 422 -593 z "},"域":{"ha":0,"x_min":0,"x_max":0,"o":"m 1285 367 b 1165 272 1336 356 1240 331 b 1221 228 1196 257 1207 242 b 1351 315 1240 265 1294 293 b 1513 157 1406 329 1444 242 b NaN NaN 1546 NaN NaN NaN l NaN NaN b NaN NaN NaN NaN NaN NaN b NaN NaN NaN NaN NaN NaN b NaN NaN NaN NaN NaN NaN b NaN NaN NaN NaN NaN NaN b NaN NaN NaN NaN NaN NaN b NaN NaN NaN NaN NaN NaN b NaN NaN NaN NaN NaN NaN b NaN NaN NaN NaN NaN NaN b NaN NaN NaN NaN NaN NaN l NaN NaN b NaN NaN NaN NaN NaN NaN b NaN NaN NaN NaN NaN NaN b NaN NaN NaN NaN NaN NaN b NaN NaN NaN NaN NaN NaN b NaN NaN NaN NaN NaN NaN b NaN NaN NaN NaN NaN NaN z m NaN NaN b NaN NaN NaN NaN NaN NaN b NaN NaN NaN NaN NaN NaN b NaN NaN NaN NaN NaN NaN b NaN NaN NaN NaN NaN NaN l NaN NaN l NaN NaN l NaN NaN l NaN NaN z m NaN NaN b NaN NaN NaN NaN NaN NaN b NaN NaN NaN NaN NaN NaN b NaN NaN NaN NaN NaN NaN z "},"育":{"ha":101,"x_min":0,"x_max":0,"o":"m 308 1028 b 258 907 185 1028 225 907 l 268 907 l 268 1135 b 256 1122 265 1135 256 1132 b 231 1118 256 1117 244 1118 b 239 1086 238 1118 239 1075 b NaN 1110 239 1107 256 1110 b NaN 1133 NaN 1121 NaN 1129 b NaN 1010 NaN 1108 NaN 1071 l NaN 628 l NaN 628 l NaN 872 l NaN 872 l NaN 872 b NaN 915 NaN 888 NaN 904 b NaN 1026 NaN 938 NaN 974 b NaN 999 NaN 1008 NaN 1000 b NaN 1099 NaN 1024 NaN 1057 b NaN 1135 NaN 1107 NaN 1119 l NaN 1135 l NaN 1153 b NaN 1224 NaN 1192 NaN 1200 l NaN 1224 l NaN 654 l NaN 654 l NaN 592 l NaN 592 z m NaN 522 l NaN 458 l NaN 458 l NaN 522 z "},"郁":{"ha":11,"x_min":0,"x_max":0,"o":"l 0 222 l 76 222 l 76 260 b 167 168 121 243 161 225 b 224 126 168 146 181 126 b NaN NaN 604 235 536 NaN l NaN NaN b NaN NaN NaN NaN NaN NaN b NaN NaN NaN NaN NaN NaN l NaN NaN b NaN NaN NaN NaN NaN NaN b NaN NaN NaN NaN NaN NaN l NaN NaN l NaN NaN b NaN NaN NaN NaN NaN NaN b NaN NaN NaN NaN NaN NaN l NaN NaN b NaN NaN NaN NaN NaN NaN b NaN NaN NaN NaN NaN NaN b NaN NaN NaN NaN NaN NaN b NaN NaN NaN NaN NaN NaN b NaN NaN NaN NaN NaN NaN m NaN NaN b NaN NaN NaN NaN NaN NaN b NaN NaN NaN NaN NaN NaN l NaN NaN l NaN NaN b NaN NaN NaN NaN NaN NaN b NaN NaN NaN NaN NaN NaN z m NaN NaN l NaN NaN b NaN NaN NaN NaN NaN NaN l NaN NaN b NaN NaN NaN NaN NaN NaN b NaN NaN NaN NaN NaN NaN l NaN NaN l NaN NaN l NaN NaN l NaN NaN l NaN NaN z m NaN NaN l NaN NaN l NaN NaN l NaN NaN z m NaN NaN l NaN NaN b NaN NaN NaN NaN NaN NaN l NaN NaN z "},"磯":{"ha":0,"x_min":0,"x_max":0,"o":"m 1246 635 b 1215 703 1186 672 1169 700 b NaN NaN 1264 NaN NaN NaN b NaN NaN NaN NaN NaN NaN b NaN NaN NaN NaN NaN NaN b NaN NaN NaN NaN NaN NaN b NaN NaN NaN NaN NaN NaN b NaN NaN NaN NaN NaN NaN b NaN NaN NaN NaN NaN NaN b NaN NaN NaN NaN NaN NaN b NaN NaN NaN NaN NaN NaN b NaN NaN NaN NaN NaN NaN b NaN NaN NaN NaN NaN NaN b NaN NaN NaN NaN NaN NaN b NaN NaN NaN NaN NaN NaN b NaN NaN NaN NaN NaN NaN b NaN NaN NaN NaN NaN NaN b NaN NaN NaN NaN NaN NaN b NaN NaN NaN NaN NaN NaN b NaN NaN NaN NaN NaN NaN l NaN NaN b NaN NaN NaN NaN NaN NaN b NaN NaN NaN NaN NaN NaN b NaN NaN NaN NaN NaN NaN b NaN NaN NaN NaN NaN NaN b NaN NaN NaN NaN NaN NaN b NaN NaN NaN NaN NaN NaN b NaN NaN NaN NaN NaN NaN b NaN NaN NaN NaN NaN NaN b NaN NaN NaN NaN NaN NaN b NaN NaN NaN NaN NaN NaN b NaN NaN NaN NaN NaN NaN b NaN NaN NaN NaN NaN NaN b NaN NaN NaN NaN NaN NaN l NaN NaN b NaN NaN NaN NaN NaN NaN l NaN NaN b NaN NaN NaN NaN NaN NaN b NaN NaN NaN NaN NaN NaN b NaN NaN NaN NaN NaN NaN b NaN NaN NaN NaN NaN NaN b NaN NaN NaN NaN NaN NaN b NaN NaN NaN NaN NaN NaN b NaN NaN NaN NaN NaN NaN b NaN NaN NaN NaN NaN NaN b NaN NaN NaN NaN NaN NaN b NaN NaN NaN NaN NaN NaN b NaN NaN NaN NaN NaN NaN b NaN NaN NaN NaN NaN NaN l NaN NaN b NaN NaN NaN NaN NaN NaN b NaN NaN NaN NaN NaN NaN l NaN NaN b NaN NaN NaN NaN NaN NaN b NaN NaN NaN NaN NaN NaN b NaN NaN NaN NaN NaN NaN z m NaN NaN b NaN NaN NaN NaN NaN NaN b NaN NaN NaN NaN NaN NaN b NaN NaN NaN NaN NaN NaN b NaN NaN NaN NaN NaN NaN b NaN NaN NaN NaN NaN NaN b NaN NaN NaN NaN NaN NaN b NaN NaN NaN NaN NaN NaN b NaN NaN NaN NaN NaN NaN b NaN NaN NaN NaN NaN NaN b NaN NaN NaN NaN NaN NaN b NaN NaN NaN NaN NaN NaN b NaN NaN NaN NaN NaN NaN z m NaN NaN b NaN NaN NaN NaN NaN NaN b NaN NaN NaN NaN NaN NaN b NaN NaN NaN NaN NaN NaN b NaN NaN NaN NaN NaN NaN l NaN NaN b NaN NaN NaN NaN NaN NaN b NaN NaN NaN NaN NaN NaN b NaN NaN NaN NaN NaN NaN l NaN NaN b NaN NaN NaN NaN NaN NaN b NaN NaN NaN NaN NaN NaN b NaN NaN NaN NaN NaN NaN b NaN NaN NaN NaN NaN NaN b NaN NaN NaN NaN NaN NaN b NaN NaN NaN NaN NaN NaN z m NaN NaN b NaN NaN NaN NaN NaN NaN b NaN NaN NaN NaN NaN NaN b NaN NaN NaN NaN NaN NaN z m NaN NaN b NaN NaN NaN NaN NaN NaN b NaN NaN NaN NaN NaN NaN b NaN NaN NaN NaN NaN NaN b NaN NaN NaN NaN NaN NaN b NaN NaN NaN NaN NaN NaN l NaN NaN l NaN NaN l NaN NaN l NaN NaN l NaN NaN z m NaN NaN b NaN NaN NaN NaN NaN NaN b NaN NaN NaN NaN NaN NaN b NaN NaN NaN NaN NaN NaN b NaN NaN NaN NaN NaN NaN b NaN NaN NaN NaN NaN NaN l NaN NaN z m NaN NaN b NaN NaN NaN NaN NaN NaN l NaN NaN b NaN NaN NaN NaN NaN NaN z m NaN NaN b NaN NaN NaN NaN NaN NaN b NaN NaN NaN NaN NaN NaN b NaN NaN NaN NaN NaN NaN b NaN NaN NaN NaN NaN NaN b NaN NaN NaN NaN NaN NaN z "},"⼀":{"ha":0,"x_min":0,"x_max":0,"o":""},"一":{"ha":0,"x_min":0,"x_max":0,"o":""},"壱":{"ha":0,"x_min":0,"x_max":0,"o":"b NaN NaN -143 0 -228 NaN l NaN NaN b NaN NaN NaN NaN NaN NaN b NaN NaN NaN NaN NaN NaN b NaN NaN NaN NaN NaN NaN b NaN NaN NaN NaN NaN NaN b NaN NaN NaN NaN NaN NaN b NaN NaN NaN NaN NaN NaN b NaN NaN NaN NaN NaN NaN b NaN NaN NaN NaN NaN NaN l NaN NaN l NaN NaN b NaN NaN NaN NaN NaN NaN b NaN NaN NaN NaN NaN NaN b NaN NaN NaN NaN NaN NaN b NaN NaN NaN NaN NaN NaN b NaN NaN NaN NaN NaN NaN b NaN NaN NaN NaN NaN NaN b NaN NaN NaN NaN NaN NaN "},"逸":{"ha":0,"x_min":0,"x_max":0,"o":"b 264 111 238 53 254 92 b 406 197 344 122 399 153 b 358 290 411 236 388 268 b 329 492 313 324 396 443 b 240 294 329 492 315 364 b 197 274 229 285 217 274 b 169 344 174 274 169 301 l 169 413 b 201 476 169 447 196 458 b 322 544 253 478 322 496 b 178 674 322 581 213 674 l 144 674 b 226 756 179 697 208 726 b 257 793 239 769 254 775 b 249 697 226 767 203 749 b NaN NaN 231 625 NaN NaN b NaN NaN NaN NaN NaN NaN b NaN NaN NaN NaN NaN NaN b NaN NaN NaN NaN NaN NaN b NaN NaN NaN NaN NaN NaN b NaN NaN NaN NaN NaN NaN l NaN NaN b NaN NaN NaN NaN NaN NaN b NaN NaN NaN NaN NaN NaN b NaN NaN NaN NaN NaN NaN l NaN NaN l NaN NaN l NaN NaN l NaN NaN l NaN NaN l NaN NaN l NaN NaN l NaN NaN l NaN NaN l NaN NaN l NaN NaN l NaN NaN b NaN NaN NaN NaN NaN NaN b NaN NaN NaN NaN NaN NaN b NaN NaN NaN NaN NaN NaN b NaN NaN NaN NaN NaN NaN l NaN NaN m NaN NaN b NaN NaN NaN NaN NaN NaN l NaN NaN l NaN NaN l NaN NaN l NaN NaN l NaN NaN l NaN NaN l NaN NaN l NaN NaN l NaN NaN l NaN NaN l NaN NaN l NaN NaN l NaN NaN l NaN NaN l NaN NaN l NaN NaN l NaN NaN l NaN NaN l NaN NaN l NaN NaN l NaN NaN z m NaN NaN b NaN NaN NaN NaN NaN NaN b NaN NaN NaN NaN NaN NaN l NaN NaN b NaN NaN NaN NaN NaN NaN l NaN NaN b NaN NaN NaN NaN NaN NaN b NaN NaN NaN NaN NaN NaN b NaN NaN NaN NaN NaN NaN z "},"稲":{"ha":0,"x_min":0,"x_max":0,"o":"m 1185 1015 b 1215 1082 1214 1033 1228 1072 b 1353 935 1240 1094 1274 1019 b 1381 883 1386 904 1397 900 b 1197 403 1364 779 1267 613 b 1072 1015 1182 531 1036 819 b NaN NaN 1214 NaN NaN NaN z m NaN NaN l NaN NaN b NaN NaN NaN NaN NaN NaN b NaN NaN NaN NaN NaN NaN l NaN NaN b NaN NaN NaN NaN NaN NaN b NaN NaN NaN NaN NaN NaN l NaN NaN l NaN NaN l NaN NaN b NaN NaN NaN NaN NaN NaN b NaN NaN NaN NaN NaN NaN b NaN NaN NaN NaN NaN NaN b NaN NaN NaN NaN NaN NaN l NaN NaN l NaN NaN z m NaN NaN z m NaN NaN b NaN NaN NaN NaN NaN NaN b NaN NaN NaN NaN NaN NaN b NaN NaN NaN NaN NaN NaN b NaN NaN NaN NaN NaN NaN b NaN NaN NaN NaN NaN NaN b NaN NaN NaN NaN NaN NaN b NaN NaN NaN NaN NaN NaN b NaN NaN NaN NaN NaN NaN b NaN NaN NaN NaN NaN NaN b NaN NaN NaN NaN NaN NaN z m NaN NaN b NaN NaN NaN NaN NaN NaN b NaN NaN NaN NaN NaN NaN b NaN NaN NaN NaN NaN NaN b NaN NaN NaN NaN NaN NaN z m NaN NaN b NaN NaN NaN NaN NaN NaN b NaN NaN NaN NaN NaN NaN l NaN NaN b NaN NaN NaN NaN NaN NaN b NaN NaN NaN NaN NaN NaN b NaN NaN NaN NaN NaN NaN l NaN NaN l NaN NaN b NaN NaN NaN NaN NaN NaN l NaN NaN l NaN NaN l NaN NaN l NaN NaN l NaN NaN z m NaN NaN l NaN NaN l NaN NaN l NaN NaN z "},"芋":{"ha":-53,"x_min":0,"x_max":0,"o":"b 267 -24 310 0 225 -24 b NaN NaN 146 -24 178 NaN l NaN NaN l NaN NaN l NaN NaN l NaN NaN l NaN NaN l NaN NaN l NaN NaN l NaN NaN l NaN NaN l NaN NaN b NaN NaN NaN NaN NaN NaN b NaN NaN NaN NaN NaN NaN m NaN NaN b NaN NaN NaN NaN NaN NaN b NaN NaN NaN NaN NaN NaN l NaN NaN l NaN NaN l NaN NaN l NaN NaN l NaN NaN l NaN NaN l NaN NaN l NaN NaN l NaN NaN l NaN NaN z "},"允":{"ha":0,"x_min":0,"x_max":0,"o":"m 536 1064 b 367 836 494 978 436 901 b 250 835 319 835 278 835 b 200 799 211 833 199 843 b 229 1243 211 814 213 1019 b 254 1497 263 1432 346 1475 b 185 1642 175 1535 179 1600 b 433 1468 278 1633 343 1624 b 514 1357 576 1289 544 1328 b 419 1149 476 1383 438 1276 b 444 1124 411 1031 406 1079 b 586 1213 494 1163 553 1185 b 642 1081 582 1224 603 1242 b NaN NaN 794 1044 778 NaN b NaN NaN NaN NaN NaN NaN z m NaN NaN b NaN NaN NaN NaN NaN NaN b NaN NaN NaN NaN NaN NaN b NaN NaN NaN NaN NaN NaN b NaN NaN NaN NaN NaN NaN l NaN NaN l NaN NaN b NaN NaN NaN NaN NaN NaN b NaN NaN NaN NaN NaN NaN b NaN NaN NaN NaN NaN NaN z m NaN NaN b NaN NaN NaN NaN NaN NaN b NaN NaN NaN NaN NaN NaN b NaN NaN NaN NaN NaN NaN z "},"印":{"ha":0,"x_min":0,"x_max":0,"o":"m 917 275 b NaN NaN 1367 275 1299 NaN l NaN NaN b NaN NaN NaN NaN NaN NaN b NaN NaN NaN NaN NaN NaN b NaN NaN NaN NaN NaN NaN b NaN NaN NaN NaN NaN NaN b NaN NaN NaN NaN NaN NaN l NaN NaN l NaN NaN l NaN NaN l NaN NaN l NaN NaN l NaN NaN l NaN NaN l NaN NaN b NaN NaN NaN NaN NaN NaN b NaN NaN NaN NaN NaN NaN b NaN NaN NaN NaN NaN NaN b NaN NaN NaN NaN NaN NaN l NaN NaN l NaN NaN l NaN NaN l NaN NaN b NaN NaN NaN NaN NaN NaN z "},"咽":{"ha":207,"x_min":0,"x_max":0,"o":"l 140 0 l 140 1168 l 1290 1168 l 1290 831 l 1290 779 l 1329 779 l 1329 633 l 407 633 l 407 567 l 389 567 l 389 551 l 407 551 l 407 599 l 819 599 l 819 597 l 764 597 l 764 583 l 750 583 l 750 1467 b 783 1561 750 1522 783 1521 b 640 1690 783 1597 674 1690 m 575 1201 b 506 1267 556 1235 526 1267 b 447 1215 483 1267 469 1239 b 479 1318 450 1249 450 1279 b 450 1346 513 1299 490 1343 b 278 1346 361 1347 318 1347 b 260 1233 239 1296 244 1264 b NaN NaN 264 NaN NaN NaN l NaN NaN l NaN NaN z m NaN NaN b NaN NaN NaN NaN NaN NaN b NaN NaN NaN NaN NaN NaN l NaN NaN l NaN NaN l NaN NaN l NaN NaN b NaN NaN NaN NaN NaN NaN b NaN NaN NaN NaN NaN NaN l NaN NaN l NaN NaN l NaN NaN b NaN NaN NaN NaN NaN NaN b NaN NaN NaN NaN NaN NaN b NaN NaN NaN NaN NaN NaN b NaN NaN NaN NaN NaN NaN b NaN NaN NaN NaN NaN NaN z m NaN NaN l NaN NaN l NaN NaN l NaN NaN l NaN NaN l NaN NaN z m NaN NaN b NaN NaN NaN NaN NaN NaN b NaN NaN NaN NaN NaN NaN z m NaN NaN b NaN NaN NaN NaN NaN NaN b NaN NaN NaN NaN NaN NaN b NaN NaN NaN NaN NaN NaN b NaN NaN NaN NaN NaN NaN b NaN NaN NaN NaN NaN NaN b NaN NaN NaN NaN NaN NaN l NaN NaN l NaN NaN b NaN NaN NaN NaN NaN NaN b NaN NaN NaN NaN NaN NaN b NaN NaN NaN NaN NaN NaN l NaN NaN l NaN NaN l NaN NaN l NaN NaN l NaN NaN l NaN NaN z "},"員":{"ha":0,"x_min":0,"x_max":0,"o":"m 857 842 l 857 838 l 910 838 l 910 889 b 943 983 910 944 943 943 b 799 1113 943 1019 833 1113 l 799 861 l 722 861 b 722 767 722 794 706 779 b 767 760 726 763 744 760 b 896 819 815 760 889 775 b 900 781 893 797 889 788 l 574 781 l 574 938 l 894 938 l 894 863 l 568 863 z m 136 -89 b 599 -12 242 -156 451 -157 b 708 -121 615 4 647 -53 b NaN NaN 750 NaN NaN NaN l NaN NaN b NaN NaN NaN NaN NaN NaN b NaN NaN NaN NaN NaN NaN b NaN NaN NaN NaN NaN NaN b NaN NaN NaN NaN NaN NaN l NaN NaN l NaN NaN l NaN NaN l NaN NaN l NaN NaN b NaN NaN NaN NaN NaN NaN b NaN NaN NaN NaN NaN NaN b NaN NaN NaN NaN NaN NaN b NaN NaN NaN NaN NaN NaN z m NaN NaN b NaN NaN NaN NaN NaN NaN l NaN NaN l NaN NaN l NaN NaN z m NaN NaN l NaN NaN l NaN NaN l NaN NaN z m NaN NaN l NaN NaN l NaN NaN l NaN NaN z "},"因":{"ha":-11,"x_min":0,"x_max":0,"o":"m 403 979 b 376 1047 299 979 376 996 l 376 1094 l 989 1094 b 1117 847 989 990 1024 881 b 993 660 1078 743 1061 660 z m 1051 92 b 818 246 936 108 860 168 l 968 246 l 968 232 l 976 269 b 1014 339 983 308 1013 315 b 783 435 1017 381 811 464 b 801 282 763 414 811 371 b 794 232 800 264 797 247 b 808 257 790 232 808 238 b NaN NaN 808 260 894 NaN b NaN NaN NaN NaN NaN NaN l NaN NaN z m NaN NaN l NaN NaN b NaN NaN NaN NaN NaN NaN b NaN NaN NaN NaN NaN NaN b NaN NaN NaN NaN NaN NaN b NaN NaN NaN NaN NaN NaN l NaN NaN z "},"姻":{"ha":0,"x_min":0,"x_max":0,"o":"m 114 664 b 161 681 126 664 132 674 l 156 614 l 139 599 l 154 586 l 158 582 l 174 578 l 193 576 l 242 572 l 314 593 l 304 539 b -17 NaN 157 456 54 361 b 335 NaN 107 NaN 242 NaN l 347 NaN b 463 NaN 385 NaN 414 NaN l 463 NaN l 510 NaN l 510 NaN b 510 NaN 508 NaN 494 NaN b 554 NaN 515 NaN 533 NaN b 686 NaN 607 NaN 686 NaN l 686 NaN l 403 NaN l 403 NaN b 285 NaN 374 NaN 308 NaN b 172 NaN 250 NaN 235 NaN l 163 NaN l 169 NaN b 204 NaN 172 NaN 203 NaN b -6 NaN 207 NaN 21 NaN b -108 NaN -49 NaN -78 NaN b -58 NaN -131 NaN -90 NaN l 571 NaN l 571 NaN l 921 NaN l 921 NaN b 856 NaN 904 NaN 875 NaN b 807 NaN 838 NaN 825 NaN b 810 NaN 808 NaN 810 NaN b 838 NaN 810 NaN 838 NaN b 638 NaN 838 NaN 660 NaN b 661 NaN 621 NaN 660 NaN b 661 NaN 663 NaN 663 NaN b 564 NaN 618 NaN 590 NaN z m 201 NaN b 163 NaN 197 NaN 183 NaN b 424 NaN 160 NaN 156 NaN l NaN NaN z m NaN NaN b NaN NaN NaN NaN NaN NaN l NaN NaN b NaN NaN NaN NaN NaN NaN b NaN NaN NaN NaN NaN NaN z m NaN NaN b NaN NaN NaN NaN NaN NaN b NaN NaN NaN NaN NaN NaN b NaN NaN NaN NaN NaN NaN b NaN NaN NaN NaN NaN NaN l NaN NaN l NaN NaN z m NaN NaN b NaN NaN NaN NaN NaN NaN b NaN NaN NaN NaN NaN NaN b NaN NaN NaN NaN NaN NaN b NaN NaN NaN NaN NaN NaN b NaN NaN NaN NaN NaN NaN l NaN NaN l NaN NaN z "},"引":{"ha":0,"x_min":0,"x_max":0,"o":"m 560 669 l 411 669 l 411 865 l 271 865 l 271 1065 l 79 1065 l 79 939 b -121 1011 25 982 -97 1032 b -110 857 -142 990 -100 946 l -142 578 b -153 483 -150 511 -169 497 b -110 472 -149 479 -132 475 b 28 524 -58 465 22 472 l 35 586 l -25 586 l -25 782 b -54 503 -25 714 -31 590 b 56 631 -1 503 56 604 b 99 908 81 725 94 843 b 131 1003 101 951 131 961 b -12 1131 131 1038 21 1131 l -51 1131 l -51 1115 l -179 1115 l -158 1296 b -143 1329 -157 1311 -150 1322 z m 264 642 l 264 1575 l -636 1575 b -636 1481 -636 1508 -653 1493 z "},"飲":{"ha":6,"x_min":0,"x_max":0,"o":"b -3 1053 -10 1000 -6 1026 b 15 1121 -1 1081 0 1108 b 224 1218 25 1133 131 1147 b NaN NaN 267 1346 NaN NaN l NaN NaN l NaN NaN m NaN NaN b NaN NaN NaN NaN NaN NaN b NaN NaN NaN NaN NaN NaN b NaN NaN NaN NaN NaN NaN b NaN NaN NaN NaN NaN NaN b NaN NaN NaN NaN NaN NaN z m NaN NaN l NaN NaN b NaN NaN NaN NaN NaN NaN b NaN NaN NaN NaN NaN NaN z m NaN NaN z m NaN NaN l NaN NaN "},"胤":{"ha":0,"x_min":0,"x_max":0,"o":"m 1151 -25 b 1324 67 1246 -25 1317 10 b 1286 160 1328 106 1310 139 b 1264 363 1251 193 1318 314 b 1194 165 1264 363 1253 235 b 1161 144 1185 154 1176 144 b 1140 214 1143 144 1140 171 l 1140 844 l 967 844 b 804 961 944 899 885 953 b 858 992 825 974 847 979 b 853 1038 861 1003 857 1017 b 907 985 854 1044 871 1063 b 1032 872 978 907 1015 874 b 947 829 1021 863 990 847 b NaN NaN 906 810 867 NaN b NaN NaN NaN NaN NaN NaN b NaN NaN NaN NaN NaN NaN b NaN NaN NaN NaN NaN NaN b NaN NaN NaN NaN NaN NaN b NaN NaN NaN NaN NaN NaN b NaN NaN NaN NaN NaN NaN b NaN NaN NaN NaN NaN NaN b NaN NaN NaN NaN NaN NaN b NaN NaN NaN NaN NaN NaN b NaN NaN NaN NaN NaN NaN b NaN NaN NaN NaN NaN NaN b NaN NaN NaN NaN NaN NaN b NaN NaN NaN NaN NaN NaN b NaN NaN NaN NaN NaN NaN b NaN NaN NaN NaN NaN NaN l NaN NaN l NaN NaN l NaN NaN l NaN NaN l NaN NaN l NaN NaN b NaN NaN NaN NaN NaN NaN b NaN NaN NaN NaN NaN NaN b NaN NaN NaN NaN NaN NaN l NaN NaN b NaN NaN NaN NaN NaN NaN b NaN NaN NaN NaN NaN NaN b NaN NaN NaN NaN NaN NaN l NaN NaN b NaN NaN NaN NaN NaN NaN z m NaN NaN b NaN NaN NaN NaN NaN NaN b NaN NaN NaN NaN NaN NaN b NaN NaN NaN NaN NaN NaN b NaN NaN NaN NaN NaN NaN b NaN NaN NaN NaN NaN NaN z m NaN NaN b NaN NaN NaN NaN NaN NaN b NaN NaN NaN NaN NaN NaN b NaN NaN NaN NaN NaN NaN l NaN NaN l NaN NaN l NaN NaN b NaN NaN NaN NaN NaN NaN b NaN NaN NaN NaN NaN NaN b NaN NaN NaN NaN NaN NaN b NaN NaN NaN NaN NaN NaN b NaN NaN NaN NaN NaN NaN z m NaN NaN l NaN NaN l NaN NaN l NaN NaN z m NaN NaN l NaN NaN l NaN NaN l NaN NaN z m NaN NaN b NaN NaN NaN NaN NaN NaN l NaN NaN l NaN NaN z "},"蔭":{"ha":-53,"x_min":0,"x_max":0,"o":"m 190 922 l 161 922 b 161 828 161 856 143 840 l 161 890 l 326 890 b 331 846 322 864 319 854 b 322 844 331 849 329 847 b 228 750 313 840 303 811 b NaN NaN 172 649 118 NaN b NaN NaN NaN NaN NaN NaN b NaN NaN NaN NaN NaN NaN l NaN NaN l NaN NaN l NaN NaN l NaN NaN l NaN NaN b NaN NaN NaN NaN NaN NaN b NaN NaN NaN NaN NaN NaN b NaN NaN NaN NaN NaN NaN b NaN NaN NaN NaN NaN NaN b NaN NaN NaN NaN NaN NaN b NaN NaN NaN NaN NaN NaN b NaN NaN NaN NaN NaN NaN l NaN NaN l NaN NaN l NaN NaN l NaN NaN l NaN NaN b NaN NaN NaN NaN NaN NaN l NaN NaN l NaN NaN l NaN NaN l NaN NaN l NaN NaN b NaN NaN NaN NaN NaN NaN b NaN NaN NaN NaN NaN NaN b NaN NaN NaN NaN NaN NaN b NaN NaN NaN NaN NaN NaN b NaN NaN NaN NaN NaN NaN b NaN NaN NaN NaN NaN NaN l NaN NaN b NaN NaN NaN NaN NaN NaN b NaN NaN NaN NaN NaN NaN b NaN NaN NaN NaN NaN NaN b NaN NaN NaN NaN NaN NaN b NaN NaN NaN NaN NaN NaN b NaN NaN NaN NaN NaN NaN b NaN NaN NaN NaN NaN NaN l NaN NaN l NaN NaN l NaN NaN l NaN NaN l NaN NaN b NaN NaN NaN NaN NaN NaN z m NaN NaN b NaN NaN NaN NaN NaN NaN b NaN NaN NaN NaN NaN NaN l NaN NaN b NaN NaN NaN NaN NaN NaN z m NaN NaN b NaN NaN NaN NaN NaN NaN l NaN NaN l NaN NaN b NaN NaN NaN NaN NaN NaN b NaN NaN NaN NaN NaN NaN z m NaN NaN b NaN NaN NaN NaN NaN NaN b NaN NaN NaN NaN NaN NaN b NaN NaN NaN NaN NaN NaN b NaN NaN NaN NaN NaN NaN b NaN NaN NaN NaN NaN NaN b NaN NaN NaN NaN NaN NaN b NaN NaN NaN NaN NaN NaN b NaN NaN NaN NaN NaN NaN b NaN NaN NaN NaN NaN NaN b NaN NaN NaN NaN NaN NaN l NaN NaN b NaN NaN NaN NaN NaN NaN b NaN NaN NaN NaN NaN NaN b NaN NaN NaN NaN NaN NaN l NaN NaN b NaN NaN NaN NaN NaN NaN b NaN NaN NaN NaN NaN NaN b NaN NaN NaN NaN NaN NaN b NaN NaN NaN NaN NaN NaN b NaN NaN NaN NaN NaN NaN z "},"院":{"ha":-39,"x_min":0,"x_max":0,"o":"m 119 140 b 224 261 163 169 200 214 b 396 261 269 208 347 218 l 371 261 l 371 254 l 406 254 l 406 164 l 433 164 l 433 343 b 504 374 463 343 504 347 b 476 435 504 386 492 411 b 654 547 539 449 614 483 b 690 586 678 557 690 564 b 547 715 690 622 581 715 b 424 632 508 715 492 632 l 379 632 l 379 679 b 411 750 379 718 411 726 l 411 731 l 364 731 l 364 626 b 310 460 375 561 361 518 b 249 451 353 431 276 490 b 318 231 233 403 274 253 b NaN NaN 292 NaN NaN NaN z m NaN NaN b NaN NaN NaN NaN NaN NaN l NaN NaN l NaN NaN l NaN NaN l NaN NaN l NaN NaN l NaN NaN l NaN NaN b NaN NaN NaN NaN NaN NaN b NaN NaN NaN NaN NaN NaN z m NaN NaN b NaN NaN NaN NaN NaN NaN l NaN NaN z m NaN NaN b NaN NaN NaN NaN NaN NaN b NaN NaN NaN NaN NaN NaN b NaN NaN NaN NaN NaN NaN b NaN NaN NaN NaN NaN NaN b NaN NaN NaN NaN NaN NaN b NaN NaN NaN NaN NaN NaN b NaN NaN NaN NaN NaN NaN b NaN NaN NaN NaN NaN NaN l NaN NaN b NaN NaN NaN NaN NaN NaN b NaN NaN NaN NaN NaN NaN l NaN NaN l NaN NaN b NaN NaN NaN NaN NaN NaN b NaN NaN NaN NaN NaN NaN b NaN NaN NaN NaN NaN NaN b NaN NaN NaN NaN NaN NaN b NaN NaN NaN NaN NaN NaN b NaN NaN NaN NaN NaN NaN l NaN NaN b NaN NaN NaN NaN NaN NaN l NaN NaN b NaN NaN NaN NaN NaN NaN z "},"陰":{"ha":0,"x_min":0,"x_max":0,"o":"m 1339 943 b 1410 1460 1464 1118 1579 1288 b 1589 1697 1886 1628 1724 1635 b 1515 1776 1522 1765 1536 1744 b NaN NaN 1499 1749 1438 NaN b NaN NaN NaN NaN NaN NaN b NaN NaN NaN NaN NaN NaN b NaN NaN NaN NaN NaN NaN b NaN NaN NaN NaN NaN NaN b NaN NaN NaN NaN NaN NaN b NaN NaN NaN NaN NaN NaN b NaN NaN NaN NaN NaN NaN b NaN NaN NaN NaN NaN NaN b NaN NaN NaN NaN NaN NaN b NaN NaN NaN NaN NaN NaN b NaN NaN NaN NaN NaN NaN b NaN NaN NaN NaN NaN NaN b NaN NaN NaN NaN NaN NaN b NaN NaN NaN NaN NaN NaN b NaN NaN NaN NaN NaN NaN b NaN NaN NaN NaN NaN NaN b NaN NaN NaN NaN NaN NaN b NaN NaN NaN NaN NaN NaN b NaN NaN NaN NaN NaN NaN b NaN NaN NaN NaN NaN NaN b NaN NaN NaN NaN NaN NaN b NaN NaN NaN NaN NaN NaN b NaN NaN NaN NaN NaN NaN l NaN NaN b NaN NaN NaN NaN NaN NaN b NaN NaN NaN NaN NaN NaN b NaN NaN NaN NaN NaN NaN l NaN NaN b NaN NaN NaN NaN NaN NaN b NaN NaN NaN NaN NaN NaN b NaN NaN NaN NaN NaN NaN b NaN NaN NaN NaN NaN NaN l NaN NaN l NaN NaN l NaN NaN l NaN NaN l NaN NaN l NaN NaN b NaN NaN NaN NaN NaN NaN b NaN NaN NaN NaN NaN NaN b NaN NaN NaN NaN NaN NaN b NaN NaN NaN NaN NaN NaN b NaN NaN NaN NaN NaN NaN z m NaN NaN b NaN NaN NaN NaN NaN NaN b NaN NaN NaN NaN NaN NaN b NaN NaN NaN NaN NaN NaN b NaN NaN NaN NaN NaN NaN l NaN NaN l NaN NaN l NaN NaN l NaN NaN l NaN NaN l NaN NaN l NaN NaN b NaN NaN NaN NaN NaN NaN b NaN NaN NaN NaN NaN NaN b NaN NaN NaN NaN NaN NaN l NaN NaN b NaN NaN NaN NaN NaN NaN b NaN NaN NaN NaN NaN NaN b NaN NaN NaN NaN NaN NaN l NaN NaN b NaN NaN NaN NaN NaN NaN z "},"隠":{"ha":0,"x_min":0,"x_max":0,"o":"m 1226 1026 b 1503 897 1346 1047 1433 964 b 1553 1208 1640 1072 1536 1176 b 1375 1353 1486 1296 1406 1338 b 1238 1236 1371 1336 1351 1322 b 828 1197 1065 1185 854 1193 b 876 1190 790 1204 815 1200 b NaN NaN 913 1251 908 1308 b NaN NaN NaN NaN NaN NaN b NaN NaN NaN NaN NaN NaN b NaN NaN NaN NaN NaN NaN l NaN NaN l NaN NaN b NaN NaN NaN NaN NaN NaN b NaN NaN NaN NaN NaN NaN b NaN NaN NaN NaN NaN NaN l NaN NaN l NaN NaN l NaN NaN l NaN NaN l NaN NaN l NaN NaN l NaN NaN b NaN NaN NaN NaN NaN NaN b NaN NaN NaN NaN NaN NaN l NaN NaN b NaN NaN NaN NaN NaN NaN b NaN NaN NaN NaN NaN NaN b NaN NaN NaN NaN NaN NaN l NaN NaN b NaN NaN NaN NaN NaN NaN b NaN NaN NaN NaN NaN NaN b NaN NaN NaN NaN NaN NaN b NaN NaN NaN NaN NaN NaN l NaN NaN b NaN NaN NaN NaN NaN NaN z m NaN NaN l NaN NaN b NaN NaN NaN NaN NaN NaN l NaN NaN b NaN NaN NaN NaN NaN NaN z m NaN NaN z m NaN NaN b NaN NaN NaN NaN NaN NaN b NaN NaN NaN NaN NaN NaN b NaN NaN NaN NaN NaN NaN b NaN NaN NaN NaN NaN NaN b NaN NaN NaN NaN NaN NaN b NaN NaN NaN NaN NaN NaN b NaN NaN NaN NaN NaN NaN b NaN NaN NaN NaN NaN NaN b NaN NaN NaN NaN NaN NaN b NaN NaN NaN NaN NaN NaN b NaN NaN NaN NaN NaN NaN b NaN NaN NaN NaN NaN NaN b NaN NaN NaN NaN NaN NaN b NaN NaN NaN NaN NaN NaN z m NaN NaN b NaN NaN NaN NaN NaN NaN b NaN NaN NaN NaN NaN NaN b NaN NaN NaN NaN NaN NaN b NaN NaN NaN NaN NaN NaN z m NaN NaN b NaN NaN NaN NaN NaN NaN b NaN NaN NaN NaN NaN NaN b NaN NaN NaN NaN NaN NaN z "},"韻":{"ha":-51,"x_min":0,"x_max":0,"o":"m 1026 838 l 1026 750 l 932 750 l 932 683 l 915 683 l 915 668 l 932 668 l 932 674 l 1090 674 b 1094 635 1086 651 1083 642 b 76 713 990 635 101 372 b -15 642 47 697 36 642 l -54 642 b -6 717 -32 663 -17 689 b 13 731 -1 726 4 732 b 39 751 22 731 36 736 b -1 806 42 769 25 789 b 121 794 -1 854 25 794 b 60 735 88 794 60 778 b NaN NaN 60 711 28 NaN l NaN NaN l NaN NaN l NaN NaN l NaN NaN l NaN NaN l NaN NaN l NaN NaN l NaN NaN l NaN NaN l NaN NaN l NaN NaN l NaN NaN b NaN NaN NaN NaN NaN NaN l NaN NaN b NaN NaN NaN NaN NaN NaN b NaN NaN NaN NaN NaN NaN b NaN NaN NaN NaN NaN NaN b NaN NaN NaN NaN NaN NaN b NaN NaN NaN NaN NaN NaN b NaN NaN NaN NaN NaN NaN l NaN NaN l NaN NaN l NaN NaN l NaN NaN z m NaN NaN b NaN NaN NaN NaN NaN NaN b NaN NaN NaN NaN NaN NaN b NaN NaN NaN NaN NaN NaN b NaN NaN NaN NaN NaN NaN b NaN NaN NaN NaN NaN NaN b NaN NaN NaN NaN NaN NaN l NaN NaN l NaN NaN b NaN NaN NaN NaN NaN NaN b NaN NaN NaN NaN NaN NaN b NaN NaN NaN NaN NaN NaN b NaN NaN NaN NaN NaN NaN b NaN NaN NaN NaN NaN NaN l NaN NaN l NaN NaN z m NaN NaN l NaN NaN l NaN NaN l NaN NaN l NaN NaN z m NaN NaN b NaN NaN NaN NaN NaN NaN b NaN NaN NaN NaN NaN NaN l NaN NaN l NaN NaN l NaN NaN b NaN NaN NaN NaN NaN NaN l NaN NaN b NaN NaN NaN NaN NaN NaN b NaN NaN NaN NaN NaN NaN l NaN NaN l NaN NaN l NaN NaN l NaN NaN l NaN NaN l NaN NaN l NaN NaN l NaN NaN l NaN NaN l NaN NaN l NaN NaN l NaN NaN l NaN NaN z m NaN NaN l NaN NaN l NaN NaN l NaN NaN l NaN NaN z m NaN NaN l NaN NaN l NaN NaN l NaN NaN l NaN NaN z "},"吋":{"ha":221,"x_min":0,"x_max":0,"o":"m 1267 944 b 1564 897 1389 944 1564 914 b NaN 810 1564 847 1542 810 l NaN 810 l NaN 653 l NaN 653 l NaN 872 l NaN 872 b NaN 964 NaN 857 NaN 964 b NaN NaN NaN 964 NaN 931 l NaN NaN l NaN NaN l NaN NaN l NaN NaN l NaN NaN l NaN NaN l NaN NaN l NaN NaN z m NaN NaN "},"右":{"ha":0,"x_min":0,"x_max":0,"o":"m 97 232 b 456 433 246 233 365 315 l 456 49 l 790 49 b 792 -36 789 -10 775 -25 b NaN NaN 710 313 640 NaN l NaN NaN l NaN NaN l NaN NaN l NaN NaN l NaN NaN l NaN NaN l NaN NaN l NaN NaN l NaN NaN l NaN NaN l NaN NaN l NaN NaN l NaN NaN b NaN NaN NaN NaN NaN NaN b NaN NaN NaN NaN NaN NaN b NaN NaN NaN NaN NaN NaN l NaN NaN b NaN NaN NaN NaN NaN NaN b NaN NaN NaN NaN NaN NaN b NaN NaN NaN NaN NaN NaN b NaN NaN NaN NaN NaN NaN l NaN NaN l NaN NaN l NaN NaN l NaN NaN l NaN NaN l NaN NaN l NaN NaN l NaN NaN z "},"宇":{"ha":310,"x_min":0,"x_max":0,"o":"m 342 983 b 446 890 371 963 410 931 b NaN NaN 478 NaN NaN NaN b NaN NaN NaN NaN NaN NaN b NaN NaN NaN NaN NaN NaN b NaN NaN NaN NaN NaN NaN l NaN NaN l NaN NaN l NaN NaN l NaN NaN l NaN NaN l NaN NaN l NaN NaN l NaN NaN b NaN NaN NaN NaN NaN NaN b NaN NaN NaN NaN NaN NaN b NaN NaN NaN NaN NaN NaN b NaN NaN NaN NaN NaN NaN l NaN NaN l NaN NaN b NaN NaN NaN NaN NaN NaN l NaN NaN l NaN NaN l NaN NaN z "},"烏":{"ha":0,"x_min":0,"x_max":0,"o":"m 1119 521 b 1024 535 1089 594 1079 535 l 1008 535 l 1008 33 l 1096 33 l 1096 674 l 1181 674 l 1181 957 b 1185 917 1178 935 1175 925 l 1185 914 l 1190 914 l 1190 931 l 1188 931 l 1188 953 l 1351 953 b 1383 1047 1351 1008 1383 1007 b 1240 1176 1383 1083 1274 1176 b 1117 1093 1201 1176 1185 1093 l 1036 1093 b 1075 1119 1051 1092 1071 1100 b 893 1225 1082 1161 982 1210 b 861 1090 890 1169 878 1126 l 861 986 l 799 986 l 799 1019 l 683 1019 l 683 471 b 683 375 683 404 667 388 b 728 369 688 372 706 369 b 858 438 779 369 858 385 l 858 478 l 1372 478 b 1347 NaN 1356 371 1378 364 l NaN NaN b NaN NaN NaN NaN NaN NaN b NaN NaN NaN NaN NaN NaN b NaN NaN NaN NaN NaN NaN l NaN NaN l NaN NaN l NaN NaN l NaN NaN l NaN NaN l NaN NaN z m NaN NaN b NaN NaN NaN NaN NaN NaN b NaN NaN NaN NaN NaN NaN b NaN NaN NaN NaN NaN NaN b NaN NaN NaN NaN NaN NaN z m NaN NaN b NaN NaN NaN NaN NaN NaN b NaN NaN NaN NaN NaN NaN z m NaN NaN b NaN NaN NaN NaN NaN NaN z m NaN NaN b NaN NaN NaN NaN NaN NaN b NaN NaN NaN NaN NaN NaN b NaN NaN NaN NaN NaN NaN b NaN NaN NaN NaN NaN NaN z "},"⽻":{"ha":0,"x_min":0,"x_max":0,"o":"m 824 101 l 1564 101 l 1564 -12 l 1736 -12 l 1736 -411 l 1736 -533 l 1651 -533 l 1651 -681 l 1606 -681 l 1606 -793 l 1575 -793 l 1575 -803 l 1572 -803 l 1572 -811 l 1571 -811 l 1571 -818 l 1568 -818 b 1618 -940 1544 -818 1585 -940 l 1792 -940 l 1792 -1304 b 1449 -1451 1678 -1389 1564 -1419 b 1410 -1497 1413 -1461 1399 -1456 b 1546 -1683 1436 -1593 1501 -1696 b 1571 -1639 1565 -1678 1572 -1654 b 1617 -1464 1569 -1625 1574 -1531 b NaN NaN 1672 -1421 1744 NaN l NaN NaN l NaN NaN b NaN NaN NaN NaN NaN NaN b NaN NaN NaN NaN NaN NaN b NaN NaN NaN NaN NaN NaN b NaN NaN NaN NaN NaN NaN l NaN NaN b NaN NaN NaN NaN NaN NaN b NaN NaN NaN NaN NaN NaN b NaN NaN NaN NaN NaN NaN z m NaN NaN b NaN NaN NaN NaN NaN NaN b NaN NaN NaN NaN NaN NaN b NaN NaN NaN NaN NaN NaN b NaN NaN NaN NaN NaN NaN z "},"羽":{"ha":0,"x_min":0,"x_max":0,"o":"m 824 101 l 1564 101 l 1564 -12 l 1736 -12 l 1736 -411 l 1736 -533 l 1651 -533 l 1651 -681 l 1606 -681 l 1606 -793 l 1575 -793 l 1575 -803 l 1572 -803 l 1572 -811 l 1571 -811 l 1571 -818 l 1568 -818 b 1618 -940 1544 -818 1585 -940 l 1792 -940 l 1792 -1304 b 1449 -1451 1678 -1389 1564 -1419 b 1410 -1497 1413 -1461 1399 -1456 b 1546 -1683 1436 -1593 1501 -1696 b 1571 -1639 1565 -1678 1572 -1654 b 1617 -1464 1569 -1625 1574 -1531 b NaN NaN 1672 -1421 1744 NaN l NaN NaN l NaN NaN b NaN NaN NaN NaN NaN NaN b NaN NaN NaN NaN NaN NaN b NaN NaN NaN NaN NaN NaN b NaN NaN NaN NaN NaN NaN l NaN NaN b NaN NaN NaN NaN NaN NaN b NaN NaN NaN NaN NaN NaN b NaN NaN NaN NaN NaN NaN z m NaN NaN b NaN NaN NaN NaN NaN NaN b NaN NaN NaN NaN NaN NaN b NaN NaN NaN NaN NaN NaN b NaN NaN NaN NaN NaN NaN z "},"⾬":{"ha":0,"x_min":0,"x_max":0,"o":"l 0 -53 l 168 -53 l 168 -158 l 139 -158 l 139 -43 l 158 -43 l 158 43 l 353 43 l 353 83 l 547 83 l 547 153 l 617 153 l 617 365 l 836 365 l 836 540 l 1056 540 l 1056 715 l 1246 715 l 1246 1675 l 1526 1675 l 1526 1553 l 1322 1553 l 1322 1501 l 1361 1501 l 1361 906 l 1990 906 l 2001 906 l 2001 1118 l 1442 1118 l 1442 1711 l 1661 1711 l 1661 1197 b 1483 1138 1661 1126 1607 1113 l 1476 1107 b 1607 1136 1482 1181 1539 1164 b NaN NaN 1613 1072 NaN NaN b NaN NaN NaN NaN NaN NaN b NaN NaN NaN NaN NaN NaN l NaN NaN l NaN NaN l NaN NaN b NaN NaN NaN NaN NaN NaN b NaN NaN NaN NaN NaN NaN b NaN NaN NaN NaN NaN NaN b NaN NaN NaN NaN NaN NaN m NaN NaN b NaN NaN NaN NaN NaN NaN z m NaN NaN b NaN NaN NaN NaN NaN NaN b NaN NaN NaN NaN NaN NaN b NaN NaN NaN NaN NaN NaN b NaN NaN NaN NaN NaN NaN b NaN NaN NaN NaN NaN NaN z m NaN NaN b NaN NaN NaN NaN NaN NaN b NaN NaN NaN NaN NaN NaN b NaN NaN NaN NaN NaN NaN b NaN NaN NaN NaN NaN NaN z "},"雨":{"ha":0,"x_min":0,"x_max":0,"o":"l 0 -53 l 168 -53 l 168 -158 l 139 -158 l 139 -43 l 158 -43 l 158 43 l 353 43 l 353 83 l 547 83 l 547 153 l 617 153 l 617 365 l 836 365 l 836 540 l 1056 540 l 1056 715 l 1246 715 l 1246 1675 l 1526 1675 l 1526 1553 l 1322 1553 l 1322 1501 l 1361 1501 l 1361 906 l 1990 906 l 2001 906 l 2001 1118 l 1442 1118 l 1442 1711 l 1661 1711 l 1661 1197 b 1483 1138 1661 1126 1607 1113 l 1476 1107 b 1607 1136 1482 1181 1539 1164 b NaN NaN 1613 1072 NaN NaN b NaN NaN NaN NaN NaN NaN b NaN NaN NaN NaN NaN NaN l NaN NaN l NaN NaN l NaN NaN b NaN NaN NaN NaN NaN NaN b NaN NaN NaN NaN NaN NaN b NaN NaN NaN NaN NaN NaN b NaN NaN NaN NaN NaN NaN m NaN NaN b NaN NaN NaN NaN NaN NaN z m NaN NaN b NaN NaN NaN NaN NaN NaN b NaN NaN NaN NaN NaN NaN b NaN NaN NaN NaN NaN NaN b NaN NaN NaN NaN NaN NaN b NaN NaN NaN NaN NaN NaN z m NaN NaN b NaN NaN NaN NaN NaN NaN b NaN NaN NaN NaN NaN NaN b NaN NaN NaN NaN NaN NaN b NaN NaN NaN NaN NaN NaN z "},"卯":{"ha":0,"x_min":0,"x_max":0,"o":"b 169 28 94 11 110 15 b 250 -42 236 56 293 86 b NaN NaN 179 -165 69 -279 b NaN NaN NaN NaN NaN NaN b NaN NaN NaN NaN NaN NaN b NaN NaN NaN NaN NaN NaN b NaN NaN NaN NaN NaN NaN b NaN NaN NaN NaN NaN NaN b NaN NaN NaN NaN NaN NaN b NaN NaN NaN NaN NaN NaN b NaN NaN NaN NaN NaN NaN l NaN NaN l NaN NaN l NaN NaN l NaN NaN b NaN NaN NaN NaN NaN NaN b NaN NaN NaN NaN NaN NaN l NaN NaN l NaN NaN l NaN NaN l NaN NaN b NaN NaN NaN NaN NaN NaN l NaN NaN l NaN NaN l NaN NaN l NaN NaN l NaN NaN b NaN NaN NaN NaN NaN NaN b NaN NaN NaN NaN NaN NaN m NaN NaN b NaN NaN NaN NaN NaN NaN l NaN NaN l NaN NaN z "},"鵜":{"ha":-53,"x_min":0,"x_max":0,"o":"b -124 -232 -39 -149 -56 -232 b 6 -357 -124 -247 -87 -357 b -67 NaN -29 -357 -67 -424 b -40 NaN -56 NaN -47 NaN b -17 NaN -35 NaN -28 NaN b 15 NaN -4 NaN 13 NaN b -8 NaN 0 NaN -1 NaN b NaN NaN -18 NaN NaN NaN l NaN NaN l NaN NaN l NaN NaN l NaN NaN l NaN NaN l NaN NaN l NaN NaN b NaN NaN NaN NaN NaN NaN b NaN NaN NaN NaN NaN NaN b NaN NaN NaN NaN NaN NaN l NaN NaN b NaN NaN NaN NaN NaN NaN b NaN NaN NaN NaN NaN NaN b NaN NaN NaN NaN NaN NaN b NaN NaN NaN NaN NaN NaN l NaN NaN b NaN NaN NaN NaN NaN NaN l NaN NaN b NaN NaN NaN NaN NaN NaN b NaN NaN NaN NaN NaN NaN b NaN NaN NaN NaN NaN NaN b NaN NaN NaN NaN NaN NaN b NaN NaN NaN NaN NaN NaN l NaN NaN l NaN NaN l NaN NaN b NaN NaN NaN NaN NaN NaN b NaN NaN NaN NaN NaN NaN b NaN NaN NaN NaN NaN NaN b NaN NaN NaN NaN NaN NaN b NaN NaN NaN NaN NaN NaN b NaN NaN NaN NaN NaN NaN b NaN NaN NaN NaN NaN NaN b NaN NaN NaN NaN NaN NaN b NaN NaN NaN NaN NaN NaN b NaN NaN NaN NaN NaN NaN l NaN NaN b NaN NaN NaN NaN NaN NaN b NaN NaN NaN NaN NaN NaN b NaN NaN NaN NaN NaN NaN b NaN NaN NaN NaN NaN NaN b NaN NaN NaN NaN NaN NaN b NaN NaN NaN NaN NaN NaN b NaN NaN NaN NaN NaN NaN b NaN NaN NaN NaN NaN NaN l NaN NaN b NaN NaN NaN NaN NaN NaN b NaN NaN NaN NaN NaN NaN b NaN NaN NaN NaN NaN NaN b NaN NaN NaN NaN NaN NaN b NaN NaN NaN NaN NaN NaN b NaN NaN NaN NaN NaN NaN l NaN NaN l NaN NaN l NaN NaN l NaN NaN b NaN NaN NaN NaN NaN NaN b NaN NaN NaN NaN NaN NaN l NaN NaN b NaN NaN NaN NaN NaN NaN b NaN NaN NaN NaN NaN NaN b NaN NaN NaN NaN NaN NaN l NaN NaN l NaN NaN b NaN NaN NaN NaN NaN NaN b NaN NaN NaN NaN NaN NaN l NaN NaN l NaN NaN l NaN NaN l NaN NaN l NaN NaN m NaN NaN l NaN NaN l NaN NaN l NaN NaN z m NaN NaN b NaN NaN NaN NaN NaN NaN l NaN NaN l NaN NaN l NaN NaN z m NaN NaN b NaN NaN NaN NaN NaN NaN l NaN NaN l NaN NaN l NaN NaN z m NaN NaN b NaN NaN NaN NaN NaN NaN b NaN NaN NaN NaN NaN NaN b NaN NaN NaN NaN NaN NaN l NaN NaN l NaN NaN z m NaN NaN b NaN NaN NaN NaN NaN NaN b NaN NaN NaN NaN NaN NaN l NaN NaN z m NaN NaN b NaN NaN NaN NaN NaN NaN b NaN NaN NaN NaN NaN NaN b NaN NaN NaN NaN NaN NaN b NaN NaN NaN NaN NaN NaN z m NaN NaN b NaN NaN NaN NaN NaN NaN b NaN NaN NaN NaN NaN NaN b NaN NaN NaN NaN NaN NaN b NaN NaN NaN NaN NaN NaN z "},"窺":{"ha":-44,"x_min":0,"x_max":0,"o":"m 1071 -37 b 1363 179 1071 211 1188 179 b 1285 221 1422 179 1285 354 b 1200 551 1285 396 1296 551 b 1289 722 1375 551 1289 600 b 1328 846 1289 789 1322 846 b 1344 851 1315 846 1344 829 b 1485 882 1344 810 1397 882 b 1369 681 1424 882 1413 753 b 1322 667 1357 674 1342 667 b 1303 688 1306 667 1303 675 b 1332 754 1303 724 1328 733 b 1388 618 1332 650 1351 618 b 1381 NaN 1353 618 1381 NaN l 1424 NaN l 1424 NaN l 1450 NaN l 1450 NaN l 1454 NaN l 1454 NaN b 1600 NaN 1497 NaN 1549 NaN b 1618 NaN 1610 NaN 1618 NaN l 1618 NaN b 1488 NaN 1514 NaN 1522 NaN b 1514 NaN 1506 NaN 1472 NaN b NaN NaN 1393 NaN 1425 NaN b NaN NaN NaN NaN NaN NaN b NaN NaN NaN NaN NaN NaN b NaN NaN NaN NaN NaN NaN b NaN NaN NaN NaN NaN NaN b NaN NaN NaN NaN NaN NaN b NaN NaN NaN NaN NaN NaN b NaN NaN NaN NaN NaN NaN b NaN NaN NaN NaN NaN NaN b NaN NaN NaN NaN NaN NaN l NaN NaN b NaN NaN NaN NaN NaN NaN b NaN NaN NaN NaN NaN NaN b NaN NaN NaN NaN NaN NaN b NaN NaN NaN NaN NaN NaN l NaN NaN l NaN NaN b NaN NaN NaN NaN NaN NaN b NaN NaN NaN NaN NaN NaN b NaN NaN NaN NaN NaN NaN l NaN NaN b NaN NaN NaN NaN NaN NaN b NaN NaN NaN NaN NaN NaN b NaN NaN NaN NaN NaN NaN b NaN NaN NaN NaN NaN NaN b NaN NaN NaN NaN NaN NaN b NaN NaN NaN NaN NaN NaN l NaN NaN l NaN NaN l NaN NaN b NaN NaN NaN NaN NaN NaN b NaN NaN NaN NaN NaN NaN b NaN NaN NaN NaN NaN NaN b NaN NaN NaN NaN NaN NaN b NaN NaN NaN NaN NaN NaN b NaN NaN NaN NaN NaN NaN l NaN NaN b NaN NaN NaN NaN NaN NaN z m NaN NaN b NaN NaN NaN NaN NaN NaN l NaN NaN z m NaN NaN l NaN NaN l NaN NaN l NaN NaN l NaN NaN l NaN NaN l NaN NaN z m NaN NaN l NaN NaN l NaN NaN l NaN NaN z m NaN NaN l NaN NaN l NaN NaN l NaN NaN z m NaN NaN l NaN NaN l NaN NaN l NaN NaN l NaN NaN l NaN NaN "},"丑":{"ha":0,"x_min":0,"x_max":0,"o":"m 190 519 l 313 519 l 267 46 l 246 46 l 246 810 b 317 840 275 810 317 814 b 224 963 317 868 257 963 b 100 879 185 963 168 879 l 92 879 l 110 1353 l 301 1353 b 372 1383 331 1353 372 1357 b 279 1506 372 1411 313 1506 b 156 1422 240 1506 224 1422 l 111 1422 l 124 1747 b 160 1840 126 1803 158 1800 b 21 1975 161 1876 56 1974 b -106 1892 -17 1976 -33 1892 l -449 1892 l -449 1919 b -442 1829 -443 1896 -437 1867 l -472 1519 z m -19 1904 b -161 2017 -43 1944 -164 1978 b -124 2056 -126 2021 -125 2044 b NaN NaN -136 2069 -157 2085 l NaN NaN l NaN NaN l NaN NaN l NaN NaN l NaN NaN l NaN NaN l NaN NaN z "},"碓":{"ha":49,"x_min":0,"x_max":0,"o":"m 225 142 b 174 221 225 160 201 193 b 290 276 218 228 257 249 b 114 124 383 250 238 211 b NaN NaN 15 NaN NaN NaN b NaN NaN NaN NaN NaN NaN z m NaN NaN l NaN NaN l NaN NaN l NaN NaN z m NaN NaN l NaN NaN l NaN NaN l NaN NaN l NaN NaN l NaN NaN z "},"⾅":{"ha":0,"x_min":0,"x_max":0,"o":"m 994 996 b 874 913 957 996 940 914 b 714 942 794 914 754 942 b 763 821 690 942 731 821 l 811 821 l 811 514 l 776 514 l 776 549 l 469 549 l 469 75 l 776 75 l 776 238 l 806 238 l 806 279 l 810 279 l 810 307 l 794 307 l 794 507 b 828 579 794 547 828 556 b 799 611 828 589 815 600 b 1025 779 892 633 967 696 b 1088 660 1032 696 1071 660 b 933 531 1075 649 1042 607 b 781 346 835 447 765 396 b NaN NaN 788 333 774 NaN l NaN NaN l NaN NaN l NaN NaN l NaN NaN l NaN NaN b NaN NaN NaN NaN NaN NaN b NaN NaN NaN NaN NaN NaN z "},"臼":{"ha":0,"x_min":0,"x_max":0,"o":"m 994 996 b 874 913 957 996 940 914 b 714 942 794 914 754 942 b 763 821 690 942 731 821 l 811 821 l 811 514 l 776 514 l 776 549 l 469 549 l 469 75 l 776 75 l 776 238 l 806 238 l 806 279 l 810 279 l 810 307 l 794 307 l 794 507 b 828 579 794 547 828 556 b 799 611 828 589 815 600 b 1025 779 892 633 967 696 b 1088 660 1032 696 1071 660 b 933 531 1075 649 1042 607 b 781 346 835 447 765 396 b NaN NaN 788 333 774 NaN l NaN NaN l NaN NaN l NaN NaN l NaN NaN l NaN NaN b NaN NaN NaN NaN NaN NaN b NaN NaN NaN NaN NaN NaN z "},"渦":{"ha":94,"x_min":0,"x_max":0,"o":"m 1178 940 l 1178 996 l 1211 996 l 1211 994 l 1028 994 l 1028 717 b 915 725 976 732 928 739 b 911 714 913 722 911 718 b 799 593 888 699 846 665 b 903 1015 779 643 785 849 b 932 889 910 990 932 951 l 1351 889 l 1351 488 b 1204 417 1351 417 1293 396 l 1197 388 b 1300 289 1246 368 1294 351 b 1357 249 1303 267 1314 249 b 1526 488 1465 249 1526 296 l 1526 819 b 1560 914 1526 875 1560 874 b 1654 750 1560 821 1589 750 b 1633 NaN 1608 750 1633 NaN z m 2429 NaN b 2703 NaN 2429 NaN 2703 NaN b 2613 NaN 2703 NaN 2613 NaN l 2613 NaN l 2546 NaN l 2453 NaN l 2453 NaN l 2704 NaN l 2704 NaN z m 2638 NaN l 2774 NaN l 2774 NaN l 2611 NaN z m 2506 NaN b 2365 NaN 2357 NaN 2353 NaN b NaN NaN 2363 NaN 2379 NaN l NaN NaN l NaN NaN l NaN NaN b NaN NaN NaN NaN NaN NaN b NaN NaN NaN NaN NaN NaN b NaN NaN NaN NaN NaN NaN b NaN NaN NaN NaN NaN NaN l NaN NaN l NaN NaN l NaN NaN l NaN NaN b NaN NaN NaN NaN NaN NaN b NaN NaN NaN NaN NaN NaN l NaN NaN l NaN NaN l NaN NaN l NaN NaN b NaN NaN NaN NaN NaN NaN b NaN NaN NaN NaN NaN NaN l NaN NaN l NaN NaN l NaN NaN l NaN NaN l NaN NaN z "},"嘘":{"ha":201,"x_min":0,"x_max":0,"o":"m 426 119 b 393 350 300 232 319 304 b 426 385 492 372 464 383 b 294 417 379 386 332 390 b 290 492 289 447 281 474 b NaN NaN 307 NaN NaN NaN l NaN NaN l NaN NaN b NaN NaN NaN NaN NaN NaN l NaN NaN b NaN NaN NaN NaN NaN NaN b NaN NaN NaN NaN NaN NaN b NaN NaN NaN NaN NaN NaN b NaN NaN NaN NaN NaN NaN b NaN NaN NaN NaN NaN NaN b NaN NaN NaN NaN NaN NaN l NaN NaN b NaN NaN NaN NaN NaN NaN b NaN NaN NaN NaN NaN NaN l NaN NaN b NaN NaN NaN NaN NaN NaN b NaN NaN NaN NaN NaN NaN b NaN NaN NaN NaN NaN NaN b NaN NaN NaN NaN NaN NaN b NaN NaN NaN NaN NaN NaN l NaN NaN l NaN NaN l NaN NaN b NaN NaN NaN NaN NaN NaN b NaN NaN NaN NaN NaN NaN b NaN NaN NaN NaN NaN NaN b NaN NaN NaN NaN NaN NaN l NaN NaN l NaN NaN l NaN NaN l NaN NaN l NaN NaN b NaN NaN NaN NaN NaN NaN b NaN NaN NaN NaN NaN NaN b NaN NaN NaN NaN NaN NaN z m NaN NaN l NaN NaN l NaN NaN b NaN NaN NaN NaN NaN NaN b NaN NaN NaN NaN NaN NaN b NaN NaN NaN NaN NaN NaN b NaN NaN NaN NaN NaN NaN z m NaN NaN b NaN NaN NaN NaN NaN NaN b NaN NaN NaN NaN NaN NaN b NaN NaN NaN NaN NaN NaN l NaN NaN b NaN NaN NaN NaN NaN NaN l NaN NaN l NaN NaN l NaN NaN l NaN NaN l NaN NaN l NaN NaN l NaN NaN b NaN NaN NaN NaN NaN NaN l NaN NaN l NaN NaN l NaN NaN l NaN NaN l NaN NaN b NaN NaN NaN NaN NaN NaN b NaN NaN NaN NaN NaN NaN b NaN NaN NaN NaN NaN NaN b NaN NaN NaN NaN NaN NaN z "},"唄":{"ha":0,"x_min":0,"x_max":0,"o":"m 1283 118 b 1124 242 1263 167 1204 217 b 1226 308 1172 247 1226 265 l 1844 308 l 1844 122 l 1844 -535 b 1844 -631 1844 -603 1828 -618 b 1889 -636 1850 -633 1868 -636 b 1919 -635 1899 -636 1910 -636 b 1654 -857 1868 -729 1781 -814 b 2008 -793 1861 -943 1990 -826 b NaN NaN 1949 -728 1879 -683 b NaN NaN NaN NaN NaN NaN l NaN NaN l NaN NaN b NaN NaN NaN NaN NaN NaN b NaN NaN NaN NaN NaN NaN b NaN NaN NaN NaN NaN NaN b NaN NaN NaN NaN NaN NaN b NaN NaN NaN NaN NaN NaN z m NaN NaN l NaN NaN l NaN NaN l NaN NaN z m NaN NaN b NaN NaN NaN NaN NaN NaN b NaN NaN NaN NaN NaN NaN l NaN NaN l NaN NaN l NaN NaN l NaN NaN l NaN NaN l NaN NaN l NaN NaN z "},"欝":{"ha":0,"x_min":0,"x_max":0,"o":"m 1258 960 l 1258 1181 l 1433 1181 l 1433 1010 l 1674 1010 l 1674 781 l 1871 781 l 1871 604 l 2047 604 l 2047 439 l 2222 439 l 2222 510 l 2397 510 l 2397 343 l 2529 343 l 2529 272 l 2664 272 l 2664 264 l 2786 264 l 2786 165 l 2918 165 l 2918 244 l 3094 244 l 3094 76 l 3269 76 l 3269 -90 l 3444 -90 l 3444 -61 l 3486 -61 l 3486 -57 l 3514 -57 l 3514 -31 l 3454 -31 l 3454 -7 l 3454 -156 l 3436 -156 l 3436 -179 b 3319 -154 3385 -171 3351 -154 b 3369 -275 3296 -154 3338 -275 b 3421 -258 3382 -275 3388 -265 b 3301 -426 3400 -328 3351 -387 b 3278 -396 3299 -419 3290 -406 b 3292 -379 3283 -390 3288 -385 b NaN NaN 3307 -357 3331 NaN b NaN NaN NaN NaN NaN NaN b NaN NaN NaN NaN NaN NaN b NaN NaN NaN NaN NaN NaN b NaN NaN NaN NaN NaN NaN b NaN NaN NaN NaN NaN NaN b NaN NaN NaN NaN NaN NaN b NaN NaN NaN NaN NaN NaN b NaN NaN NaN NaN NaN NaN b NaN NaN NaN NaN NaN NaN b NaN NaN NaN NaN NaN NaN b NaN NaN NaN NaN NaN NaN b NaN NaN NaN NaN NaN NaN l NaN NaN l NaN NaN b NaN NaN NaN NaN NaN NaN b NaN NaN NaN NaN NaN NaN b NaN NaN NaN NaN NaN NaN b NaN NaN NaN NaN NaN NaN b NaN NaN NaN NaN NaN NaN b NaN NaN NaN NaN NaN NaN b NaN NaN NaN NaN NaN NaN b NaN NaN NaN NaN NaN NaN b NaN NaN NaN NaN NaN NaN b NaN NaN NaN NaN NaN NaN b NaN NaN NaN NaN NaN NaN l NaN NaN b NaN NaN NaN NaN NaN NaN z m NaN NaN l NaN NaN l NaN NaN l NaN NaN l NaN NaN b NaN NaN NaN NaN NaN NaN b NaN NaN NaN NaN NaN NaN b NaN NaN NaN NaN NaN NaN b NaN NaN NaN NaN NaN NaN b NaN NaN NaN NaN NaN NaN b NaN NaN NaN NaN NaN NaN b NaN NaN NaN NaN NaN NaN b NaN NaN NaN NaN NaN NaN b NaN NaN NaN NaN NaN NaN b NaN NaN NaN NaN NaN NaN b NaN NaN NaN NaN NaN NaN b NaN NaN NaN NaN NaN NaN l NaN NaN l NaN NaN l NaN NaN l NaN NaN l NaN NaN l NaN NaN l NaN NaN b NaN NaN NaN NaN NaN NaN b NaN NaN NaN NaN NaN NaN b NaN NaN NaN NaN NaN NaN b NaN NaN NaN NaN NaN NaN b NaN NaN NaN NaN NaN NaN b NaN NaN NaN NaN NaN NaN b NaN NaN NaN NaN NaN NaN b NaN NaN NaN NaN NaN NaN b NaN NaN NaN NaN NaN NaN l NaN NaN l NaN NaN b NaN NaN NaN NaN NaN NaN b NaN NaN NaN NaN NaN NaN b NaN NaN NaN NaN NaN NaN b NaN NaN NaN NaN NaN NaN b NaN NaN NaN NaN NaN NaN l NaN NaN b NaN NaN NaN NaN NaN NaN b NaN NaN NaN NaN NaN NaN b NaN NaN NaN NaN NaN NaN l NaN NaN b NaN NaN NaN NaN NaN NaN b NaN NaN NaN NaN NaN NaN b NaN NaN NaN NaN NaN NaN b NaN NaN NaN NaN NaN NaN z m NaN NaN b NaN NaN NaN NaN NaN NaN b NaN NaN NaN NaN NaN NaN b NaN NaN NaN NaN NaN NaN b NaN NaN NaN NaN NaN NaN z m NaN NaN b NaN NaN NaN NaN NaN NaN b NaN NaN NaN NaN NaN NaN l NaN NaN b NaN NaN NaN NaN NaN NaN b NaN NaN NaN NaN NaN NaN l NaN NaN b NaN NaN NaN NaN NaN NaN b NaN NaN NaN NaN NaN NaN b NaN NaN NaN NaN NaN NaN b NaN NaN NaN NaN NaN NaN b NaN NaN NaN NaN NaN NaN b NaN NaN NaN NaN NaN NaN b NaN NaN NaN NaN NaN NaN b NaN NaN NaN NaN NaN NaN b NaN NaN NaN NaN NaN NaN b NaN NaN NaN NaN NaN NaN b NaN NaN NaN NaN NaN NaN b NaN NaN NaN NaN NaN NaN b NaN NaN NaN NaN NaN NaN l NaN NaN l NaN NaN l NaN NaN l NaN NaN l NaN NaN l NaN NaN z m NaN NaN l NaN NaN l NaN NaN l NaN NaN z m NaN NaN l NaN NaN l NaN NaN l NaN NaN z m NaN NaN b NaN NaN NaN NaN NaN NaN l NaN NaN b NaN NaN NaN NaN NaN NaN b NaN NaN NaN NaN NaN NaN z m NaN NaN b NaN NaN NaN NaN NaN NaN b NaN NaN NaN NaN NaN NaN b NaN NaN NaN NaN NaN NaN l NaN NaN l NaN NaN b NaN NaN NaN NaN NaN NaN b NaN NaN NaN NaN NaN NaN z m NaN NaN l NaN NaN l NaN NaN b NaN NaN NaN NaN NaN NaN z m NaN NaN l NaN NaN l NaN NaN l NaN NaN z m NaN NaN l NaN NaN b NaN NaN NaN NaN NaN NaN b NaN NaN NaN NaN NaN NaN b NaN NaN NaN NaN NaN NaN b NaN NaN NaN NaN NaN NaN z "},"蔚":{"ha":0,"x_min":0,"x_max":0,"o":"m 258 117 b 56 19 156 101 104 74 b 22 204 10 97 -4 160 b NaN NaN 72 NaN NaN NaN b NaN NaN NaN NaN NaN NaN b NaN NaN NaN NaN NaN NaN b NaN NaN NaN NaN NaN NaN b NaN NaN NaN NaN NaN NaN l NaN NaN b NaN NaN NaN NaN NaN NaN b NaN NaN NaN NaN NaN NaN b NaN NaN NaN NaN NaN NaN b NaN NaN NaN NaN NaN NaN b NaN NaN NaN NaN NaN NaN b NaN NaN NaN NaN NaN NaN l NaN NaN l NaN NaN b NaN NaN NaN NaN NaN NaN b NaN NaN NaN NaN NaN NaN l NaN NaN b NaN NaN NaN NaN NaN NaN b NaN NaN NaN NaN NaN NaN b NaN NaN NaN NaN NaN NaN b NaN NaN NaN NaN NaN NaN l NaN NaN l NaN NaN l NaN NaN b NaN NaN NaN NaN NaN NaN b NaN NaN NaN NaN NaN NaN b NaN NaN NaN NaN NaN NaN l NaN NaN b NaN NaN NaN NaN NaN NaN b NaN NaN NaN NaN NaN NaN l NaN NaN b NaN NaN NaN NaN NaN NaN b NaN NaN NaN NaN NaN NaN b NaN NaN NaN NaN NaN NaN l NaN NaN b NaN NaN NaN NaN NaN NaN l NaN NaN l NaN NaN l NaN NaN l NaN NaN l NaN NaN b NaN NaN NaN NaN NaN NaN z m NaN NaN b NaN NaN NaN NaN NaN NaN l NaN NaN l NaN NaN l NaN NaN z m NaN NaN b NaN NaN NaN NaN NaN NaN b NaN NaN NaN NaN NaN NaN b NaN NaN NaN NaN NaN NaN b NaN NaN NaN NaN NaN NaN b NaN NaN NaN NaN NaN NaN b NaN NaN NaN NaN NaN NaN b NaN NaN NaN NaN NaN NaN b NaN NaN NaN NaN NaN NaN b NaN NaN NaN NaN NaN NaN b NaN NaN NaN NaN NaN NaN z m NaN NaN b NaN NaN NaN NaN NaN NaN b NaN NaN NaN NaN NaN NaN b NaN NaN NaN NaN NaN NaN b NaN NaN NaN NaN NaN NaN b NaN NaN NaN NaN NaN NaN b NaN NaN NaN NaN NaN NaN z "},"鰻":{"ha":-53,"x_min":0,"x_max":0,"o":"l -93 0 l -93 128 l -176 128 l -176 -25 b -176 -121 -176 -92 -193 -108 l -179 -121 l -179 32 l -272 32 l -272 635 l 396 635 l 396 786 l 303 786 l 303 744 l 144 744 l 144 903 l 144 810 l 104 810 l 104 651 m 104 NaN z m 915 NaN b 443 NaN 388 NaN 417 NaN b NaN NaN 468 NaN NaN NaN b NaN NaN NaN NaN NaN NaN b NaN NaN NaN NaN NaN NaN b NaN NaN NaN NaN NaN NaN l NaN NaN z m NaN NaN b NaN NaN NaN NaN NaN NaN b NaN NaN NaN NaN NaN NaN b NaN NaN NaN NaN NaN NaN l NaN NaN b NaN NaN NaN NaN NaN NaN b NaN NaN NaN NaN NaN NaN l NaN NaN b NaN NaN NaN NaN NaN NaN b NaN NaN NaN NaN NaN NaN b NaN NaN NaN NaN NaN NaN b NaN NaN NaN NaN NaN NaN z m NaN NaN z m NaN NaN b NaN NaN NaN NaN NaN NaN l NaN NaN l NaN NaN l NaN NaN l NaN NaN b NaN NaN NaN NaN NaN NaN l NaN NaN l NaN NaN z m NaN NaN l NaN NaN l NaN NaN l NaN NaN b NaN NaN NaN NaN NaN NaN l NaN NaN l NaN NaN b NaN NaN NaN NaN NaN NaN l NaN NaN l NaN NaN l NaN NaN z m NaN NaN z m NaN NaN b NaN NaN NaN NaN NaN NaN b NaN NaN NaN NaN NaN NaN l NaN NaN b NaN NaN NaN NaN NaN NaN b NaN NaN NaN NaN NaN NaN z m NaN NaN b NaN NaN NaN NaN NaN NaN b NaN NaN NaN NaN NaN NaN l NaN NaN b NaN NaN NaN NaN NaN NaN z m NaN NaN z m NaN NaN z m NaN NaN z "},"姥":{"ha":0,"x_min":0,"x_max":0,"o":"m 664 226 l 664 89 l 525 89 l 525 168 l 414 168 l 414 394 l 650 394 l 650 503 l 679 503 l 679 524 b 983 629 794 506 917 554 b 1015 638 992 639 1003 642 b 1060 649 1029 632 1051 632 b NaN NaN 1082 686 1006 767 b NaN NaN NaN NaN NaN NaN b NaN NaN NaN NaN NaN NaN l NaN NaN b NaN NaN NaN NaN NaN NaN b NaN NaN NaN NaN NaN NaN b NaN NaN NaN NaN NaN NaN b NaN NaN NaN NaN NaN NaN l NaN NaN b NaN NaN NaN NaN NaN NaN b NaN NaN NaN NaN NaN NaN b NaN NaN NaN NaN NaN NaN b NaN NaN NaN NaN NaN NaN z m NaN NaN b NaN NaN NaN NaN NaN NaN l NaN NaN l NaN NaN l NaN NaN z m NaN NaN b NaN NaN NaN NaN NaN NaN b NaN NaN NaN NaN NaN NaN b NaN NaN NaN NaN NaN NaN l NaN NaN l NaN NaN l NaN NaN l NaN NaN l NaN NaN b NaN NaN NaN NaN NaN NaN b NaN NaN NaN NaN NaN NaN "},"浦":{"ha":6,"x_min":0,"x_max":0,"o":"l -15 0 l -15 624 l 964 624 l 964 786 l 811 786 l 811 725 l 811 140 l 1093 140 l 1093 232 l 960 232 b 960 138 960 165 946 150 b 954 142 944 138 940 142 b NaN NaN 951 142 969 NaN b NaN NaN NaN NaN NaN NaN b NaN NaN NaN NaN NaN NaN b NaN NaN NaN NaN NaN NaN b NaN NaN NaN NaN NaN NaN l NaN NaN b NaN NaN NaN NaN NaN NaN b NaN NaN NaN NaN NaN NaN b NaN NaN NaN NaN NaN NaN b NaN NaN NaN NaN NaN NaN b NaN NaN NaN NaN NaN NaN b NaN NaN NaN NaN NaN NaN b NaN NaN NaN NaN NaN NaN b NaN NaN NaN NaN NaN NaN l NaN NaN l NaN NaN l NaN NaN m NaN NaN b NaN NaN NaN NaN NaN NaN b NaN NaN NaN NaN NaN NaN b NaN NaN NaN NaN NaN NaN z m NaN NaN l NaN NaN l NaN NaN l NaN NaN z m NaN NaN l NaN NaN l NaN NaN l NaN NaN z m NaN NaN l NaN NaN l NaN NaN l NaN NaN z m NaN NaN l NaN NaN l NaN NaN l NaN NaN z m NaN NaN l NaN NaN l NaN NaN b NaN NaN NaN NaN NaN NaN b NaN NaN NaN NaN NaN NaN z "},"⽠":{"ha":-53,"x_min":0,"x_max":0,"o":"b NaN NaN -4 -17 -22 -33 b NaN NaN NaN NaN NaN NaN b NaN NaN NaN NaN NaN NaN b NaN NaN NaN NaN NaN NaN b NaN NaN NaN NaN NaN NaN b NaN NaN NaN NaN NaN NaN b NaN NaN NaN NaN NaN NaN b NaN NaN NaN NaN NaN NaN b NaN NaN NaN NaN NaN NaN l NaN NaN b NaN NaN NaN NaN NaN NaN "},"瓜":{"ha":-53,"x_min":0,"x_max":0,"o":"b NaN NaN -4 -17 -22 -33 b NaN NaN NaN NaN NaN NaN b NaN NaN NaN NaN NaN NaN b NaN NaN NaN NaN NaN NaN b NaN NaN NaN NaN NaN NaN b NaN NaN NaN NaN NaN NaN b NaN NaN NaN NaN NaN NaN b NaN NaN NaN NaN NaN NaN b NaN NaN NaN NaN NaN NaN l NaN NaN b NaN NaN NaN NaN NaN NaN "},"閏":{"ha":0,"x_min":0,"x_max":0,"o":"m 547 1146 b 433 1169 511 1253 497 1169 l 389 1169 b 74 1281 -503 1169 78 1281 b 114 1279 79 1281 94 1279 b 233 1347 163 1279 233 1294 l 233 1626 b NaN NaN 233 1596 NaN NaN z m NaN NaN l NaN NaN l NaN NaN l NaN NaN l NaN NaN l NaN NaN l NaN NaN b NaN NaN NaN NaN NaN NaN b NaN NaN NaN NaN NaN NaN b NaN NaN NaN NaN NaN NaN l NaN NaN l NaN NaN l NaN NaN b NaN NaN NaN NaN NaN NaN b NaN NaN NaN NaN NaN NaN b NaN NaN NaN NaN NaN NaN l NaN NaN b NaN NaN NaN NaN NaN NaN l NaN NaN l NaN NaN b NaN NaN NaN NaN NaN NaN b NaN NaN NaN NaN NaN NaN b NaN NaN NaN NaN NaN NaN b NaN NaN NaN NaN NaN NaN b NaN NaN NaN NaN NaN NaN l NaN NaN l NaN NaN b NaN NaN NaN NaN NaN NaN z m NaN NaN l NaN NaN l NaN NaN l NaN NaN l NaN NaN l NaN NaN z "},"云":{"ha":0,"x_min":0,"x_max":0,"o":"m 329 961 z m 190 544 l 788 544 l 788 93 l 1025 93 b 1015 6 1026 69 1028 40 b 876 -275 978 -111 932 -200 b 819 -156 875 -307 844 -308 b 976 239 847 64 888 214 b 808 229 861 238 778 278 b NaN NaN 829 181 844 133 b NaN NaN NaN NaN NaN NaN b NaN NaN NaN NaN NaN NaN z "},"運":{"ha":-44,"x_min":0,"x_max":0,"o":"m 546 868 l 518 868 l 518 879 l 535 879 l 535 854 l 550 854 l 550 929 l 467 929 l 467 883 b 188 999 318 883 188 931 b NaN 1025 188 1011 228 1025 b NaN 1147 NaN 1053 NaN 1147 b NaN 1146 NaN 1147 NaN 1146 b NaN 1163 NaN 1151 NaN 1156 l NaN 1282 b NaN 1376 NaN 1338 NaN 1336 b NaN 1492 NaN 1413 NaN 1492 b NaN 1422 NaN 1492 NaN 1422 l NaN 1422 l NaN 1506 l NaN 1506 b NaN 1536 NaN 1506 NaN 1510 b NaN 1586 NaN 1546 NaN 1567 l NaN 1586 l NaN 1606 l NaN 1606 l NaN 1635 l NaN 1635 l NaN 1675 l NaN 1675 b NaN 1561 NaN 1631 NaN 1592 b NaN 1517 NaN 1510 NaN 1500 b NaN 1549 NaN 1519 NaN 1544 b NaN NaN NaN NaN NaN NaN l NaN NaN b NaN NaN NaN NaN NaN NaN b NaN NaN NaN NaN NaN NaN z m NaN NaN b NaN NaN NaN NaN NaN NaN b NaN NaN NaN NaN NaN NaN l NaN NaN b NaN NaN NaN NaN NaN NaN b NaN NaN NaN NaN NaN NaN z m NaN NaN b NaN NaN NaN NaN NaN NaN z m NaN NaN l NaN NaN l NaN NaN l NaN NaN z m NaN NaN l NaN NaN l NaN NaN l NaN NaN l NaN NaN l NaN NaN l NaN NaN b NaN NaN NaN NaN NaN NaN b NaN NaN NaN NaN NaN NaN b NaN NaN NaN NaN NaN NaN b NaN NaN NaN NaN NaN NaN l NaN NaN z m NaN NaN l NaN NaN l NaN NaN l NaN NaN z m NaN NaN l NaN NaN z m NaN NaN b NaN NaN NaN NaN NaN NaN b NaN NaN NaN NaN NaN NaN l NaN NaN l NaN NaN l NaN NaN b NaN NaN NaN NaN NaN NaN z "},"雲":{"ha":-53,"x_min":0,"x_max":0,"o":"m 1225 813 b 1275 588 1201 708 1243 588 l 1171 588 l 1171 422 l 1171 356 l 1153 356 l 1153 339 l 1171 339 l 1171 538 l 1432 538 b 1361 742 1328 603 1335 694 b NaN NaN 1435 NaN NaN NaN z m NaN NaN b NaN NaN NaN NaN NaN NaN z m NaN NaN b NaN NaN NaN NaN NaN NaN b NaN NaN NaN NaN NaN NaN z m NaN NaN l NaN NaN b NaN NaN NaN NaN NaN NaN b NaN NaN NaN NaN NaN NaN l NaN NaN l NaN NaN b NaN NaN NaN NaN NaN NaN b NaN NaN NaN NaN NaN NaN b NaN NaN NaN NaN NaN NaN b NaN NaN NaN NaN NaN NaN l NaN NaN l NaN NaN l NaN NaN l NaN NaN b NaN NaN NaN NaN NaN NaN l NaN NaN b NaN NaN NaN NaN NaN NaN b NaN NaN NaN NaN NaN NaN b NaN NaN NaN NaN NaN NaN b NaN NaN NaN NaN NaN NaN b NaN NaN NaN NaN NaN NaN b NaN NaN NaN NaN NaN NaN b NaN NaN NaN NaN NaN NaN b NaN NaN NaN NaN NaN NaN b NaN NaN NaN NaN NaN NaN b NaN NaN NaN NaN NaN NaN b NaN NaN NaN NaN NaN NaN b NaN NaN NaN NaN NaN NaN b NaN NaN NaN NaN NaN NaN b NaN NaN NaN NaN NaN NaN l NaN NaN "},"荏":{"ha":13,"x_min":0,"x_max":0,"o":"m 779 808 z m 779 NaN b 779 NaN 779 NaN 763 NaN z m 779 NaN b 829 NaN 757 NaN 797 NaN l 1189 NaN b 1260 NaN 1219 NaN 1260 NaN b 1167 NaN 1260 NaN 1200 NaN b 1044 NaN 1129 NaN 1113 NaN l 1044 NaN l 1288 NaN l 1317 NaN l 1317 NaN l 1408 NaN b 1442 NaN 1408 NaN 1442 NaN b 1411 NaN 1442 NaN 1429 NaN b 1550 NaN 1458 NaN 1504 NaN b 1615 NaN 1568 NaN 1606 NaN b 1468 NaN 1629 NaN 1553 NaN b 1417 NaN 1438 NaN 1435 NaN b 1007 NaN 1313 NaN 1164 NaN b 1224 NaN 1065 NaN 1140 NaN b 1233 NaN 1229 NaN 1233 NaN b 1004 NaN 1142 NaN 1004 NaN b NaN NaN 1004 NaN 986 NaN b NaN NaN NaN NaN NaN NaN b NaN NaN NaN NaN NaN NaN b NaN NaN NaN NaN NaN NaN b NaN NaN NaN NaN NaN NaN b NaN NaN NaN NaN NaN NaN b NaN NaN NaN NaN NaN NaN z "},"叡":{"ha":-19,"x_min":0,"x_max":0,"o":"m 231 746 b 168 1197 293 947 200 1040 b 492 1610 101 1190 258 1585 b 604 NaN 515 1624 557 1618 l 1006 NaN b 978 NaN 1003 NaN 993 NaN b 915 NaN 965 NaN 935 NaN b 828 NaN 888 NaN 876 NaN l 792 NaN l 792 NaN b 840 NaN 810 NaN 835 NaN b 1008 NaN 892 NaN 961 NaN l 983 NaN l 983 NaN b 915 NaN 971 NaN 950 NaN b 778 NaN 860 NaN 813 NaN b 847 NaN 765 NaN 797 NaN b 593 NaN 788 NaN 706 NaN b 935 NaN 703 NaN 826 NaN l 844 NaN l 844 NaN l 919 NaN l 919 NaN l 957 NaN l 957 NaN l 972 NaN l 972 NaN l 1010 NaN l 1010 NaN l 1065 NaN l 1065 NaN l 1186 NaN l 1186 NaN l 1349 NaN l 1349 NaN l 1561 NaN l 1561 NaN b 1460 NaN 1518 NaN 1486 NaN l 1460 NaN b 1554 NaN 1460 NaN 1493 NaN b 1442 NaN 1519 NaN 1506 NaN l 1338 NaN l 1338 NaN l 1338 NaN l 1318 NaN l 1318 NaN l 1208 NaN b 1135 NaN 1193 NaN 1169 NaN b 1079 NaN 1144 NaN 1131 NaN b 1031 NaN 1042 NaN 1015 NaN b 1194 NaN 1068 NaN 1149 NaN z m 1254 NaN b 1275 NaN 1258 NaN 1265 NaN b 1304 NaN 1285 NaN 1301 NaN b 1176 NaN 1313 NaN 1242 NaN b 1146 NaN 1149 NaN 1150 NaN b 1056 NaN 1135 NaN 1114 NaN b 1254 NaN 1169 NaN 1226 NaN z m 1632 NaN b 1563 NaN 1617 NaN 1585 NaN b 1649 NaN 1571 NaN 1590 NaN b 1767 NaN 1686 NaN 1731 NaN b 1660 NaN 1703 NaN 1686 NaN b NaN NaN 1617 NaN NaN NaN z m NaN NaN l NaN NaN b NaN NaN NaN NaN NaN NaN b NaN NaN NaN NaN NaN NaN l NaN NaN l NaN NaN l NaN NaN l NaN NaN b NaN NaN NaN NaN NaN NaN b NaN NaN NaN NaN NaN NaN l NaN NaN l NaN NaN l NaN NaN b NaN NaN NaN NaN NaN NaN b NaN NaN NaN NaN NaN NaN b NaN NaN NaN NaN NaN NaN l NaN NaN b NaN NaN NaN NaN NaN NaN b NaN NaN NaN NaN NaN NaN b NaN NaN NaN NaN NaN NaN b NaN NaN NaN NaN NaN NaN b NaN NaN NaN NaN NaN NaN b NaN NaN NaN NaN NaN NaN b NaN NaN NaN NaN NaN NaN b NaN NaN NaN NaN NaN NaN b NaN NaN NaN NaN NaN NaN b NaN NaN NaN NaN NaN NaN b NaN NaN NaN NaN NaN NaN b NaN NaN NaN NaN NaN NaN z m NaN NaN l NaN NaN l NaN NaN l NaN NaN b NaN NaN NaN NaN NaN NaN z m NaN NaN l NaN NaN l NaN NaN l NaN NaN l NaN NaN l NaN NaN z m NaN NaN l NaN NaN l NaN NaN l NaN NaN l NaN NaN z "},"営":{"ha":0,"x_min":0,"x_max":0,"o":"l 1118 0 l 1118 976 l 1078 976 b 1188 1088 1133 1008 1168 1050 b 1011 1232 1203 1126 1106 1200 b 963 1194 969 1246 969 1232 b 819 939 942 1097 908 1017 l 538 939 b 582 1060 576 964 592 1015 b 617 982 592 1026 601 999 b 657 1032 549 1028 597 1043 b NaN NaN 715 NaN NaN NaN l NaN NaN b NaN NaN NaN NaN NaN NaN l NaN NaN l NaN NaN l NaN NaN l NaN NaN l NaN NaN l NaN NaN l NaN NaN l NaN NaN b NaN NaN NaN NaN NaN NaN b NaN NaN NaN NaN NaN NaN b NaN NaN NaN NaN NaN NaN b NaN NaN NaN NaN NaN NaN l NaN NaN b NaN NaN NaN NaN NaN NaN b NaN NaN NaN NaN NaN NaN l NaN NaN b NaN NaN NaN NaN NaN NaN b NaN NaN NaN NaN NaN NaN l NaN NaN l NaN NaN b NaN NaN NaN NaN NaN NaN b NaN NaN NaN NaN NaN NaN b NaN NaN NaN NaN NaN NaN b NaN NaN NaN NaN NaN NaN l NaN NaN l NaN NaN l NaN NaN l NaN NaN l NaN NaN l NaN NaN l NaN NaN l NaN NaN l NaN NaN b NaN NaN NaN NaN NaN NaN b NaN NaN NaN NaN NaN NaN l NaN NaN l NaN NaN l NaN NaN l NaN NaN l NaN NaN m NaN NaN l NaN NaN l NaN NaN l NaN NaN z "},"嬰":{"ha":0,"x_min":0,"x_max":0,"o":"m 94 388 b 356 464 197 343 300 378 b 379 476 363 474 369 478 b 413 493 390 474 408 476 b 326 594 421 519 379 563 b 349 633 339 604 349 617 l 349 639 l 481 639 b 479 607 478 622 476 614 b 411 586 456 603 432 596 b 493 511 454 564 471 551 b 471 356 461 492 501 450 l 467 343 l 421 343 l 421 367 l 388 265 l 392 261 l 407 253 l 428 246 l 478 231 l 482 242 b 547 232 504 239 526 236 b 242 81 465 161 361 111 b 708 167 378 35 567 49 b 768 119 729 153 749 138 b 882 65 813 78 851 47 b 897 250 954 108 946 199 b 817 294 882 267 854 283 b 872 347 838 325 864 325 b 858 385 875 356 869 369 l 972 385 l 972 135 b 986 151 978 139 983 144 b 965 196 990 163 981 178 b 1199 251 1056 160 1151 188 b 1222 264 1206 261 1213 265 b 1256 279 1233 261 1250 264 b 1179 374 1264 306 1226 344 b 1199 411 1190 383 1199 396 l 1199 417 l 1358 417 b 1364 378 1356 394 1353 385 b 1268 342 1331 372 1297 361 b 1414 240 1340 324 1374 294 b 1496 182 1443 201 1468 171 b 1533 324 1557 204 1567 279 b 1446 375 1515 349 1483 367 b 1539 439 1492 381 1539 400 l 1539 746 l 1447 746 l 1447 400 b 1447 306 1447 333 1431 318 b 1492 299 1453 301 1469 299 b 1504 300 1496 299 1500 300 b 1375 167 1476 242 1429 200 b 1347 190 1367 175 1357 183 b 1358 297 1372 219 1378 264 l 1358 286 l 1381 286 l 1381 264 l 1397 264 l 1397 236 l 1406 236 l 1406 515 l 1342 515 l 1342 197 b 1342 103 1342 131 1325 115 b 1386 96 1347 99 1364 96 b 1411 97 1394 96 1403 97 b 1264 -82 1383 26 1336 -39 l 2072 -82 l 2072 529 l 2231 529 l 2231 465 l 2067 465 l 1513 465 l 1513 489 l 1643 489 l 1643 435 l 1507 435 z m 2225 369 l 2225 306 l 2061 306 l 2061 369 z m 1643 365 l 1643 311 l 1507 311 l 1507 365 z m 1643 242 l 1643 186 l 1507 186 l 1507 242 z m 2225 236 l 2225 172 l 2061 172 l 2061 236 z m 1924 -249 b 1910 -279 1921 -258 1917 -268 b 1878 -372 1894 -289 1882 -331 b 1954 NaN 1868 -417 1854 -385 l NaN NaN z "},"影":{"ha":0,"x_min":0,"x_max":0,"o":"b -93 121 0 26 -60 121 l -132 121 l -132 83 b -97 81 -124 82 -111 81 b 33 149 -44 81 33 96 l 33 269 b 67 364 33 325 67 324 b -78 493 67 400 -43 493 b -224 408 -78 353 -224 399 b -208 301 -224 385 -208 351 b -158 100 -232 221 -190 100 m 793 606 b 743 582 761 617 756 603 b 428 324 663 460 563 376 b 882 439 597 240 763 304 b 950 478 897 456 939 443 b NaN NaN 871 553 785 581 l NaN NaN l NaN NaN l NaN NaN l NaN NaN l NaN NaN l NaN NaN l NaN NaN l NaN NaN b NaN NaN NaN NaN NaN NaN l NaN NaN b NaN NaN NaN NaN NaN NaN z m NaN NaN b NaN NaN NaN NaN NaN NaN z m NaN NaN b NaN NaN NaN NaN NaN NaN b NaN NaN NaN NaN NaN NaN b NaN NaN NaN NaN NaN NaN l NaN NaN b NaN NaN NaN NaN NaN NaN b NaN NaN NaN NaN NaN NaN b NaN NaN NaN NaN NaN NaN b NaN NaN NaN NaN NaN NaN b NaN NaN NaN NaN NaN NaN b NaN NaN NaN NaN NaN NaN b NaN NaN NaN NaN NaN NaN b NaN NaN NaN NaN NaN NaN b NaN NaN NaN NaN NaN NaN b NaN NaN NaN NaN NaN NaN b NaN NaN NaN NaN NaN NaN l NaN NaN l NaN NaN l NaN NaN l NaN NaN l NaN NaN l NaN NaN l NaN NaN l NaN NaN b NaN NaN NaN NaN NaN NaN b NaN NaN NaN NaN NaN NaN b NaN NaN NaN NaN NaN NaN b NaN NaN NaN NaN NaN NaN l NaN NaN b NaN NaN NaN NaN NaN NaN b NaN NaN NaN NaN NaN NaN b NaN NaN NaN NaN NaN NaN b NaN NaN NaN NaN NaN NaN b NaN NaN NaN NaN NaN NaN b NaN NaN NaN NaN NaN NaN b NaN NaN NaN NaN NaN NaN b NaN NaN NaN NaN NaN NaN l NaN NaN l NaN NaN l NaN NaN l NaN NaN l NaN NaN z m NaN NaN b NaN NaN NaN NaN NaN NaN l NaN NaN b NaN NaN NaN NaN NaN NaN z "},"映":{"ha":0,"x_min":0,"x_max":0,"o":"b 144 119 74 49 149 119 b 186 117 149 119 165 117 l 186 165 l 260 165 l 260 288 l 235 288 l 235 299 l 250 299 l 250 278 l 372 278 b 24 -185 311 11 139 -117 b 508 142 217 -200 413 -96 b 565 -33 508 -99 565 75 b 613 18 565 -10 613 18 b 253 314 475 49 328 153 l 531 314 b 485 265 513 314 501 289 l 485 488 b 515 582 485 543 515 542 b 382 710 515 618 414 710 b 272 628 347 710 332 631 l 272 747 l 272 626 l 235 626 l 235 579 l 275 579 l 275 444 l -18 444 l -18 679 b 13 774 -18 733 13 732 b -122 901 13 808 -90 901 b -237 818 -157 901 -172 818 l -240 818 b -444 875 -287 858 -424 900 m -281 875 l -297 875 l -297 851 l -254 851 l -254 918 l -432 918 l -432 846 l 56 846 l 56 992 l 119 992 l 119 806 b 113 665 119 756 117 708 l 50 665 l 258 665 l 258 733 l -68 733 l -68 658 b -61 799 -64 703 -61 749 z m -685 743 l -685 565 l -757 565 l -757 743 z "},"曳":{"ha":0,"x_min":0,"x_max":0,"o":"l 254 0 l 254 175 l 406 175 l 406 376 l 581 376 l 581 331 l 617 331 l 617 1465 l 474 1465 b 472 1524 474 1483 472 1503 b 506 1543 472 1563 506 1542 b 486 NaN 506 1525 486 NaN l 486 NaN l 100 NaN l 100 NaN b 153 NaN 119 NaN 138 NaN b 222 NaN 179 NaN 208 NaN b 203 NaN 231 NaN 221 NaN b 282 NaN 243 NaN 282 NaN l -424 NaN l -424 NaN l -276 NaN b -267 NaN -274 NaN -271 NaN l -431 NaN m -94 NaN b -101 NaN -97 NaN -100 NaN l 100 NaN l 100 NaN z m -431 NaN l -258 NaN b -236 NaN -253 NaN -246 NaN l -431 NaN z m -64 NaN b -87 NaN -74 NaN -81 NaN l 100 NaN l 100 NaN "},"栄":{"ha":28,"x_min":0,"x_max":0,"o":"b 532 179 249 118 489 250 b 718 283 625 183 672 235 b NaN NaN 733 343 724 401 l NaN NaN b NaN NaN NaN NaN NaN NaN b NaN NaN NaN NaN NaN NaN l NaN NaN l NaN NaN l NaN NaN l NaN NaN l NaN NaN l NaN NaN b NaN NaN NaN NaN NaN NaN b NaN NaN NaN NaN NaN NaN l NaN NaN m NaN NaN b NaN NaN NaN NaN NaN NaN b NaN NaN NaN NaN NaN NaN b NaN NaN NaN NaN NaN NaN z m NaN NaN b NaN NaN NaN NaN NaN NaN b NaN NaN NaN NaN NaN NaN l NaN NaN l NaN NaN l NaN NaN l NaN NaN l NaN NaN l NaN NaN l NaN NaN b NaN NaN NaN NaN NaN NaN b NaN NaN NaN NaN NaN NaN l NaN NaN l NaN NaN b NaN NaN NaN NaN NaN NaN b NaN NaN NaN NaN NaN NaN z "},"永":{"ha":0,"x_min":0,"x_max":0,"o":"m 643 1007 b 686 1110 678 958 710 1039 b NaN NaN 633 1158 567 NaN z m NaN NaN b NaN NaN NaN NaN NaN NaN b NaN NaN NaN NaN NaN NaN b NaN NaN NaN NaN NaN NaN b NaN NaN NaN NaN NaN NaN b NaN NaN NaN NaN NaN NaN b NaN NaN NaN NaN NaN NaN l NaN NaN l NaN NaN l NaN NaN l NaN NaN l NaN NaN l NaN NaN l NaN NaN l NaN NaN l NaN NaN b NaN NaN NaN NaN NaN NaN z m NaN NaN b NaN NaN NaN NaN NaN NaN b NaN NaN NaN NaN NaN NaN b NaN NaN NaN NaN NaN NaN b NaN NaN NaN NaN NaN NaN b NaN NaN NaN NaN NaN NaN z "}}}
